SplineFontDB: 3.0
FontName: Neuton-ExtralightItalic
FullName: Neuton Extralight Italic
FamilyName: Neuton
Weight: ExtraLight
Copyright: Copyright (c) 2010, 2011 Brian M Zick (http://21326.info/), \nwith Reserved Font Name 'Neuton'.\n\nThis Font Software is licensed under the SIL Open Font License, Version 1.1.\nThis license is available with a FAQ at: http://scripts.sil.org/OFL\n   WITHOUT WARRANTIES OR CONDITIONS OF ANY KIND, either express or implied.\n   See the License for the specific language governing permissions and\n   limitations under the License.
UComments: "2011-7-27: Created." 
Version: 1.46
ItalicAngle: -9
UnderlinePosition: -361
UnderlineWidth: 0
Ascent: 1638
Descent: 410
LayerCount: 3
Layer: 0 0 "Back"  1
Layer: 1 0 "Fore"  0
Layer: 2 0 "Compare"  0
NeedsXUIDChange: 1
XUID: [1021 467 2011608612 16041572]
FSType: 1
OS2Version: 1
OS2_WeightWidthSlopeOnly: 0
OS2_UseTypoMetrics: 0
CreationTime: 1311747327
ModificationTime: 1370953276
PfmFamily: 17
TTFWeight: 500
TTFWidth: 5
LineGap: 0
VLineGap: 0
OS2TypoAscent: 2106
OS2TypoAOffset: 0
OS2TypoDescent: -485
OS2TypoDOffset: 0
OS2TypoLinegap: 0
OS2WinAscent: 2106
OS2WinAOffset: 0
OS2WinDescent: 485
OS2WinDOffset: 0
HheadAscent: 2106
HheadAOffset: 0
HheadDescent: -485
HheadDOffset: 0
OS2SubXSize: 1095
OS2SubYSize: 1179
OS2SubXOff: 0
OS2SubYOff: 235
OS2SupXSize: 1095
OS2SupYSize: 1179
OS2SupXOff: 0
OS2SupYOff: 809
OS2StrikeYSize: 84
OS2StrikeYPos: 436
OS2Vendor: 'PfEd'
Lookup: 1 0 0 "'onum' Oldstyle Figures lookup 1"  {"'onum' Oldstyle Figures lookup 1-1" ("osf" ) } ['onum' ('DFLT' <'dflt' > 'hebr' <'dflt' > 'latn' <'dflt' > ) ]
Lookup: 3 0 0 "Neuton-Regular-'salt' Stylistic Alternates"  {"Neuton-Regular-Alternate Substitution in Latin lookup 0-1"  } ['salt' ('DFLT' <'dflt' > 'latn' <'dflt' > ) ]
MarkAttachClasses: 1
DEI: 91125
LangName: 1033 
Encoding: UnicodeBmp
Compacted: 1
UnicodeInterp: none
NameList: Adobe Glyph List
DisplaySize: -24
AntiAlias: 1
FitToEm: 1
WidthSeparation: 200
WinInfo: 0 31 10

StartChar: exclam
Encoding: 33 33 0
Width: 368
VWidth: 0
Flags: HMW
LayerCount: 3
Back
SplineSet
83 92 m 0xc0
 83 159 140 210 206 210 c 0
 273 210 331 157 331 90 c 0
 331 20 276 -36 206 -36 c 0
 136 -36 83 22 83 92 c 0xc0
109 1245 m 0
 109 1282 197 1292 240 1292 c 0
 267 1292 304 1284 304 1253 c 0xa0
 304 1084.02 273 675 249 357 c 1
 162 376 l 1
 147 669 109 1072 109 1245 c 0
EndSplineSet
Fore
SplineSet
132.453 66 m 0
 141.006 120 170.184 159 204.184 159 c 0
 240.184 159 258.006 120 249.453 66 c 0
 240.267 8 219.773 -33 174.773 -33 c 0
 132.773 -33 123.9 12 132.453 66 c 0
326.456 1253 m 0
 330.732 1280 365.949 1294 401.949 1294 c 0
 428.949 1294 453.365 1284 448.456 1253 c 0
 421.688 1084 336.177 683 258.019 360 c 1
 215.444 369 l 1
 250.969 688 308.717 1141 326.456 1253 c 0
EndSplineSet
Colour: ffffff
EndChar

StartChar: quotedbl
Encoding: 34 34 1
Width: 516
VWidth: 0
Flags: HMW
LayerCount: 3
Back
SplineSet
50 1302 m 1
 233 1286 l 1
 197 903 l 1
 104 892 l 1
 50 1302 l 1
258 1302 m 1
 442 1286 l 1
 406 903 l 1
 311 892 l 1
 258 1302 l 1
EndSplineSet
Fore
SplineSet
121 1302 m 1
 230 1296 l 1
 194 895 l 1
 142 891 l 1
 121 1302 l 1
286 1302 m 1
 396 1296 l 1
 360 895 l 1
 307 891 l 1
 286 1302 l 1
EndSplineSet
Colour: ffffff
EndChar

StartChar: numbersign
Encoding: 35 35 2
Width: 1210
VWidth: 0
Flags: HMW
LayerCount: 3
Back
SplineSet
182 -26 m 9
 359 1149 l 17
 475 1159 l 9
 299 -19 l 17
 182 -26 l 9
49 711 m 17
 83 836 l 9
 992 836 l 17
 961 711 l 9
 49 711 l 17
-22 326 m 1
 11 451 l 9
 917 451 l 17
 886 326 l 1
 -22 326 l 1
487 -26 m 9
 663 1149 l 17
 781 1158 l 9
 604 -19 l 17
 487 -26 l 9
EndSplineSet
Fore
SplineSet
391 -19 m 17
 324 -26 l 9
 500 1151 l 17
 568 1161 l 9
 391 -19 l 17
174 712 m 17
 196 789 l 9
 1107 789 l 17
 1088 712 l 9
 174 712 l 17
103 326 m 17
 124 403 l 9
 1033 403 l 17
 1012 326 l 9
 103 326 l 17
722 -19 m 17
 653 -26 l 9
 830 1151 l 17
 898 1160 l 9
 722 -19 l 17
EndSplineSet
Colour: ffffff
EndChar

StartChar: dollar
Encoding: 36 36 3
Width: 942
VWidth: 0
Flags: HMW
LayerCount: 3
Back
SplineSet
66 122 m 1xd1
 79 389 l 1
 181 375 l 1
 220 187 l 1
 256 130 333 77 426 77 c 0
 531 77 663 139 663 287 c 0xe1
 663 547 90 544 90 916 c 0
 90 1143 282 1269 479 1269 c 0
 587 1269 682 1235 761 1169 c 1
 761 1161 739 887 739 887 c 1
 640 899 l 1xd2
 615 1090 l 1
 597 1126 525 1185 445 1185 c 0
 345 1185 263 1126 263 995 c 0
 263 708 847 730 847 354 c 0
 847 124 630 -24 402 -24 c 0
 258 -24 130 43 66 122 c 1xd1
367 -179 m 1xc8
 379 9 l 1
 416 54 l 1
 416 631 l 1
 421 700 l 1
 421 1207 l 1
 385 1242 l 1
 370 1394 l 1
 535 1409 l 1
 518 1242 l 1
 483 1202 l 1
 483 666 l 1xc4
 486 582 l 1
 486 54 l 1
 527 20 l 1
 540 -164 l 1
 367 -179 l 1xc8
EndSplineSet
Fore
SplineSet
124.373 116 m 1
 199.512 401 l 1
 246.245 393 l 1
 239.559 174 l 1
 270.779 87 380.86 37 493.86 37 c 0
 617.86 37 745.896 113 769.497 262 c 0
 816.854 561 251.456 609 306.891 959 c 0
 338.409 1158 528.307 1271 688.307 1271 c 0
 796.307 1271 907.764 1236 962.885 1161 c 1
 880.785 851 l 1
 835.894 858 l 1
 847.381 1101 l 1
 821.835 1167 735.278 1214 653.278 1214 c 0
 541.278 1214 433.083 1137 412.335 1006 c 0
 362.127 689 937.94 631 886.782 308 c 0
 856.848 119 679.882 -26 431.882 -26 c 0
 287.882 -26 175.86 37 124.373 116 c 1
379.649 -179 m 1
 421.426 9 l 1
 446.553 54 l 1
 538.099 632 l 1
 553.869 700 l 1
 634.328 1208 l 1
 623.03 1244 l 1
 637.104 1396 l 1
 748.48 1411 l 5
 707.03 1244 l 1
 682.854 1205 l 1
 597.484 666 l 1
 586.338 583 l 1
 502.553 54 l 1
 515.168 20 l 1
 500.025 -164 l 1
 379.649 -179 l 1
EndSplineSet
Colour: ffffff
EndChar

StartChar: percent
Encoding: 37 37 4
Width: 1230
VWidth: 0
Flags: HMW
LayerCount: 3
Back
SplineSet
29 898 m 0x15e0
 29 1067 178 1211 301 1211 c 0
 319 1211 324 1210 330 1208 c 1
 340 1142 l 17
 325 1148 314 1154 295 1154 c 0x1be0
 216 1154 194 1012 194 898 c 0
 194 781 223 649 297 649 c 0
 381 649 402 778 402 898 c 0
 402 1041 384 1137 364 1198 c 9x15e0
 921 1210 l 25
 931 1121 l 25x09e0
 491 1137 l 17
 541 1085 566 948 566 898 c 0
 566 726 414 583 297 583 c 0
 170 583 29 706 29 898 c 0x15e0
123 -10 m 1
 530 588 l 1
 921 1210 l 1
 1087 1207 l 1
 1085 1178 l 1
 684 591 l 1
 313 -32 l 1x41e0
 123 -10 l 1
647 277 m 0
 647 446 794 590 917 590 c 0
 1059 590 1181 453 1181 274 c 0
 1181 105 1037 -36 920 -36 c 0xa1e0
 793 -36 647 87 647 277 c 0
812 277 m 0
 812 160 846 32 920 32 c 0
 1004 32 1021 158 1021 279 c 0
 1021 399 993 534 917 534 c 0
 832 534 812 391 812 277 c 0
EndSplineSet
Fore
SplineSet
250.388 899 m 0
 277.312 1069 389.12 1213 512.12 1213 c 0
 530.12 1213 549.12 1213 554.646 1210 c 1
 539.201 1163 l 17
 527.419 1177 526.21 1182 507.21 1182 c 0
 422.21 1182 358.602 1014 340.388 899 c 0
 321.698 781 345.99 625 420.99 625 c 0
 504.99 625 575.382 779 594.388 899 c 0
 617.037 1042 604.083 1137 586.111 1194 c 9
 1084.96 1212 l 25
 1087.2 1163 l 25
 677.201 1163 l 17
 699.391 1120 693.307 949 685.388 899 c 0
 658.146 727 532.812 586 414.812 586 c 0
 287.812 586 219.978 707 250.388 899 c 0
224.189 -43 m 1
 670.13 588 l 1
 1084.96 1212 l 1
 1181.17 1207 l 1
 1177.54 1203 l 1
 749.605 591 l 1
 324.556 -47 l 1
 224.189 -43 l 1
726.031 278 m 0
 752.956 448 865.605 591 988.605 591 c 0
 1130.61 591 1191.75 453 1163.4 274 c 0
 1136.47 104 1010.3 -36 892.298 -36 c 0
 765.298 -36 695.938 88 726.031 278 c 0
819.031 278 m 0
 800.342 160 823 0 898 0 c 0
 982 0 1053.18 159 1072.35 280 c 0
 1091.35 400 1059.54 559 983.537 559 c 0
 898.537 559 837.245 393 819.031 278 c 0
EndSplineSet
Colour: ffffff
EndChar

StartChar: ampersand
Encoding: 38 38 5
Width: 1357
VWidth: 0
Flags: HMW
LayerCount: 3
Back
SplineSet
33 313 m 0xf4
 33 468 125 596 310 701 c 1
 246 755 178 860 178 974 c 0xec
 178 1130 334 1271 494 1271 c 0
 675 1271 786 1192 786 1011 c 0
 786 909 707 808 556 716 c 1
 556 705 l 1
 787 449 l 1
 964 719 l 1
 813 761 l 1
 823 837 l 1
 1255 837 l 1
 1245 761 l 1
 1075 722 l 1
 859 380 l 1
 1027 199 1143 97 1202 79 c 2
 1235 70 l 1
 1220 0 l 1
 1183 -13 1143 -19 1100 -19 c 0
 989 -19 903 66 844 128 c 2
 756 218 l 1
 664 84 569 -19 380 -19 c 0
 175 -19 33 111 33 313 c 0xf4
221 393 m 0xf4
 221 242 288 105 439 105 c 0
 556 105 646 205 685 282 c 1
 372 629 l 1
 355 632 l 1
 287 585 221 503 221 393 c 0xf4
338 1024 m 0xec
 338 924 427 820 488 773 c 1
 566 826 616 872 616 988 c 0
 616 1098 579 1188 474 1188 c 0
 389 1188 338 1107 338 1024 c 0xec
EndSplineSet
Fore
SplineSet
148.487 243 m 0
 178.58 433 362.062 556 534.435 672 c 1
 477.897 757 414.636 869 431.425 975 c 0
 456.133 1131 593.465 1272 753.465 1272 c 0
 907.465 1272 991.102 1175 966.711 1021 c 0
 944.22 879 807.698 781 660.177 683 c 1
 659.701 680 l 1
 867.979 385 l 1
 1109.2 721 l 1
 953.105 752 l 1
 960.49 786 l 1
 1376.49 786 l 1
 1366.11 752 l 1
 1193.51 723 l 1
 908.584 332 l 1
 1016.39 154 1121.04 76 1208.44 47 c 2
 1252.38 34 l 1
 1239.53 -3 l 1
 1194.15 -18 1182.83 -20 1145.83 -20 c 0
 1047.83 -20 963.395 53 920.373 116 c 2
 836.379 236 l 1
 731.581 111 589.832 -20 393.832 -20 c 0
 215.832 -20 125.521 98 148.487 243 c 0
266.506 281 m 0
 247.5 161 327.295 65 450.295 65 c 0
 580.295 65 694.024 158 798.932 290 c 1
 568.516 622 l 1
 565.516 622 l 1
 420.151 525 289.472 426 266.506 281 c 0
517.502 1026 m 0
 503.248 936 561.301 829 624.779 731 c 1
 746.767 813 847.912 896 864.385 1000 c 0
 882.599 1115 815.962 1212 715.962 1212 c 0
 613.962 1212 532.707 1122 517.502 1026 c 0
EndSplineSet
Colour: ffffff
EndChar

StartChar: quotesingle
Encoding: 39 39 6
Width: 350
VWidth: 0
Flags: HMW
LayerCount: 3
Back
SplineSet
50 1302 m 1
 233 1286 l 1
 197 903 l 1
 104 892 l 1
 50 1302 l 1
EndSplineSet
Fore
SplineSet
121 1302 m 1
 230 1296 l 1
 194 895 l 1
 142 891 l 1
 121 1302 l 1
EndSplineSet
Colour: ffffff
EndChar

StartChar: parenleft
Encoding: 40 40 7
Width: 581
VWidth: 0
Flags: HMW
LayerCount: 3
Back
SplineSet
49 445 m 0
 49 970 320 1199 386 1255 c 1
 436 1189 l 1
 350 1076 227 879 227 455 c 0
 227 40 405 -244 449 -317 c 1
 381 -375 l 1
 331 -328 49 -70 49 445 c 0
EndSplineSet
Fore
SplineSet
680.12 1213 m 1
 662.931 1256 l 1
 587.903 1199 281.375 981 198.064 455 c 0
 116.339 -61 355.05 -328 398.765 -374 c 1
 431.832 -342 l 1
 398.395 -269 245.335 40 311.224 456 c 0
 378.537 881 577.223 1100 680.12 1213 c 1
EndSplineSet
Colour: ffffff
EndChar

StartChar: parenright
Encoding: 41 41 8
Width: 581
VWidth: 0
Flags: HMW
LayerCount: 3
Back
SplineSet
44 1189 m 1
 93 1255 l 1
 159 1199 431 970 431 445 c 0
 431 -70 149 -328 99 -375 c 1
 30 -317 l 1
 74 -244 253 40 253 455 c 0
 253 879 130 1076 44 1189 c 1
EndSplineSet
Fore
SplineSet
295.12 1213 m 1
 325.931 1256 l 1
 382.903 1199 620.375 981 537.064 455 c 0
 455.339 -61 132.05 -328 73.7646 -374 c 1
 50.832 -342 l 1
 107.395 -269 358.335 40 424.224 456 c 0
 491.537 881 362.223 1100 295.12 1213 c 1
EndSplineSet
Colour: ffffff
EndChar

StartChar: asterisk
Encoding: 42 42 9
Width: 916
VWidth: 0
Flags: HMW
LayerCount: 3
Back
SplineSet
328 1292 m 1
 464 1279 l 1
 438 988 l 1
 727 1119 l 1
 756 989 l 1
 471 921 l 1
 690 692 l 1
 572 623 l 1
 419 870 l 1
 264 593 l 1
 162 685 l 1
 355 904 l 1
 43 964 l 1
 98 1091 l 1
 365 977 l 1
 328 1292 l 1
EndSplineSet
Fore
SplineSet
405 1289 m 1
 514 1280 l 1
 489 973 l 5
 782 1097 l 1
 807 990 l 1
 507 923 l 5
 714 680 l 1
 622 623 l 1
 465 893 l 1
 296 616 l 1
 213 684 l 1
 417 919 l 1
 107 990 l 1
 149 1093 l 1
 433 970 l 1
 405 1289 l 1
EndSplineSet
Colour: ffffff
EndChar

StartChar: plus
Encoding: 43 43 10
Width: 732
VWidth: 0
Flags: HMW
LayerCount: 3
Back
SplineSet
50 409 m 1
 62 510 l 1
 271 510 l 1
 271 741 l 1
 380 729 l 1
 381 510 l 1
 601 510 l 1
 589 409 l 1
 381 409 l 1
 383 174 l 1
 271 185 l 1
 271 409 l 1
 50 409 l 1
EndSplineSet
Fore
SplineSet
111 426 m 1
 124 495 l 1
 332 495 l 1
 332 742 l 1
 399 730 l 1
 401 495 l 1
 621 495 l 1
 610 426 l 1
 401 426 l 1
 402 172 l 1
 332 187 l 1
 332 426 l 1
 111 426 l 1
EndSplineSet
Colour: ffffff
EndChar

StartChar: comma
Encoding: 44 44 11
Width: 514
VWidth: 0
Flags: HMW
LayerCount: 3
Back
SplineSet
54 -244 m 1
 185 -210 236 -134 236 -70 c 0
 236 -14 190 36 120 36 c 0
 110 36 100 35 90 34 c 1
 82 55 76 74 76 97 c 0
 76 177 148 218 198 218 c 0
 268 218 372 161 372 10 c 0
 372 -83 340 -243 77 -313 c 1
 54 -244 l 1
EndSplineSet
Fore
SplineSet
114 -236 m 1
 257 -179 292 -112 292 -30 c 0
 292 57 242 112 183 112 c 0
 174 112 165 112 156 108 c 1
 153 117 153 118 153 127 c 0
 153 182 192 218 249 218 c 0
 325 218 392 147 392 9 c 0
 392 -85 335 -215 126 -281 c 1
 114 -236 l 1
EndSplineSet
Colour: ffffff
EndChar

StartChar: hyphen
Encoding: 45 45 12
Width: 664
VWidth: 0
Flags: HMW
LayerCount: 3
Back
SplineSet
81 398 m 1xa0
 92 498 l 1xa0
 500 517 l 1
 489 415 l 1x60
 81 398 l 1xa0
EndSplineSet
Fore
SplineSet
126 419 m 1
 136 480 l 1
 542 497 l 1
 533 437 l 1
 126 419 l 1
EndSplineSet
Colour: ffffff
EndChar

StartChar: period
Encoding: 46 46 13
Width: 376
VWidth: 0
Flags: HMW
LayerCount: 3
Back
SplineSet
73 92 m 0
 73 156 127 205 191 205 c 0
 257 205 313 154 313 90 c 0
 313 23 257 -31 191 -31 c 0
 125 -31 73 25 73 92 c 0
EndSplineSet
Fore
SplineSet
126 70 m 0
 126 133 146 167 189 167 c 0
 232 167 252 134 252 70 c 0
 252 4 235 -33 189 -33 c 0
 143 -33 126 6 126 70 c 0
EndSplineSet
Colour: ffffff
EndChar

StartChar: colon
Encoding: 58 58 14
Width: 378
VWidth: 0
Flags: HMW
LayerCount: 3
Back
SplineSet
99 119 m 0
 99 178 151 224 212 224 c 0
 273 224 325 176 325 117 c 0
 325 53 273 1 212 1 c 0
 150 1 99 55 99 119 c 0
99 747 m 0
 99 808 151 853 212 853 c 0
 273 853 325 805 325 744 c 0
 325 680 273 629 212 629 c 0
 150 629 99 683 99 747 c 0
EndSplineSet
Fore
SplineSet
241.254 734 m 0
 251.232 797 276.301 829 319.301 829 c 0
 362.301 829 376.391 798 366.254 734 c 0
 355.801 668 334.94 631 288.94 631 c 0
 242.94 631 231.117 670 241.254 734 c 0
144.313 103 m 0
 154.292 166 179.677 200 222.677 200 c 0
 265.677 200 280.45 167 270.313 103 c 0
 259.86 37 237 0 191 0 c 0
 145 0 134.177 39 144.313 103 c 0
EndSplineSet
Colour: ffffff
EndChar

StartChar: semicolon
Encoding: 59 59 15
Width: 483
VWidth: 0
Flags: HMW
LayerCount: 3
Back
SplineSet
77 -230 m 1xe8
 199 -198 246 -131 246 -70 c 0
 246 -18 204 31 138 31 c 0
 129 31 119 29 110 28 c 1
 102 47 96 66 96 87 c 0
 96 161 163 199 210 199 c 0
 274 199 372 145 372 6 c 0
 372 -81 342 -231 98 -295 c 1
 77 -230 l 1xe8
126 744 m 0xf0
 126 806 178 853 240 853 c 0
 304 853 356 805 356 743 c 0
 356 678 304 626 240 626 c 0
 176 626 126 679 126 744 c 0xf0
EndSplineSet
Fore
Refer: 13 46 N 0.96 0 0.152049 0.96 113.761 656 2
Refer: 11 44 N 0.93 0 0.147298 0.93 19.3852 -3 2
Colour: ffffff
EndChar

StartChar: slash
Encoding: 47 47 16
Width: 746
VWidth: 0
Flags: HMW
LayerCount: 3
Back
SplineSet
439 1235 m 21
 571 1244 l 13
 106 -355 l 21
 -23 -363 l 13
 439 1235 l 21
EndSplineSet
Fore
SplineSet
100 -358 m 1
 562 1241 l 1
 644 1244 l 1
 179 -354 l 1
 100 -358 l 1
EndSplineSet
Colour: ffffff
EndChar

StartChar: equal
Encoding: 61 61 17
Width: 875
VWidth: 0
Flags: HMW
LayerCount: 3
Back
SplineSet
92 319 m 1
 102 424 l 1
 717 424 l 1
 706 319 l 1
 92 319 l 1
95 559 m 1
 105 663 l 1
 721 663 l 1
 709 559 l 1
 95 559 l 1
EndSplineSet
Fore
SplineSet
122 340 m 1
 134 405 l 1
 749 405 l 1
 738 340 l 1
 122 340 l 1
125 580 m 1
 138 645 l 1
 751 645 l 1
 740 580 l 1
 125 580 l 1
EndSplineSet
Colour: ffffff
EndChar

StartChar: greater
Encoding: 62 62 18
Width: 867
VWidth: 0
Flags: HMW
LayerCount: 3
Back
SplineSet
59 -13 m 1
 519 434 l 1
 79 900 l 1
 135 973 l 1
 755 472 l 1
 756 415 l 1
 122 -83 l 1
 59 -13 l 1
EndSplineSet
Fore
SplineSet
104 -37 m 1
 624 444 l 1
 123 926 l 1
 139 973 l 1
 758 456 l 1
 760 426 l 1
 126 -82 l 1
 104 -37 l 1
EndSplineSet
Colour: ffffff
EndChar

StartChar: question
Encoding: 63 63 19
Width: 726
VWidth: 0
Flags: HMW
LayerCount: 3
Back
SplineSet
47 1152 m 0xd8
 47 1205 86 1287 243 1287 c 0
 398 1287 587 1114 587 860 c 0
 587 623 299 656 299 508 c 0
 299 468 306 432 321 383 c 1
 246 366 l 1
 219 406 169 505 169 585 c 0
 169 809 476 734 476 939 c 0
 476 1031 372 1113 313 1113 c 0
 237 1113 164 1087 121 1041 c 1
 88 1054 47 1098 47 1152 c 0xd8
159 92 m 0xe8
 159 159 216 210 282 210 c 0
 349 210 406 157 406 90 c 0
 406 20 352 -36 282 -36 c 0
 212 -36 159 22 159 92 c 0xe8
EndSplineSet
Fore
SplineSet
288.676 1166 m 0
 298.812 1230 416.683 1286 506.683 1286 c 0
 684.683 1286 793.856 1104 765.506 925 c 0
 729.553 698 417.177 683 389.459 508 c 0
 383.124 468 393.304 406 411.701 358 c 1
 370.168 342 l 1
 331.979 385 303.174 462 316.161 544 c 0
 350.53 761 667.074 796 690.832 946 c 0
 709.362 1063 659.21 1182 526.21 1182 c 0
 450.21 1182 374.301 1151 324.015 1105 c 1
 299.232 1119 284.559 1140 288.676 1166 c 0
305.453 66 m 0
 314.006 120 343.184 159 377.184 159 c 0
 413.184 159 430.006 120 421.453 66 c 0
 412.268 8 391.773 -33 346.773 -33 c 0
 304.773 -33 296.9 12 305.453 66 c 0
EndSplineSet
Colour: ffffff
EndChar

StartChar: at
Encoding: 64 64 20
Width: 1411
VWidth: 0
Flags: HMW
LayerCount: 3
Back
SplineSet
54 325 m 0
 54 723 356 1044 787 1044 c 0
 1067 1044 1306 863 1306 589 c 0
 1306 319 1106 70 832 70 c 0
 764 70 735 117 738 187 c 1
 728 187 l 1
 688 128 617 59 541 59 c 0
 436 59 360 155 360 326 c 0
 360 611 590 789 758 789 c 0
 811 789 867 786 924 773 c 1
 943 751 l 1
 902 385 l 2
 892.534 300.5 866.279 168 914 168 c 0
 1065 168 1173 346 1173 549 c 0
 1173 810 987 955 751 955 c 0
 422 955 209 665 209 351 c 0
 209 56 399 -135 727 -135 c 0
 877 -135 1032 -59 1079 -19 c 1
 1115 -83 l 1
 1026 -136 906 -228 691 -228 c 0
 387 -228 54 -77 54 325 c 0
516 368 m 0
 516 217 551 181 601 181 c 0
 654 181 705 214 739 254 c 1
 792 692 l 1
 773 696 735 703 704 703 c 0
 588 703 516 522 516 368 c 0
EndSplineSet
Fore
SplineSet
116 333 m 0
 116 691 367 1044 785 1044 c 0
 1066 1044 1297 847 1297 573 c 0
 1297 302 1102 69 828 69 c 0
 769 69 778 131 781 188 c 1
 772 188 l 1
 732 128 636 60 560 60 c 0
 467 60 413 153 413 325 c 0
 413 609 608 790 777 790 c 0
 830 790 858 785 916 772 c 1
 931 752 l 1
 889 385 l 2
 868 206 852 136 900 136 c 0
 1054 136 1213 280 1213 540 c 0
 1213 812 983 988 747 988 c 0
 435 988 206 721 206 358 c 0
 206 46 398 -163 725 -163 c 0
 875 -163 1046 -83 1092 -43 c 1
 1113 -82 l 1
 1026 -146 909 -227 688 -227 c 0
 383 -227 116 -32 116 333 c 0
502 369 m 0
 502 218 535 138 586 138 c 0
 639 138 747 203 783 243 c 1
 838 714 l 1
 811 723 754 725 723 725 c 0
 598 725 502 577 502 369 c 0
EndSplineSet
Colour: ffffff
EndChar

StartChar: A
Encoding: 65 65 21
Width: 1408
VWidth: 0
Flags: HMW
LayerCount: 3
Back
SplineSet
-37 0 m 1
 -28 74 l 1
 121 129 l 1
 559 1237 l 1
 710 1268 l 1
 1100 124 l 1
 1237 80 l 1
 1228 0 l 1
 713 0 l 1
 725 74 l 1
 896 129 l 1
 787 432 l 1
 368 432 l 1
 256 124 l 1
 442 80 l 1
 431 0 l 1
 -37 0 l 1
406 534 m 1
 758 534 l 1
 592 1034 l 1
 406 534 l 1
EndSplineSet
Fore
SplineSet
112 0 m 1
 123.652 42 l 1
 270.403 72 l 1
 895.614 1254 l 1
 950.831 1268 l 1
 1175.45 66 l 1
 1304.44 47 l 1
 1289.16 1 l 1
 880.158 1 l 1
 895.811 43 l 1
 1066.56 73 l 1
 991.708 478 l 1
 559.708 478 l 1
 346.295 65 l 1
 527.286 46 l 1
 511 0 l 1
 112 0 l 1
588.577 534 m 1
 981.577 534 l 1
 875.847 1085 l 1
 588.577 534 l 1
EndSplineSet
Colour: ffffff
EndChar

StartChar: B
Encoding: 66 66 22
Width: 1183
VWidth: 0
Flags: HMW
LayerCount: 3
Back
SplineSet
50 0 m 1x65
 61 74 l 1
 228 121 l 1
 228 1104 l 1
 57 1134 l 1
 67 1211 l 1x75
 212 1232 382 1257 559 1257 c 0
 869 1257 996 1118 996 967 c 0x2e
 996 863 947 736 790 679 c 1
 790 672 l 1
 995 661 1100 512 1100 380 c 0
 1100 192 970 0 568 0 c 2xad
 50 0 l 1x65
420 96 m 1xa5
 640 96 l 2
 814 96 904 218 904 347 c 0
 904 471 818 605 643 605 c 2
 420 605 l 1
 420 96 l 1xa5
420 688 m 1
 678 688 l 1
 764 724 808 795 808 909 c 0
 808 1033 743 1171 500 1171 c 0x2e
 476 1171 447 1168 420 1164 c 1
 420 688 l 1
EndSplineSet
Fore
SplineSet
109 0 m 1
 123.652 42 l 1
 297.403 72 l 1
 468.617 1153 l 1
 300.102 1175 l 1
 315.804 1211 l 1
 465.288 1233 594.089 1257 771.089 1257 c 0
 1006.58 1257 1123.79 1153.2 1123.79 995.026 c 0
 1123.79 828.896 1005.87 726.757 897.801 668 c 1
 896.851 662 l 1
 1026.79 641.006 1143.93 536.707 1143.93 391.052 c 4
 1143.93 139.986 909.117 0 539 0 c 2
 109 0 l 1
400.553 54 m 1
 546.553 54 l 2
 872.695 54 1043.26 156.794 1043.26 370.956 c 4
 1043.26 496.102 938.734 621 746.356 621 c 2
 490.356 621 l 1
 400.553 54 l 1
498.117 670 m 1
 818.117 670 l 1
 931.78 723.296 1019.19 817.137 1019.19 976.312 c 0
 1019.19 1128.23 900.44 1212 705.962 1212 c 0
 679.962 1212 610.962 1212 583.012 1206 c 1
 498.117 670 l 1
EndSplineSet
Colour: ffffff
EndChar

StartChar: C
Encoding: 67 67 23
Width: 1160
VWidth: 0
Flags: HMW
LayerCount: 3
Back
SplineSet
61 589 m 0
 61 884 246 1269 704 1269 c 0
 836 1269 970 1242 1066 1169 c 1
 1035 837 l 1
 947 850 l 1
 905 1070 l 1
 859 1129 776 1174 647 1174 c 0
 439 1174 275 980 275 658 c 0
 275 299 491 111 728 111 c 0
 862 111 992 182 1078 261 c 1
 1113 185 l 1
 1034 89 859 -24 651 -24 c 0
 344 -24 61 190 61 589 c 0
EndSplineSet
Fore
SplineSet
878.307 1271 m 0
 1011.31 1271 1121 1234 1172.47 1191 c 1
 1088.09 854 l 1
 1042.36 862 l 1
 1053.38 1121 l 1
 1016.88 1181 981.438 1215 822.438 1215 c 0
 560.865 1215 312.393 895.014 312.393 482.961 c 0
 312.393 214.597 438.518 54 679.553 54 c 0
 833.553 54 973.268 125 1070 218 c 1
 1087.14 181 l 1
 1009.25 87 836.882 -26 620.882 -26 c 0
 357.15 -26 197.619 168.22 197.619 465.595 c 0
 197.619 852.443 451.739 1271 878.307 1271 c 0
EndSplineSet
Colour: ffffff
EndChar

StartChar: D
Encoding: 68 68 24
Width: 1375
VWidth: 0
Flags: HMW
LayerCount: 3
Back
SplineSet
47 0 m 1x4c
 61 74 l 1
 233 129 l 1
 233 1103 l 1
 61 1133 l 1
 70 1209 l 1x6c
 267 1240 438 1258 583 1258 c 0
 1145 1258 1304 961 1304 653 c 0
 1304 311 1053 0 541 0 c 2x9c
 47 0 l 1x4c
424 104 m 1x9c
 569 104 l 2
 924 104 1093 331 1093 598 c 0
 1093 905 914 1155 546 1155 c 0
 506 1155 464 1155 424 1151 c 1
 424 104 l 1x9c
EndSplineSet
Fore
SplineSet
400.553 54 m 1
 580.553 54 l 2
 974.628 54 1264.48 290.757 1264.48 734.31 c 4
 1264.48 1035.39 1080.33 1207 747.17 1207 c 0
 707.584 1207 621.385 1204.29 580.161 1188 c 1
 400.553 54 l 1
109 0 m 1
 123.652 42 l 1
 297.403 72 l 1
 468.617 1153 l 1
 300.102 1175 l 1
 315.804 1211 l 1
 517.714 1242 656.406 1259 802.406 1259 c 0
 1223.22 1259 1379.25 1041.23 1379.25 771.986 c 4
 1379.25 338.873 1090.96 0 545 0 c 2
 109 0 l 1
EndSplineSet
Colour: ffffff
EndChar

StartChar: E
Encoding: 69 69 25
Width: 1184
VWidth: 0
Flags: HMW
LayerCount: 3
Back
SplineSet
50 1168 m 1x6f
 61 1244 l 1
 1056 1244 l 1x6f
 1025 924 l 1
 938 937 l 1
 897 1152 l 1
 426 1152 l 1
 426 676 l 1
 716 676 l 1
 758 796 l 1
 853 810 l 1
 819 421 l 1
 734 408 l 1
 700 583 l 1
 426 583 l 1
 426 96 l 1
 921 96 l 1xb7
 1019 326 l 1
 1102 313 l 1
 1072 0 l 1
 57 0 l 1
 65 74 l 1
 232 121 l 1
 232 1126 l 1
 50 1168 l 1x6f
EndSplineSet
Fore
SplineSet
300.378 1202 m 1
 314.03 1244 l 1
 1225.03 1244 l 5
 1143.51 925 l 5
 1098.46 931 l 5
 1120.95 1193 l 5
 586.953 1193 l 5
 502.375 659 l 5
 837.375 659 l 5
 896.391 798 l 5
 951.658 806 l 5
 857.046 417 l 5
 804.621 408 l 5
 819.822 605 l 5
 493.822 605 l 5
 406.553 54 l 5
 968.553 54 l 5
 1085.16 323 l 5
 1124.57 313 l 5
 1045 0 l 5
 113 0 l 1
 125.652 42 l 1
 300.403 72 l 1
 475.102 1175 l 1
 300.378 1202 l 1
EndSplineSet
Colour: ffffff
EndChar

StartChar: F
Encoding: 70 70 26
Width: 1137
VWidth: 0
Flags: HMW
LayerCount: 3
Back
SplineSet
50 1168 m 1xde
 61 1244 l 1
 1054 1244 l 1xde
 1013 922 l 1
 925 936 l 1
 891 1152 l 1
 426 1152 l 1xee
 426 670 l 1
 713 670 l 1
 755 790 l 1
 845 804 l 1
 818 412 l 1
 730 398 l 1
 700 578 l 1
 426 578 l 1
 423 122 l 1
 661 83 l 1
 648 0 l 1
 57 0 l 1
 65 74 l 1
 232 121 l 1
 232 1126 l 1
 50 1168 l 1xde
EndSplineSet
Fore
SplineSet
300.378 1202 m 1
 314.03 1244 l 1
 1225.03 1244 l 5
 1141.03 922 l 5
 1093.3 930 l 5
 1113.95 1193 l 5
 583.953 1193 l 5
 495.258 633 l 5
 828.258 633 l 5
 889.432 773 l 5
 946.54 780 l 5
 854.087 392 l 5
 797.819 384 l 5
 810.863 580 l 5
 486.863 580 l 5
 406.087 70 l 5
 649.395 53 l 5
 629 0 l 5
 114 0 l 1
 123.652 42 l 1
 298.403 72 l 1
 473.102 1175 l 1
 300.378 1202 l 1
EndSplineSet
Colour: ffffff
EndChar

StartChar: G
Encoding: 71 71 27
Width: 1339
VWidth: 0
Flags: HMW
LayerCount: 3
Back
SplineSet
61 578 m 0xf8
 61 1007 385 1260 717 1260 c 0
 894 1260 1040 1222 1139 1163 c 1xf8
 1115 841 l 1
 1028 856 l 1xf4
 992 1047 l 1
 946 1093 824 1161 667 1161 c 0
 470 1161 276 1013 276 647 c 0
 276 350 454 77 771 77 c 0
 851 77 915 103 943 119 c 1
 943 434 l 1
 707 472 l 1
 719 555 l 1
 1275 555 l 1
 1263 480 l 1
 1139 439 l 1
 1139 79 l 1
 1007 0 858 -31 658 -31 c 0
 256 -31 61 237 61 578 c 0xf8
EndSplineSet
Fore
SplineSet
911.881 1262 m 0
 1044.88 1262 1193.74 1235.84 1280.31 1170 c 1
 1199.94 852 l 1
 1155.74 857 l 1
 1162.11 1093 l 1
 1124.83 1148 1028.54 1201 869.536 1201 c 0
 553.112 1201 319.304 883.881 319.304 487.866 c 0
 319.304 251.43 424.01 45 731.127 45 c 0
 823.127 45 918.295 65 1002.69 118 c 1
 1063.92 492 l 1
 826.885 517 l 1
 839.062 556 l 1
 1319.06 556 l 1
 1305.88 517 l 1
 1168.56 496 l 1
 1102.51 79 l 1
 957 0 816.832 -20 616.832 -20 c 0
 375.535 -20 198.332 162.676 198.332 465.884 c 0
 198.332 858.49 489.117 1262 911.881 1262 c 0
EndSplineSet
Colour: ffffff
EndChar

StartChar: H
Encoding: 72 72 28
Width: 1512
VWidth: 0
Flags: HMW
LayerCount: 3
Back
SplineSet
50 1168 m 1
 61 1244 l 1
 605 1244 l 1
 595 1168 l 1
 427 1130 l 1
 427 692 l 1
 1054 692 l 1
 1054 1126 l 1
 871 1168 l 1
 882 1244 l 1
 1428 1244 l 1
 1416 1168 l 1
 1249 1130 l 1
 1249 114 l 1
 1431 80 l 1
 1421 0 l 1
 878 0 l 1
 888 74 l 1
 1054 121 l 1
 1054 589 l 1
 427 589 l 1
 427 114 l 1
 611 80 l 1
 598 0 l 1
 57 0 l 1
 65 74 l 1
 232 121 l 1
 232 1126 l 1
 50 1168 l 1
EndSplineSet
Fore
SplineSet
299.854 1205 m 1
 309.03 1244 l 1
 770.03 1244 l 5
 758.854 1205 l 5
 586.21 1182 l 5
 502.108 651 l 5
 1215.11 651 l 1
 1298.89 1180 l 1
 1118.85 1205 l 1
 1132.03 1244 l 1
 1592.03 1244 l 5
 1577.85 1205 l 5
 1407.21 1182 l 5
 1230.29 65 l 5
 1410.29 46 l 5
 1396 0 l 5
 938 0 l 1
 952.652 42 l 1
 1123.4 72 l 1
 1205.61 591 l 1
 492.605 591 l 5
 409.295 65 l 5
 592.286 46 l 5
 574 0 l 5
 117 0 l 1
 128.652 42 l 1
 300.403 72 l 1
 475.894 1180 l 1
 299.854 1205 l 1
EndSplineSet
Colour: ffffff
EndChar

StartChar: I
Encoding: 73 73 29
Width: 695
VWidth: 0
Flags: HMW
LayerCount: 3
Back
SplineSet
50 1168 m 1
 61 1244 l 1
 605 1244 l 5
 595 1168 l 1
 426 1130 l 1
 426 114 l 1
 607 80 l 1
 597 0 l 1
 57 0 l 1
 65 74 l 1
 232 121 l 1
 232 1126 l 1
 50 1168 l 1
EndSplineSet
Fore
SplineSet
297.854 1205 m 1
 310.03 1244 l 1
 772.03 1244 l 5
 758.854 1205 l 5
 580.21 1182 l 5
 403.295 65 l 5
 593.286 46 l 5
 577 0 l 5
 117 0 l 1
 128.652 42 l 1
 291.403 72 l 1
 466.894 1180 l 1
 297.854 1205 l 1
EndSplineSet
Colour: ffffff
EndChar

StartChar: J
Encoding: 74 74 30
Width: 749
VWidth: 0
Flags: HMW
LayerCount: 3
Back
SplineSet
-4 -237 m 1
 151 -90 232 37 232 197 c 2
 233 1126 l 1
 52 1168 l 1
 62 1244 l 1
 607 1244 l 1
 597 1168 l 1
 427 1130 l 1
 426 385 l 2
 425 -24 337 -138 50 -326 c 1
 -4 -237 l 1
EndSplineSet
Fore
SplineSet
57.4941 -277 m 5
 246.984 -135 355 0 399.664 282 c 2
 541.894 1180 l 1
 365.854 1205 l 1
 377.03 1244 l 1
 841.03 1244 l 1
 828.854 1205 l 1
 658.21 1182 l 1
 524.019 360 l 2
 459.248 -30 352.084 -151 74.5254 -325 c 1
 57.4941 -277 l 5
EndSplineSet
Colour: ffffff
EndChar

StartChar: K
Encoding: 75 75 31
Width: 1325
VWidth: 0
Flags: HMW
LayerCount: 3
Back
SplineSet
47 1168 m 1x70
 61 1244 l 1
 611 1244 l 1
 601 1168 l 1
 429 1121 l 1
 429 124 l 1
 618 80 l 1
 607 0 l 1
 54 0 l 1
 64 74 l 1
 236 129 l 1
 236 1117 l 1
 47 1168 l 1x70
453 626 m 1
 481 654 574 758 605 798 c 2
 851 1121 l 1
 696 1168 l 1
 704 1244 l 1
 1197 1244 l 1
 1185 1168 l 1
 1008 1121 l 1
 635 653 l 1
 862 385 l 2
 1013 206 1085 123 1213 83 c 2
 1250 70 l 1
 1240 1 l 1
 1194 -15 1149 -21 1109 -21 c 0xb0
 942 -21 820 104 706 261 c 2
 454 605 l 1
 453 626 l 1
EndSplineSet
Fore
SplineSet
298.854 1205 m 1
 310.03 1244 l 1
 764.03 1244 l 1
 754.854 1205 l 1
 581.21 1182 l 1
 404.295 65 l 1
 587.286 46 l 1
 569 0 l 1
 118 0 l 1
 130.652 42 l 1
 292.403 72 l 1
 467.894 1180 l 1
 298.854 1205 l 1
541.04 619 m 1
 591.326 665 634.418 705.568 712.015 785 c 2
 1097.89 1180 l 1
 928.854 1205 l 1
 939.03 1244 l 1
 1356.03 1244 l 1
 1346.85 1205 l 1
 1190.21 1182 l 1
 646.624 629 l 5
 859.842 321 l 6
 976.232 153 1048.4 72 1165.55 54 c 2
 1218.29 46 l 1
 1199.47 3 l 1
 1151.1 -12 1131.52 -22 1089.52 -22 c 0
 956.516 -22 879.096 89 784.429 230 c 2
 540.664 604 l 1
 541.04 619 l 1
EndSplineSet
Colour: ffffff
EndChar

StartChar: L
Encoding: 76 76 32
Width: 1159
VWidth: 0
Flags: HMW
LayerCount: 3
Back
SplineSet
58 0 m 5x70
 67 74 l 5x70
 233 121 l 5
 233 1117 l 5
 45 1168 l 5
 58 1244 l 5
 608 1244 l 5
 598 1168 l 5
 427 1121 l 5
 427 96 l 5
 869 96 l 5xb0
 1000 344 l 5
 1085 331 l 5
 1048 0 l 5
 58 0 l 5x70
EndSplineSet
Fore
SplineSet
112 0 m 1
 123.652 42 l 1
 297.403 72 l 1
 472.577 1178 l 1
 304.536 1203 l 1
 314.872 1243 l 1
 774.872 1243 l 1
 764.536 1203 l 1
 585.21 1182 l 1
 406.553 54 l 1
 936.553 54 l 1
 1040.53 338 l 1
 1083.27 330 l 1
 1043 0 l 5
 112 0 l 1
EndSplineSet
Colour: ffffff
EndChar

StartChar: M
Encoding: 77 77 33
Width: 1803
VWidth: 0
Flags: HMW
LayerCount: 3
Back
SplineSet
24 0 m 1
 35 74 l 1
 202 121 l 1
 275 1126 l 1
 92 1168 l 1
 102 1244 l 1
 505 1244 l 1
 583 1050 l 1
 845 313 l 1
 1152 1083 l 1
 1223 1244 l 1
 1618 1244 l 1
 1608 1168 l 1
 1440 1130 l 1
 1492 114 l 1
 1674 80 l 1
 1664 0 l 1
 1128 0 l 1
 1139 74 l 1
 1305 121 l 1
 1249 1004 l 1
 868 50 l 1
 740 31 l 1
 397 967 l 1
 334 114 l 1
 517 80 l 1
 504 0 l 1
 24 0 l 1
EndSplineSet
Fore
SplineSet
106 0 m 1
 116.227 33 l 1
 288.137 64 l 1
 528.102 1175 l 5
 349.328 1208 l 5
 362.03 1244 l 5
 695.03 1244 l 5
 736.254 1062 l 5
 925 249 l 1
 1386.06 1099 l 5
 1477.03 1244 l 5
 1801.03 1244 l 5
 1790.33 1208 l 5
 1629.58 1178 l 5
 1536.03 57 l 1
 1727.33 40 l 1
 1719 0 l 1
 1237 0 l 1
 1248.23 33 l 1
 1424.14 64 l 1
 1513.15 1169 l 5
 891.503 60 l 1
 839.919 50 l 1
 593.301 1151 l 5
 360.028 57 l 1
 532.335 40 l 1
 520 0 l 1
 106 0 l 1
EndSplineSet
Colour: ffffff
EndChar

StartChar: N
Encoding: 78 78 34
Width: 1466
VWidth: 0
Flags: HMW
LayerCount: 3
Back
SplineSet
50 1168 m 1
 61 1244 l 1
 411 1244 l 1
 1054 274 l 1
 1054 1126 l 1
 869 1168 l 1
 881 1244 l 1
 1356 1244 l 1
 1343 1168 l 1
 1176 1130 l 1
 1176 1 l 1
 1023 -30 l 1
 360 961 l 1
 360 114 l 1
 543 80 l 1
 532 0 l 1
 57 0 l 1
 65 74 l 1
 232 121 l 1
 232 1117 l 1
 50 1168 l 1
EndSplineSet
Fore
SplineSet
298.328 1208 m 1
 312.03 1244 l 1
 610.03 1244 l 1
 1155.93 197 l 1
 1310.89 1180 l 1
 1136.85 1205 l 1
 1149.03 1244 l 1
 1573.03 1244 l 1
 1558.85 1205 l 1
 1389.21 1182 l 1
 1200.89 -7 l 1
 1145.15 -18 l 1
 549.449 1124 l 5
 380.295 65 l 1
 557.286 46 l 1
 540 0 l 1
 119 0 l 1
 131.652 42 l 1
 303.403 72 l 1
 478.102 1175 l 1
 298.328 1208 l 1
EndSplineSet
Colour: ffffff
EndChar

StartChar: O
Encoding: 79 79 35
Width: 1341
VWidth: 0
Flags: HMW
LayerCount: 3
Back
SplineSet
61 619 m 0
 61 1004 308 1272 706 1272 c 0
 1068 1272 1284 970 1284 619 c 0
 1284 274 1051 -27 636 -27 c 0
 291 -27 61 257 61 619 c 0
283 676 m 0
 283 382 398 79 686 79 c 0
 990 79 1062 330 1062 573 c 0
 1062 856 945 1176 658 1176 c 0
 358 1176 283 937 283 676 c 0
EndSplineSet
Fore
SplineSet
930.782 1274 m 0
 1224.62 1274 1367.39 1052.66 1367.39 765.244 c 0
 1367.39 360.064 1112.48 -27 652.724 -27 c 0
 364.652 -27 201.518 196.515 201.518 487.767 c 0
 201.518 952.592 523.674 1274 930.782 1274 c 0
331.771 547.439 m 0
 331.771 238 449.821 44 709.86 44 c 0
 1058.01 44 1241.88 326.199 1241.88 693.238 c 0
 1241.88 980.393 1117.62 1205 873.912 1205 c 0
 514.646 1205 331.771 902.89 331.771 547.439 c 0
EndSplineSet
Colour: ffffff
EndChar

StartChar: P
Encoding: 80 80 36
Width: 1119
VWidth: 0
Flags: HMW
LayerCount: 3
Back
SplineSet
50 0 m 1
 61 74 l 1
 228 121 l 1
 228 1104 l 1
 57 1134 l 1
 67 1211 l 1
 196 1230 372 1255 543 1255 c 0
 804 1255 1045 1184 1045 892 c 0
 1045 655 827 494 584 494 c 0
 548 494 515 496 484 497 c 1
 466 580 l 1
 519 581 l 2
 734 587 838 678 838 856 c 0
 838 1027 750 1172 522 1172 c 0
 482 1172 420 1166 420 1166 c 1
 420 122 l 1
 657 83 l 1
 643 0 l 1
 50 0 l 1
EndSplineSet
Fore
SplineSet
110 0 m 1
 121.652 42 l 1
 284.403 72 l 1
 455.617 1153 l 1
 297.102 1175 l 1
 311.804 1211 l 1
 444.972 1231 570.931 1256 742.931 1256 c 0
 1026.4 1256 1151.66 1134 1151.66 949.325 c 0
 1151.66 642.157 863.656 462 595.174 462 c 0
 580.174 462 559.174 462 545.49 464 c 1
 542.143 506 l 1
 596.617 509 l 1
 893.248 521.89 1030.13 681.582 1030.13 913.054 c 0
 1030.13 1083.52 942.168 1212 704.962 1212 c 0
 662.962 1212 579.012 1206 579.012 1206 c 1
 398.453 66 l 1
 624.286 46 l 1
 609 0 l 1
 110 0 l 1
EndSplineSet
Colour: ffffff
EndChar

StartChar: Q
Encoding: 81 81 37
Width: 1338
VWidth: 0
Flags: HMW
LayerCount: 3
Back
SplineSet
61 608 m 0
 61 994 325 1272 721 1272 c 0
 1078 1272 1299 980 1299 629 c 0
 1299 335 1122 68 818 -6 c 1
 877 -141 963 -228 1250 -275 c 1
 1250 -299 1247 -333 1241 -351 c 1
 1179 -381 1121 -385 1065 -385 c 0
 884 -385 721 -249 703 -21 c 1
 693 -24 653 -27 638 -27 c 0
 293 -27 61 246 61 608 c 0
263 679 m 0
 263 439 369 88 749 67 c 1
 1019 134 1092 336 1092 563 c 0
 1092 857 928 1168 664 1168 c 0
 413 1168 263 989 263 679 c 0
EndSplineSet
Fore
SplineSet
316.554 525.047 m 0
 316.554 233.294 480.36 32.2275 731.276 27 c 1
 1006.45 82.1062 1251.32 343.307 1251.32 753.804 c 0
 1251.32 1042.9 1105.81 1218 853.912 1218 c 0
 534.715 1218 316.554 916.488 316.554 525.047 c 0
907.782 1274 m 0
 1228.43 1274 1366.93 1073.51 1366.93 793.917 c 0
 1366.93 381.966 1115.27 64.2055 768.1 -12 c 1
 842.295 -257 969.802 -298 1159.43 -313 c 1
 1143.3 -358 l 1
 1127.15 -366 1094.11 -375 1007.61 -375 c 0
 820.841 -375 722.561 -211.628 716.516 -22 c 1
 690.04 -25 663.04 -25 636.04 -25 c 0
 383.486 -25 201.826 199.423 201.826 495.452 c 0
 201.826 945.005 515.211 1274 907.782 1274 c 0
EndSplineSet
Colour: ffffff
EndChar

StartChar: R
Encoding: 82 82 38
Width: 1284
VWidth: 0
Flags: HMW
LayerCount: 3
Back
SplineSet
50 0 m 1x66
 61 74 l 1
 228 121 l 1
 228 1100 l 1
 57 1130 l 1
 67 1207 l 1x76
 214 1230 375 1253 523 1253 c 0
 820 1253 1025 1176 1025 943 c 0
 1025 814 926 666 738 599 c 1
 738 598 l 1
 918 349 l 2
 1035 187 1087 114 1211 77 c 2
 1244 67 l 1
 1229 -1 l 1
 1186 -16 1146 -21 1109 -21 c 0xae
 950 -21 840 98 753 253 c 2
 594 537 l 1
 420 537 l 1
 420 126 l 1
 608 83 l 1
 598 0 l 1
 50 0 l 1x66
420 628 m 1
 618 628 l 1
 717 661 818 745 818 887 c 0
 818 1051 717 1169 540 1169 c 0x2e
 470 1169 420 1164 420 1164 c 1
 420 628 l 1
EndSplineSet
Fore
SplineSet
110 0 m 5
 123.652 42 l 5
 284.403 72 l 5
 455.617 1153 l 5
 298.943 1174 l 5
 313.646 1210 l 5
 466.446 1234 596.456 1253 745.456 1253 c 4
 964.74 1253 1135.72 1157.07 1135.72 966.096 c 4
 1135.72 788.156 1008 648 836.279 570 c 5
 836.121 569 l 5
 960.158 323 l 6
 1062.85 119 1134.4 74 1202.92 50 c 6
 1248.38 34 l 5
 1236.53 -3 l 5
 1191.15 -18 1178.15 -18 1141.15 -18 c 4
 1012.77 -18 947.503 60 870.695 238 c 6
 744.104 531 l 5
 463.103 531 l 5
 391.295 65 l 5
 594.286 46 l 5
 577 0 l 5
 110 0 l 5
471.972 587 m 5
 765.972 587 l 5
 876 618 1019.27 775.531 1019.27 948.272 c 4
 1019.27 1119.36 895.705 1207 688.17 1207 c 4
 634.17 1207 571.378 1202 571.378 1202 c 5
 471.972 587 l 5
EndSplineSet
Colour: ffffff
EndChar

StartChar: S
Encoding: 83 83 39
Width: 958
VWidth: 0
Flags: HMW
LayerCount: 3
Back
SplineSet
66 122 m 5xd4
 79 389 l 5
 181 375 l 5
 220 187 l 5
 256 130 333 77 426 77 c 4
 531 77 663 139 663 287 c 4xe4
 663 547 90 544 90 916 c 4
 90 1143 282 1269 479 1269 c 4
 587 1269 682 1235 761 1169 c 5
 761 1161 739 887 739 887 c 5
 640 899 l 5xd8
 615 1090 l 5
 597 1126 525 1185 445 1185 c 4
 345 1185 263 1126 263 995 c 4
 263 708 847 730 847 354 c 4
 847 124 630 -24 402 -24 c 4
 258 -24 130 43 66 122 c 5xd4
EndSplineSet
Fore
SplineSet
113.037 76 m 1
 195.929 391 l 1
 249.661 383 l 1
 218.224 134 l 1
 256.728 72.4014 377.672 37 498.86 37 c 0
 642.758 37 807.182 122.046 807.182 295.295 c 0
 807.182 552.619 308.243 616.645 308.243 913.961 c 0
 308.243 1144.59 537.786 1271 713.307 1271 c 0
 823.525 1271 939.4 1248.72 1000.22 1201 c 1
 926.953 871 l 1
 872.062 878 l 1
 895.133 1131 l 1
 862.058 1179.48 761.108 1214 668.278 1214 c 0
 543.833 1214 414.375 1124.34 414.375 969.297 c 0
 414.375 696.016 924.852 624.083 924.852 346.048 c 0
 924.852 126.141 706.033 -26 436.882 -26 c 4
 288.518 -26 169.988 19.2539 113.037 76 c 1
EndSplineSet
Colour: ffffff
EndChar

StartChar: T
Encoding: 84 84 40
Width: 1127
VWidth: 0
Flags: HMW
LayerCount: 3
Back
SplineSet
23 1244 m 1
 1134 1244 l 1
 1100 906 l 1
 1005 921 l 1
 967 1152 l 1
 662 1152 l 1
 662 114 l 1
 847 80 l 1
 833 0 l 1
 294 0 l 1
 301 74 l 1
 470 121 l 1
 470 1152 l 1
 175 1152 l 1
 122 909 l 1
 31 922 l 1
 23 1244 l 1
EndSplineSet
Fore
SplineSet
301.03 1244 m 5
 1339.03 1244 l 1
 1251.45 912 l 1
 1202.4 918 l 1
 1228.95 1193 l 1
 857.953 1193 l 1
 680.562 73 l 1
 853.286 46 l 1
 835 0 l 1
 382 0 l 1
 393.652 42 l 1
 568.403 72 l 1
 745.953 1193 l 1
 389.953 1193 l 5
 310.764 914 l 5
 260.03 922 l 5
 301.03 1244 l 5
EndSplineSet
Colour: ffffff
EndChar

StartChar: U
Encoding: 85 85 41
Width: 1477
VWidth: 0
Flags: HMW
LayerCount: 3
Back
SplineSet
22 1168 m 1
 35 1244 l 1
 577 1244 l 1
 568 1168 l 1
 399 1130 l 1
 399 510 l 2
 399 225 542 105 747 105 c 0
 949 105 1071 221 1072 482 c 2
 1075 1126 l 1
 892 1168 l 1
 902 1244 l 1
 1380 1244 l 1
 1369 1168 l 1
 1203 1130 l 1
 1198 515 l 2
 1195 155 1044 -27 697 -27 c 0
 466 -27 206 48 206 469 c 2
 206 1126 l 1
 22 1168 l 1
EndSplineSet
Fore
SplineSet
296.854 1205 m 1
 307.03 1244 l 1
 761.03 1244 l 1
 750.854 1205 l 1
 578.21 1182 l 1
 467.816 485 l 2
 414.38 147.616 557.824 42 789.652 42 c 0
 1022.96 42 1164.97 164 1210.11 449 c 6
 1325.89 1180 l 5
 1143.85 1205 l 5
 1155.03 1244 l 5
 1594.03 1244 l 1
 1579.85 1205 l 1
 1410.21 1182 l 1
 1297.61 490 l 2
 1241.31 144.007 1081.72 -27 745.724 -27 c 0
 501.724 -27 291.503 60 353.59 452 c 2
 468.894 1180 l 1
 296.854 1205 l 1
EndSplineSet
Colour: ffffff
EndChar

StartChar: V
Encoding: 86 86 42
Width: 1405
VWidth: 0
Flags: HMW
LayerCount: 3
Back
SplineSet
-21 1168 m 1
 -11 1244 l 1
 527 1244 l 1
 517 1168 l 1
 347 1130 l 1
 660 251 l 1
 980 1126 l 1
 798 1168 l 1
 805 1244 l 1
 1260 1244 l 1
 1253 1168 l 1
 1121 1130 l 1
 696 4 l 1
 544 -24 l 1
 126 1126 l 1
 -21 1168 l 1
EndSplineSet
Fore
SplineSet
288.328 1208 m 1
 298.03 1244 l 1
 730.03 1244 l 5
 720.328 1208 l 5
 548.21 1182 l 5
 734.342 180 l 1
 1267.58 1178 l 1
 1086.33 1208 l 1
 1095.03 1244 l 1
 1500.03 1244 l 1
 1490.33 1208 l 1
 1357.21 1182 l 1
 717.258 -11 l 1
 663.882 -26 l 1
 430.577 1178 l 1
 288.328 1208 l 1
EndSplineSet
Colour: ffffff
EndChar

StartChar: W
Encoding: 87 87 43
Width: 1889
VWidth: 0
Flags: HMW
LayerCount: 3
Back
SplineSet
-11 1168 m 1
 -2 1244 l 1
 512 1244 l 1
 497 1168 l 1
 330 1130 l 1
 572 271 l 1
 853 1194 l 1
 1029 1219 l 1
 1277 287 l 1
 1538 1126 l 1
 1357 1168 l 1
 1368 1244 l 1
 1817 1244 l 1
 1806 1168 l 1
 1683 1130 l 1
 1318 4 l 1
 1164 -24 l 1
 902 951 l 1
 617 4 l 1
 454 -24 l 1
 129 1126 l 1
 -11 1168 l 1
EndSplineSet
Fore
SplineSet
267.17 1207 m 1
 280.03 1244 l 1
 677.03 1244 l 1
 668.962 1212 l 1
 499.21 1182 l 1
 654 194 l 1
 1116.38 1212 l 1
 1180.33 1218 l 1
 1318 188 l 5
 1812.1 1175 l 1
 1630.65 1210 l 1
 1641.03 1244 l 1
 2024.03 1244 l 1
 2015.33 1208 l 1
 1892.58 1178 l 1
 1289.94 -13 l 1
 1222.88 -26 l 1
 1095.8 990 l 1
 631.941 -13 l 1
 559.04 -25 l 1
 384.577 1178 l 1
 267.17 1207 l 1
EndSplineSet
Colour: ffffff
EndChar

StartChar: X
Encoding: 88 88 44
Width: 1425
VWidth: 0
Flags: HMW
LayerCount: 3
Back
SplineSet
-1 0 m 1
 11 76 l 1
 138 121 l 1
 504 615 l 1
 165 1123 l 1
 28 1166 l 1
 40 1244 l 1
 553 1244 l 1
 543 1166 l 1
 386 1121 l 1
 633 750 l 1
 904 1126 l 1
 734 1166 l 1
 747 1244 l 1
 1182 1244 l 1
 1174 1168 l 1
 1047 1130 l 1
 709 657 l 1
 1050 114 l 1
 1185 80 l 1
 1172 0 l 1
 669 0 l 1
 682 74 l 1
 842 121 l 1
 580 529 l 1
 288 117 l 1
 454 83 l 1
 439 0 l 1
 -1 0 l 1
EndSplineSet
Fore
SplineSet
110 0 m 1
 121.702 36 l 1
 250.137 64 l 1
 736.782 643 l 1
 454.527 1184 l 1
 322.962 1212 l 1
 332.03 1244 l 1
 752.03 1244 l 1
 741.962 1212 l 1
 581.21 1182 l 1
 837.711 689 l 1
 1270.53 1184 l 1
 1102.17 1207 l 1
 1113.03 1244 l 1
 1481.03 1244 l 1
 1475.33 1208 l 1
 1346 1187 l 1
 866.425 633 l 5
 1184.39 53 l 1
 1308.7 36 l 1
 1296 0 l 1
 881 0 l 1
 889.276 27 l 1
 1057.5 60 l 1
 775.229 587 l 1
 328.503 60 l 1
 490.652 42 l 1
 476 0 l 1
 110 0 l 1
EndSplineSet
Colour: ffffff
EndChar

StartChar: Y
Encoding: 89 89 45
Width: 1302
VWidth: 0
Flags: HMW
LayerCount: 3
Back
SplineSet
-21 1168 m 1
 -8 1244 l 1
 500 1244 l 1
 488 1168 l 1
 330 1130 l 1
 607 640 l 1
 871 1126 l 1
 688 1168 l 1
 698 1244 l 1
 1143 1244 l 1
 1133 1168 l 1
 1008 1130 l 1
 663 529 l 1
 663 114 l 1
 826 80 l 1
 816 0 l 1
 310 0 l 1
 320 74 l 1
 470 121 l 1
 470 504 l 1
 117 1126 l 1
 -21 1168 l 1
EndSplineSet
Fore
SplineSet
299.17 1207 m 1
 308.872 1243 l 1
 732.872 1243 l 5
 723.17 1207 l 5
 553.052 1181 l 5
 762.438 571 l 1
 1168.58 1178 l 1
 988.328 1208 l 1
 996.03 1244 l 1
 1386.03 1244 l 1
 1377.33 1208 l 1
 1244.21 1182 l 1
 785.45 489 l 1
 718.611 67 l 1
 896.286 46 l 1
 881 0 l 1
 421 0 l 1
 433.652 42 l 1
 608.403 72 l 1
 674.45 489 l 1
 433.419 1177 l 1
 299.17 1207 l 1
EndSplineSet
Colour: ffffff
EndChar

StartChar: Z
Encoding: 90 90 46
Width: 1177
VWidth: 0
Flags: HMW
LayerCount: 3
Back
SplineSet
47 104 m 1
 792 1149 l 1
 255 1149 l 1
 178 903 l 1
 88 921 l 1
 98 1244 l 1
 1026 1244 l 1
 1026 1168 l 1
 262 100 l 1
 832 100 l 1
 955 351 l 1
 1048 335 l 1
 991 0 l 1
 55 0 l 1
 47 104 l 1
EndSplineSet
Fore
SplineSet
116.86 37 m 1
 1076.32 1189 l 1
 445.319 1189 l 1
 342.021 903 l 1
 303.764 914 l 1
 355.03 1244 l 1
 1221.03 1244 l 1
 1220.17 1207 l 1
 261.187 58 l 5
 940.188 58 l 1
 1071.17 342 l 1
 1114.06 335 l 1
 1031 0 l 1
 116 0 l 1
 116.86 37 l 1
EndSplineSet
Colour: ffffff
EndChar

StartChar: bracketleft
Encoding: 91 91 47
Width: 605
VWidth: 0
Flags: HMW
LayerCount: 3
Back
SplineSet
109 -376 m 1xd0
 109 1255 l 1xe0
 463 1255 l 1
 474 1166 l 1
 260 1146 l 1
 260 -260 l 1xd0
 476 -279 l 1
 466 -375 l 1xe0
 109 -376 l 1xd0
EndSplineSet
Fore
Refer: 49 93 N -1 0 0.316769 1 549 0 2
Colour: ffffff
EndChar

StartChar: backslash
Encoding: 92 92 48
Width: 747
VWidth: 0
Flags: HMW
LayerCount: 3
Back
SplineSet
37 1274 m 1
 171 1266 l 1
 632 -376 l 1
 504 -368 l 1
 37 1274 l 1
EndSplineSet
Fore
SplineSet
103 1244 m 1
 186 1241 l 1
 647 -358 l 1
 568 -354 l 1
 103 1244 l 1
EndSplineSet
Colour: ffffff
EndChar

StartChar: bracketright
Encoding: 93 93 49
Width: 605
VWidth: 0
Flags: HMW
LayerCount: 3
Back
SplineSet
0 -279 m 1xe0
 217 -260 l 1
 217 1146 l 1
 1 1166 l 1
 13 1255 l 1
 366 1255 l 1
 368 -376 l 1xd0
 10 -375 l 1
 0 -279 l 1xe0
EndSplineSet
Fore
SplineSet
49.2578 -333 m 1
 310.584 -312 l 1
 547.21 1182 l 1
 295.536 1203 l 1
 306.931 1256 l 1
 668.931 1256 l 1
 410.765 -374 l 1
 48.7646 -374 l 1
 49.2578 -333 l 1
EndSplineSet
Colour: ffffff
EndChar

StartChar: asciicircum
Encoding: 94 94 50
Width: 863
VWidth: 0
Flags: HMW
LayerCount: 3
Back
SplineSet
42 826 m 1
 331 1237 l 1
 386 1250 l 1
 681 824 l 1
 624 787 l 1
 353 1073 l 1
 343 1073 l 1
 92 793 l 1
 42 826 l 1
EndSplineSet
Fore
SplineSet
111 826 m 1
 399 1238 l 1
 455 1251 l 1
 749 824 l 1
 710 796 l 1
 426 1123 l 1
 417 1123 l 1
 144 802 l 1
 111 826 l 1
EndSplineSet
Colour: ffffff
EndChar

StartChar: underscore
Encoding: 95 95 51
Width: 1106
VWidth: 0
Flags: HMW
LayerCount: 3
Back
SplineSet
-1 -132 m 1
 11 -27 l 1
 839 -27 l 1
 828 -132 l 1
 -1 -132 l 1
EndSplineSet
Fore
SplineSet
134 -133 m 1
 145 -66 l 1
 973 -66 l 1
 965 -133 l 1
 134 -133 l 1
EndSplineSet
Colour: ffffff
EndChar

StartChar: grave
Encoding: 96 96 52
Width: 504
VWidth: 0
Flags: HMW
LayerCount: 3
Back
SplineSet
122 1659 m 1
 237 1697 l 1
 369 1364 l 1
 313 1329 l 1
 122 1659 l 1
EndSplineSet
Fore
SplineSet
138 1661 m 1
 232 1698 l 1
 365 1362 l 1
 319 1335 l 1
 138 1661 l 1
EndSplineSet
Colour: ffffff
EndChar

StartChar: a
Encoding: 97 97 53
Width: 848
VWidth: 0
Flags: HMW
LayerCount: 3
Back
SplineSet
691 96 m 14
 767 84 l 22
 749 15 l 5
 714 2 658 -17 598 -17 c 31
 505 -17 449 44 473 132 c 1
 461 132 l 1
 415 49 326 -21 225 -21 c 3
 103 -21 24 91 24 274 c 0
 24 667 313 885 534 885 c 3
 611 885 700 876 735 832 c 1
 663 378 l 6
 628 153 632 105 691 96 c 14
564 746 m 1
 536 772 491 781 445 781 c 3
 285 781 185 533 185 320 c 0
 185 171 227 106 306 106 c 3
 382 106 432 150 478 201 c 1
 564 746 l 1
EndSplineSet
Fore
SplineSet
649.262 -17 m 11
 551.384 -17 509 45 520 132 c 1
 508 132 l 1
 462 49 373 -21 272 -21 c 3
 148.179 -21 68 87.2031 68 264 c 0
 68 630.58 305 857.805 561.184 857.805 c 0
 627.807 857.805 696.978 846.954 725 823.872 c 1
 651 378 l 2
 631 255.343 621 170.41 621 114.62 c 0
 621 37 690.262 43.9385 770.262 50 c 1
 764.262 7 l 1
 740.609 -4.25 694.935 -17 649.262 -17 c 11
619 767.872 m 1
 591.235 786.443 546.614 792.872 501 792.872 c 3
 318.341 792.872 170 633.286 170 300 c 0
 170 128.024 219.636 53 313 53 c 3
 406.674 53 468.302 121.548 525 201 c 1
 619 767.872 l 1
EndSplineSet
Layer: 2
SplineSet
634 124.62 m 4
 634 47 703.262 53.9381 783.262 60 c 5
 777.262 7 l 5
 753.609 -4.25 707.935 -17 662.262 -17 c 7
 543.26 -17 517.245 43 540.262 194 c 10
 583 488.872 l 18
 604.108 634.506 618.921 763.231 483.572 763.231 c 0
 365.598 763.231 276.291 683.171 226 623.872 c 9
 152 0 l 1
 44 0 l 9
 131 698.872 l 18
 144.679 791.872 75.305 784.872 3 782.872 c 9
 9 824.872 l 17
 43.569 845.872 83.765 857.872 132 857.872 c 3
 213.113 857.872 255 822.417 225 687.872 c 1
 237 687.872 l 1
 293.197 761.007 405.504 856.872 522 856.872 c 3
 661.011 856.872 715.503 787.697 689 576.872 c 10
 664 378 l 6
 649 260 634 178.292 634 124.62 c 4
EndSplineSet
Colour: ffffff
EndChar

StartChar: b
Encoding: 98 98 54
Width: 869
VWidth: 0
Flags: HMW
LayerCount: 3
Back
SplineSet
387 1124.1 m 6
 337 842 l 1
 309 722 l 1
 321 722 l 1
 373 813 483 890 574 890 c 3
 742 890 818 731 818 544 c 0
 818 260 606 -23 290 -23 c 3
 217 -23 114 -1 58 50 c 9
 229 1120.1 l 22
 244 1213.1 172 1206.1 98 1204.1 c 13
 107 1284.1 l 21
 150 1305.1 200 1317.1 260 1317.1 c 4
 392 1317.1 406 1248.1 387 1124.1 c 6
489 748 m 3
 405 748 358 702 312 646 c 9
 228 155 l 17
 253 112 315 84 377 84 c 0
 539 84 651 289 651 483 c 0
 651 613 609 748 489 748 c 3
EndSplineSet
Fore
SplineSet
359 1124.1 m 2
 323 849 l 1
 292 729 l 1
 304 729 l 1
 353.533 798.264 443.143 856.872 545 856.872 c 3
 692 856.872 787 723 787 504 c 0
 787 223 603.003 -23 319 -23 c 3
 247.574 -23 146.792 -10.0411 92 20 c 9
 258 1165.1 l 18
 273 1267 208.947 1259.1 132 1249.1 c 9
 139 1294.1 l 17
 175.255 1308.74 217.412 1317.1 268 1317.1 c 0
 362.583 1317.1 379 1274 359 1124.1 c 2
294 664 m 9
 208 73 l 17
 234.343 53.0138 299.671 40 365 40 c 0
 578.261 40 683.488 219.757 683.488 467.208 c 0
 683.488 663.18 616.648 784.294 489.624 784.294 c 0
 403.377 784.294 343.219 733.982 294 664 c 9
EndSplineSet
Layer: 2
SplineSet
699.639 454 m 4
 699.639 618.686 639.203 773.872 475 773.872 c 7
 329.424 773.872 227.639 613.078 227.639 377 c 4
 227.639 167.163 319.516 59 434.639 59 c 4
 587.538 59 699.639 192 699.639 454 c 4
401.639 -26 m 7
 214.926 -26 117.639 133.164 117.639 336 c 4
 117.639 604.068 291.386 856.872 535 856.872 c 7
 725.902 856.872 810.639 679.936 810.639 503 c 4
 810.639 197.577 630.797 -26 401.639 -26 c 7
EndSplineSet
Colour: ffffff
EndChar

StartChar: c
Encoding: 99 99 55
Width: 741
VWidth: 0
Flags: HMW
LayerCount: 3
Fore
SplineSet
614 111 m 1
 629 81 l 1
 595.094 42.0225 494.344 -24 350 -24 c 3
 183.749 -24 67 91.5664 67 328 c 0
 67 634.381 260.226 856.872 471.772 856.872 c 3
 585.919 856.872 642.261 792.516 642.261 731.55 c 0
 642.261 692.594 614.046 668.075 582 663 c 1
 555.946 758.897 493.34 795.872 429.772 795.872 c 0
 236.69 795.872 164 553.928 164 390 c 0
 164 156 237.104 45 401 45 c 0
 521.67 45 576.177 84.032 614 111 c 1
EndSplineSet
Colour: ffffff
EndChar

StartChar: d
Encoding: 100 100 56
Width: 840
VWidth: 0
Flags: HMW
LayerCount: 3
Back
SplineSet
799 1124.1 m 2
 682.75 380 l 18
 644 131 644.75 107 698.75 97 c 10
 764.75 86 l 17
 745.75 17 l 1
 712.75 4 662.75 -15 606.75 -15 c 3
 520.75 -15 489.75 26 487.75 74 c 0
 487.75 93 490.75 112 492.75 122 c 1
 479.75 122 l 1
 433.75 44 344.75 -21 243.75 -21 c 3
 112.75 -21 23.75 76 23.75 286 c 0
 23.75 669 309.75 884 565.75 884 c 3
 583.75 884 597.75 883 606.75 881 c 1
 612.75 881 l 1
 641 1120.1 l 2
 651 1213.1 584 1206.1 510 1204.1 c 9
 519 1284.1 l 17
 562 1305.1 612 1317.1 672 1317.1 c 0
 804 1317.1 819 1248.1 799 1124.1 c 2
494.75 201 m 9
 576.75 736 l 17
 549.75 757 515.75 781 450.75 781 c 3
 296.75 781 186.75 571 186.75 337 c 0
 186.75 172 230.75 106 320.75 106 c 3
 403.75 106 453.75 145 494.75 201 c 9
EndSplineSet
Fore
SplineSet
605 758.872 m 1
 577.47 784.13 533.227 792.872 488 792.872 c 0
 322.95 792.872 159 653.338 159 300 c 0
 159 129.416 207.595 55 299 55 c 4
 397.092 55 461.627 122.621 521 201 c 1
 605 758.872 l 1
645.262 -17 m 0
 547.384 -17 492.368 45.5205 516 132 c 1
 504 132 l 1
 458 49 369 -21 268 -21 c 0
 144.179 -21 64 87.2031 64 264 c 0
 64 645.34 340 856.872 527 856.872 c 0
 558.792 856.872 592.737 853.465 623.691 842.37 c 1
 666 1165.1 l 2
 679 1267 615 1259.1 535 1249.1 c 1
 542 1294.1 l 1
 577.693 1308.74 619.196 1317.1 669 1317.1 c 0
 764.622 1317.1 782.763 1275 761 1124.1 c 2
 647 378 l 2
 628 255.343 617 170.41 617 114.62 c 0
 617 37 686.262 43.9385 766.262 50 c 1
 760.262 7 l 1
 736.608 -4.25 690.935 -17 645.262 -17 c 0
EndSplineSet
Colour: ffffff
EndChar

StartChar: e
Encoding: 101 101 57
Width: 717
VWidth: 0
Flags: HMW
LayerCount: 3
Back
SplineSet
572 149 m 1
 595 108 l 1
 561 45 456 -24 307 -24 c 3
 140.749 -24 24 91.5663 24 328 c 0
 24 634.381 222 856.872 438.772 856.872 c 3
 566.978 856.872 630.261 793.029 630.261 732.55 c 0
 630.261 678.819 588 645 540 638 c 1
 512.577 736.783 446.681 774.872 379.772 774.872 c 0
 203.399 774.872 137 557.369 137 410 c 0
 137 195 205.169 66 358 66 c 0
 479.236 66 534 115.086 572 149 c 1
EndSplineSet
Fore
SplineSet
179 397 m 1
 365 432 537.396 484.906 537.396 653.766 c 0
 537.396 732.991 503.56 804.872 431 804.872 c 3
 320 804.872 196.425 723.064 179 397 c 1
72 309 m 0
 72 636 256.853 856.872 464 856.872 c 3
 574.034 856.872 638.169 766.838 638.169 670.598 c 0
 638.169 465.664 393.289 371.507 177 354 c 1
 172 167.321 226.001 48 374 48 c 3
 481.418 48 557.186 103.333 585 131 c 1
 600 99 l 1
 559.355 44.0552 442.839 -30 320 -30 c 3
 179.76 -30 72 74.1445 72 309 c 0
EndSplineSet
Colour: ffffff
EndChar

StartChar: f
Encoding: 102 102 58
Width: 446
VWidth: 0
Flags: HMW
LayerCount: 3
Fore
SplineSet
118 99 m 6
 210 768 l 5
 70 768 l 5
 75 812 l 5
 222 836 l 5
 270 1198 449.052 1317.1 594 1317.1 c 7
 664.551 1317.1 718 1283.36 718 1224.1 c 20
 718 1195.79 699.211 1160.4 655 1143.1 c 5
 632.455 1198.8 577.771 1229.1 531 1229.1 c 7
 410.902 1229.1 344.675 1144 322 825 c 5
 509 825 l 5
 500 768 l 5
 316 768 l 5
 226 135 l 6
 197 -69 106 -354 -160 -354 c 4
 -206.617 -354 -275.408 -324 -275.408 -259.646 c 4
 -275.408 -234.117 -258 -198 -212 -182 c 5
 -188 -248 -119.933 -268 -80 -268 c 4
 12.8838 -268 78.6973 -186.803 118 99 c 6
EndSplineSet
Layer: 2
SplineSet
266 864.1 m 6
 174 195.1 l 5
 314 195.1 l 5
 309 151.1 l 5
 162 127.1 l 5
 114 -234.9 -65.0518 -354 -210 -354 c 7
 -280.551 -354 -334 -320.258 -334 -261 c 20
 -334 -232.687 -315.211 -197.299 -271 -180 c 5
 -248.455 -235.7 -193.772 -266 -147 -266 c 7
 -25.1785 -266 42 -180.9 65 138.1 c 5
 -125 138.1 l 5
 -116 195.1 l 5
 71 195.1 l 5
 158 828.1 l 6
 185.911 1031.17 252.167 1317.1 501 1317.1 c 4
 618.115 1317.1 714 1215.1 588 1116.1 c 5
 435 1293.1 310.654 1188.81 266 864.1 c 6
EndSplineSet
Colour: ffffff
EndChar

StartChar: g
Encoding: 103 103 59
Width: 845
VWidth: 0
Flags: HMWO
LayerCount: 3
Back
SplineSet
207.472 542 m 4
 207.472 463 245.472 380 317.472 380 c 4
 429.472 380 478.472 533 478.472 661 c 4
 478.472 741 455.472 822 385.472 822 c 4
 270.472 822 207.472 667 207.472 542 c 4
309.472 169 m 4
 490.472 161 646.472 130 646.472 -69 c 4
 646.472 -241 406.472 -375 175.472 -375 c 4
 21.4717 -375 -137.528 -325 -139.528 -177 c 5
 -139.528 -74 -23.5283 11 70.4717 37 c 5
 70.4717 45 l 5
 29.4717 61 -15.5283 88 -15.5283 163 c 4
 -15.5283 235 94.4717 307 166.472 330 c 5
 161.472 338 l 5
 123.472 354 55.4717 444 55.4717 530 c 4
 55.4717 725 233.472 897 418.472 897 c 4
 484.472 897 536.472 876 575.472 834 c 5
 776.472 859 l 5
 793.472 836 l 5
 748.472 715 l 5
 732.472 715 l 5
 613.472 755 l 5
 611.472 738 l 5
 625.472 720 626.472 668 626.472 631 c 4
 626.472 438 417.472 278 244.472 311 c 5
 206.472 299 161.472 260 161.472 220 c 4
 161.472 175 212.472 173 309.472 169 c 4
145.472 22 m 5
 93.4717 8 9.47168 -54 9.47168 -128 c 4
 9.47168 -220 117.472 -279 235.472 -279 c 4
 367.472 -279 475.472 -219 475.472 -132 c 4
 475.472 21 331.472 22 145.472 22 c 5
EndSplineSet
Fore
SplineSet
273.591 549 m 0
 273.591 450.982 326.241 348 426 348 c 0
 551.911 348 606.997 447.85 606.997 583 c 0
 606.997 688.278 569.468 794.872 455.247 794.872 c 0
 337.885 794.872 273.591 681.385 273.591 549 c 0
702.997 623 m 0
 702.997 341.099 468.686 248.394 298 310 c 1
 262.721 292.614 216 259.561 216 220 c 0
 216 149.531 322 141 423 133.939 c 0
 598.703 121.655 679 54 679 -72 c 0
 679 -255.481 471.905 -374.473 242.564 -374.473 c 0
 105.74 -374.473 -17.3018 -314.13 -17.3018 -179.988 c 0
 -17.3018 -49.6183 99.5703 39.618 195 69 c 1
 195 77 l 1
 154 90.0173 109 111.983 109 173 c 0
 109 227.654 172 285 256 331 c 1
 256 339 l 1
 222.4 365.142 172 420.303 172 523 c 0
 172 698.804 326.093 853.872 486.247 853.872 c 0
 653.067 853.872 702.997 751.332 702.997 623 c 0
638.528 793.872 m 17
 799.528 815.872 l 1
 812.528 802.872 l 1
 791.528 724.872 l 1
 775.528 724.872 l 1
 656.528 746.872 l 9
 638.528 793.872 l 17
240 54 m 1
 155.22 21.8929 82 -46.4643 82 -149 c 0
 82 -263 190.478 -310 309 -310 c 0
 453.925 -310 578.528 -247.194 578.528 -114 c 0
 578.528 67.6745 432.848 21 240 54 c 1
EndSplineSet
Colour: ffffff
EndChar

StartChar: h
Encoding: 104 104 60
Width: 902
VWidth: 0
Flags: HMW
LayerCount: 3
Fore
SplineSet
689 115 m 0
 689 37 758 44 838 50 c 1
 830 7 l 1
 806 -4 761 -17 715 -17 c 3
 596 -17 570 43 593 194 c 10
 636 489 l 18
 657 635 672 763 537 763 c 0
 423.574 763 337.062 683 289 624 c 9
 205 0 l 1
 97 0 l 9
 257 1168.1 l 22
 271 1261.1 201 1254.1 129 1252.1 c 13
 135 1284.1 l 17
 170 1305.1 210 1317.1 258 1317.1 c 3
 347.71 1317.1 378.103 1282.22 361 1157.1 c 2
 310 784 l 1
 288 688 l 1
 300 688 l 1
 354.035 761 463.07 857 575 857 c 3
 715.665 857 771.323 788 744 577 c 10
 719 378 l 2
 704 255.336 689 171.134 689 115 c 0
EndSplineSet
Colour: ffffff
EndChar

StartChar: i
Encoding: 105 105 61
Width: 471
VWidth: 0
Flags: HMW
LayerCount: 3
Fore
SplineSet
260.802 1157.51 m 0
 260.802 1206.92 283.391 1264.28 337.568 1264.28 c 0
 379.776 1264.28 398.742 1220.06 398.742 1181.05 c 0
 398.742 1126.96 369 1078 319 1078 c 0
 284.744 1078 260.802 1109.62 260.802 1157.51 c 0
102 833 m 17
 137.693 847.636 179.196 856 229 856 c 0
 318.386 856 336.875 813.759 315 663 c 2
 278 378 l 2
 262 248.067 249.738 166.201 249.738 114.62 c 4
 249.738 37 319 43.9385 399 50 c 5
 393 7 l 1
 369.348 -4.25 323.674 -17 278 -17 c 3
 162.9 -17 140 43 160 194 c 2
 226 704 l 2
 240.358 806.248 175 798 95 788 c 9
 102 833 l 17
EndSplineSet
Layer: 2
SplineSet
224.802 1048.51 m 4
 224.802 1097.92 247.391 1155.28 301.568 1155.28 c 4
 343.776 1155.28 362.742 1111.06 362.742 1072.05 c 4
 362.742 1017.96 336.537 969 287 969 c 4
 250.39 969 224.802 1000.62 224.802 1048.51 c 4
68 803 m 21
 103.693 817.636 145.196 826 195 826 c 4
 284.386 826 302.875 783.759 281 633 c 6
 244 378 l 6
 226.609 253.219 215.738 174.242 215.738 124.62 c 4
 215.738 47 285 53.9381 365 60 c 5
 359 7 l 5
 335.348 -4.25 289.674 -17 244 -17 c 7
 128.9 -17 104.611 41.6844 126 194 c 6
 192 664 l 6
 206.358 766.248 141 758 61 748 c 13
 68 803 l 21
EndSplineSet
Colour: ffffff
EndChar

StartChar: j
Encoding: 106 106 62
Width: 514
VWidth: 0
Flags: HMW
LayerCount: 3
Back
SplineSet
229.802 1157.51 m 4
 229.802 1206.92 252.391 1264.28 306.568 1264.28 c 4
 348.776 1264.28 367.742 1220.06 367.742 1181.05 c 4
 367.742 1126.96 338 1078 288 1078 c 4
 253.744 1078 229.802 1109.62 229.802 1157.51 c 4
71 833 m 21
 106.693 847.636 148.196 856 198 856 c 4
 287.386 856 305.875 813.759 284 663 c 6
 247 378 l 2
 231 253 218.738 174.242 218.738 124.62 c 0
 218.738 47 288 53.9381 368 60 c 1
 362 7 l 1
 338.348 -4.25 292.674 -17 247 -17 c 3
 131.9 -17 109 43 129 194 c 2
 195 694 l 6
 209.358 796.248 144 788 64 778 c 13
 71 833 l 21
EndSplineSet
Fore
SplineSet
351.802 1157.51 m 4
 351.802 1206.92 374.391 1264.28 428.568 1264.28 c 4
 470.776 1264.28 489.742 1220.06 489.742 1181.05 c 4
 489.742 1126.96 460 1078 410 1078 c 4
 375.744 1078 351.802 1109.62 351.802 1157.51 c 4
406 663 m 6
 328 86 l 22
 286.16 -189.047 114.664 -327.059 29 -376 c 5
 -21 -335 l 5
 128 -218.483 213 -82 237 99 c 14
 317 704 l 22
 332 806 266 798 186 788 c 13
 193 833 l 21
 228.693 847.636 270.196 856 320 856 c 4
 409.386 856 426 814 406 663 c 6
EndSplineSet
Colour: ffffff
EndChar

StartChar: k
Encoding: 107 107 63
Width: 850
VWidth: 0
Flags: HMW
LayerCount: 3
Back
SplineSet
202 0 m 5
 94 0 l 13
 264 1158.1 l 22
 278 1251 208 1244.1 136 1242.1 c 13
 142 1284.1 l 21
 177 1305.1 217 1317.1 265 1317.1 c 7
 354.71 1317.1 386 1282 368 1157.1 c 6
 202 0 l 5
326 451 m 5
 455 529 594 670 594 738 c 4
 594 783 547 790 495 777 c 13
 504 857 l 21
 539 878 579 890 627 890 c 4
 712 890 744 861 744 770 c 4
 744 649 522 497 473 466 c 5
 510 383 l 6
 600 180 670 109 773 89 c 6
 799 84 l 5
 786 6 l 5
 740 -8 700 -15 664 -15 c 4
 544 -15 481 40 382 287 c 6
 323 434 l 5
 326 451 l 5
202 0 m 5
 94 0 l 13
 264 1158.1 l 22
 278 1251 208 1244.1 136 1242.1 c 13
 142 1284.1 l 21
 177 1305.1 217 1317.1 265 1317.1 c 7
 354.71 1317.1 386 1282 368 1157.1 c 6
 202 0 l 5
EndSplineSet
Fore
SplineSet
193 0 m 1
 93 0 l 9
 263 1168.1 l 18
 277 1261 207 1254.1 135 1252.1 c 9
 141 1284.1 l 17
 176 1305.1 216 1317.1 264 1317.1 c 3
 348.484 1317.1 378.636 1282 361 1157.1 c 2
 193 0 l 1
343 431 m 1
 470.647 515.916 617.685 621.785 617.685 752.832 c 4
 617.685 802 544.008 795.967 505 789 c 13
 511 823.872 l 17
 548.846 844.872 592.098 856.872 644 856.872 c 0
 697 856.872 731 834 731 780 c 0
 731 646.435 584.041 512.871 431 426 c 1
 461 372 l 2
 566.66 181.811 650.762 74.1504 760 58 c 2
 798 52 l 1
 785 4 l 1
 754.458 -8.66699 727.902 -15 704 -15 c 0
 584 -15 521 77 422 261 c 2
 340 414 l 1
 343 431 l 1
EndSplineSet
Layer: 2
SplineSet
1104 124.62 m 4
 1104 47 1173.26 53.9381 1253.26 60 c 5
 1247.26 7 l 5
 1223.61 -4.25 1177.93 -17 1132.26 -17 c 7
 1013.26 -17 987.245 43 1010.26 194 c 14
 1053 488.872 l 22
 1074.11 634.506 1088.92 763.231 953.572 763.231 c 4
 835.598 763.231 746.291 683.171 696 623.872 c 13
 622 0 l 5
 514 0 l 13
 601 698.872 l 22
 614.679 791.872 545.305 784.872 473 782.872 c 13
 479 824.872 l 21
 513.569 845.872 553.765 857.872 602 857.872 c 7
 683.113 857.872 725 822.417 695 687.872 c 5
 707 687.872 l 5
 763.197 761.007 875.504 856.872 992 856.872 c 7
 1131.01 856.872 1185.5 787.697 1159 576.872 c 14
 1134 378 l 6
 1119 260 1104 178.292 1104 124.62 c 4
EndSplineSet
Colour: ffffff
EndChar

StartChar: l
Encoding: 108 108 64
Width: 429
VWidth: 0
Flags: HMW
LayerCount: 3
Back
SplineSet
86 1284.1 m 17
 129 1305.1 179 1317.1 239 1317.1 c 0
 371 1317.1 384 1248.1 366 1124.1 c 2
 248.152 378 l 2
 233 283 225.152 216 225.152 172 c 0
 225.152 95 283.152 94 352.152 96 c 1
 344.152 15 l 1
 315.152 0 259.152 -17 203.152 -17 c 3
 71.1523 -17 43 48 65.1523 194 c 2
 208 1120.1 l 2
 223 1213.1 151 1206.1 77 1204.1 c 9
 86 1284.1 l 17
EndSplineSet
Fore
SplineSet
129.256 1294.1 m 17
 164.949 1308.74 206.452 1317.1 256.256 1317.1 c 0
 352.917 1317.1 372.011 1275 349.256 1124.1 c 2
 237.256 378 l 2
 218.256 250.533 208.994 170.221 208.994 119.62 c 4
 208.994 35.9941 275.937 43.4688 353.256 50 c 5
 347.256 7 l 1
 323.193 -4.25 276.725 -17 230.256 -17 c 3
 115.156 -17 90 43 112.256 194 c 2
 253.256 1165.1 l 2
 267.614 1267.35 202.256 1259.1 122.256 1249.1 c 9
 129.256 1294.1 l 17
EndSplineSet
Colour: ffffff
EndChar

StartChar: m
Encoding: 109 109 65
Width: 1400
VWidth: 0
Flags: HMW
LayerCount: 3
Back
SplineSet
801 625 m 1
 811 685 l 1
 875 775 996 893 1134 893 c 3
 1260 893 1306 809 1284 613 c 10
 1258 378 l 2
 1247 285 1235 218 1235 175 c 0
 1235 98 1293 97 1362 99 c 1
 1354 18 l 1
 1325 3 1269 -14 1213 -14 c 3
 1081 -14 1056 51 1075 197 c 10
 1117 525 l 18
 1135 662 1122 745 1027 745 c 3
 913 745 847 677 801 625 c 1
582 0 m 9
 648 525 l 18
 665 662 653 745 549 745 c 3
 455 745 400 698 362 662 c 9
 267 0 l 1
 104 0 l 9
 196 697 l 18
 210 790 139 783 65 781 c 9
 74 861 l 17
 117 882 167 894 227 894 c 3
 343 894 388 840 360 722 c 1
 372 722 l 1
 428 796 535 893 656 893 c 3
 790 893 837 809 815 613 c 10
 745 0 l 1
 582 0 l 9
EndSplineSet
Fore
SplineSet
787 674 m 1
 843 753.138 954.913 856.872 1071 856.872 c 3
 1210.01 856.872 1264.5 787.697 1238 576.872 c 10
 1213 378 l 2
 1198 255.343 1183 170.41 1183 114.62 c 4
 1183 37 1252.26 43.9385 1332.26 50 c 5
 1326.26 7 l 1
 1302.61 -4.25 1256.93 -17 1211.26 -17 c 3
 1092.26 -17 1066.24 43 1089.26 194 c 10
 1132 488.872 l 18
 1153.11 634.506 1167.92 763.23 1032.57 763.23 c 0
 915.056 763.23 826.096 671.18 776 603 c 9
 787 674 l 1
610 0 m 25
 676 488.872 l 18
 696 635 711.921 763.231 576.572 763.231 c 0
 458.598 763.231 369.291 683.171 319 623.872 c 9
 245 0 l 1
 137 0 l 9
 224 708.872 l 18
 237.679 801.872 168.305 794.872 96 792.872 c 9
 102 824.872 l 17
 136.569 845.872 176.765 857.872 225 857.872 c 3
 306.113 857.872 348 822.417 318 687.872 c 1
 330 687.872 l 1
 386.197 761.007 498.504 856.872 615 856.872 c 3
 759.005 856.872 812.862 787 788 576.872 c 10
 718 0 l 25
 610 0 l 25
EndSplineSet
Colour: ffffff
EndChar

StartChar: n
Encoding: 110 110 66
Width: 944
VWidth: 0
Flags: HMW
LayerCount: 3
Fore
SplineSet
727 114.62 m 4
 727 37 796.262 43.9385 876.262 50 c 5
 870.262 7 l 1
 846.609 -4.25 800.935 -17 755.262 -17 c 3
 636.26 -17 610.245 43 633.262 194 c 10
 676 488.872 l 18
 697.108 634.506 711.921 763.231 576.572 763.231 c 0
 458.598 763.231 369.291 683.171 319 623.872 c 9
 245 0 l 1
 137 0 l 9
 224 708.872 l 18
 237.679 801.872 168.305 794.872 96 792.872 c 9
 102 824.872 l 17
 136.569 845.872 176.765 857.872 225 857.872 c 3
 306.113 857.872 348 822.417 318 687.872 c 1
 330 687.872 l 1
 386.197 761.007 498.504 856.872 615 856.872 c 3
 754.011 856.872 808.503 787.697 782 576.872 c 10
 757 378 l 2
 742 255.343 727 170.41 727 114.62 c 4
EndSplineSet
Colour: ffffff
EndChar

StartChar: o
Encoding: 111 111 67
Width: 843
VWidth: 0
Flags: HMW
LayerCount: 3
Back
SplineSet
602.262 -17 m 15
 504.384 -17 449.368 45.5207 473 132 c 5
 461 132 l 5
 415 49 326 -21 225 -21 c 7
 101.179 -21 21 87.2034 21 264 c 4
 21 645.34 283.367 856.872 484 856.872 c 7
 557.169 856.872 641.741 851.268 675 823.872 c 5
 604 378 l 6
 585 260 574 178.292 574 124.62 c 4
 574 47 643.262 53.9381 723.262 60 c 5
 717.262 7 l 5
 693.609 -4.25 647.935 -17 602.262 -17 c 15
564 745.872 m 5
 533.647 765.929 484.866 772.872 435 772.872 c 7
 270 772.872 136 623 136 310 c 4
 136 140.112 181.124 66 266 66 c 7
 359.674 66 421.302 128.526 478 201 c 5
 564 745.872 l 5
EndSplineSet
Fore
SplineSet
648 454 m 4
 648 618.686 590.255 773.872 433.361 773.872 c 7
 281.9 773.872 176 645 176 377 c 4
 176 160.564 272.315 49 393 49 c 4
 564.283 49 648 185.367 648 454 c 4
340 -26 m 7
 159.861 -26 66 133.164 66 336 c 4
 66 604.068 243.91 856.872 493.361 856.872 c 7
 677.338 856.872 759 679.936 759 503 c 4
 759 197.577 574.761 -26 340 -26 c 7
EndSplineSet
Colour: ffffff
EndChar

StartChar: p
Encoding: 112 112 68
Width: 882
VWidth: 0
Flags: HMW
LayerCount: 3
Fore
SplineSet
332 -20 m 3
 293.782 -20 256.655 -16 237 -8 c 9
 260 74 l 17
 290.785 68.9775 324.96 64 398 64 c 0
 558.936 64 684 217.913 684 453 c 0
 684 636 651.738 760.872 517 760.872 c 27
 422.832 760.872 377.989 724.248 304 651 c 1
 151 -366 l 1
 45 -366 l 1
 213 743 l 6
 227 835 157.305 829 85 827 c 13
 91 859 l 17
 123.602 880 161.51 892 207 892 c 3
 288.113 892 330 856.545 300 722 c 1
 313 720 l 1
 357.339 783.605 464.576 856.872 578 856.872 c 3
 730.852 856.872 800 699.309 800 514 c 0
 800 222.175 631.002 -20 332 -20 c 3
EndSplineSet
Layer: 2
SplineSet
36.2617 945.1 m 17
 71.9551 959.74 113.458 968.1 163.262 968.1 c 0
 259.923 968.1 279.017 926 256.262 775.1 c 2
 144.262 29 l 6
 125.262 -93.5332 116 -170.737 116 -219.38 c 4
 116 -303.006 182.942 -295.531 260.262 -289 c 5
 254.262 -342 l 5
 230.199 -353.25 183.73 -366 137.262 -366 c 7
 22.1621 -366 -2.73828 -306 19.2617 -155 c 6
 160.262 806.1 l 2
 174.62 908.35 109.262 900.1 29.2617 890.1 c 9
 36.2617 945.1 l 17
EndSplineSet
Colour: ffffff
EndChar

StartChar: q
Encoding: 113 113 69
Width: 808
VWidth: 0
Flags: HMW
LayerCount: 3
Fore
SplineSet
474 -155 m 10
 609 745.072 l 17
 578.646 765.129 529.866 772.072 480 772.072 c 3
 315 772.072 181 622.2 181 309.2 c 0
 181 139.312 226.124 65.2002 311 65.2002 c 3
 381 65.2002 423.123 83.1143 455 107 c 1
 478 82 l 1
 436.027 26.5732 380.996 -21.7998 270 -21.7998 c 3
 146.179 -21.7998 66 86.4033 66 263.2 c 0
 66 644.54 328.367 856.072 529 856.072 c 3
 603.318 856.072 689.219 850.468 723 823.072 c 9
 599 29 l 18
 580 -98.9521 570.738 -178.779 570.738 -229.38 c 4
 570.738 -313.006 637.681 -305.531 715 -299 c 5
 709 -342 l 1
 684.938 -353.25 638.469 -366 592 -366 c 3
 476.9 -366 451 -306 474 -155 c 10
EndSplineSet
Colour: ffffff
EndChar

StartChar: r
Encoding: 114 114 70
Width: 662
VWidth: 0
Flags: HMW
LayerCount: 3
Back
SplineSet
200.802 1157.51 m 4
 200.802 1206.92 223.391 1264.28 277.568 1264.28 c 4
 319.776 1264.28 338.742 1220.06 338.742 1181.05 c 4
 338.742 1126.96 309 1078 259 1078 c 4
 224.744 1078 200.802 1109.62 200.802 1157.51 c 4
42 833 m 21
 77.6934 847.636 119.196 856 169 856 c 4
 258.386 856 276.875 813.759 255 663 c 6
 218 378 l 6
 202 253 189.738 174.242 189.738 124.62 c 4
 189.738 47 259 53.9385 339 60 c 5
 333 7 l 5
 309.348 -4.25 263.674 -17 218 -17 c 7
 102.9 -17 80 43 100 194 c 6
 166 694 l 6
 180.358 796.248 115 788 35 778 c 13
 42 833 l 21
EndSplineSet
Fore
SplineSet
224 708.872 m 6
 137 0 l 1
 244 0 l 1
 303 502.872 l 17
 335.33 584.955 408.807 736.872 496 736.872 c 3
 528.419 736.872 551.303 729.989 578 697.872 c 1
 607.857 719.176 622 747.206 622 771.872 c 0
 622 818.398 600.677 856.872 533 856.872 c 3
 437.635 856.872 352.656 719.083 313 601.872 c 1
 302 601.872 l 9
 312 686.872 l 18
 326.647 811.368 308.139 857.872 225 857.872 c 3
 176.765 857.872 136.569 845.872 102 824.872 c 9
 96 792.872 l 21
 168.305 794.872 236 802 224 708.872 c 6
EndSplineSet
Colour: ffffff
EndChar

StartChar: s
Encoding: 115 115 71
Width: 733
VWidth: 0
Flags: HMW
LayerCount: 3
Back
SplineSet
31 139 m 4
 31 209.282 79 251.611 160 258 c 5
 186.952 123.577 220.032 66 302 66 c 7
 366 66 425 106 425 195 c 4
 425 373 64.4697 437.558 64.4697 672.044 c 4
 64.4697 817.508 237.546 927 385 927 c 7
 555.893 927 649 839.064 649 750 c 4
 649 697 602.475 650.73 517 644 c 5
 488 796 410.62 838 335 838 c 7
 262.354 838 216.792 783.151 216.792 723.174 c 4
 216.792 553 570 508.814 570 258 c 4
 570 123.069 429 -10 251 -10 c 7
 127.556 -10 31 36.0935 31 139 c 4
EndSplineSet
Fore
SplineSet
559.98 598.872 m 5
 525.565 732.872 473 790.872 378.98 790.872 c 7
 299.892 790.872 226.98 753.354 226.98 669.872 c 4
 226.98 452.742 622 422.333 622 212 c 4
 622 44.9229 466.268 -24.8408 320.841 -24.8408 c 4
 196.048 -24.8408 79 36.8906 79 139 c 4
 79 183.5 109.077 222.629 164 228 c 5
 179 126 243 35.0166 366.958 35.0166 c 4
 467 35.0166 519 75.2197 519 161 c 4
 519 354.543 130.98 388.843 130.98 608.872 c 4
 130.98 754.274 267.561 856.872 439.98 856.872 c 7
 542.624 856.872 641.111 801.643 641.111 696.832 c 4
 641.111 643.126 603.04 604.888 559.98 598.872 c 5
EndSplineSet
Layer: 2
SplineSet
572 149 m 5
 595 108 l 5
 561 45 456 -24 307 -24 c 7
 140.749 -24 24 91.5663 24 328 c 4
 24 634.381 222 856.872 438.772 856.872 c 7
 566.978 856.872 630.261 793.029 630.261 732.55 c 4
 630.261 678.819 588 645 540 638 c 5
 512.577 736.783 446.681 774.872 379.772 774.872 c 4
 203.399 774.872 137 557.369 137 410 c 4
 137 195 205.169 66 358 66 c 4
 479.236 66 534 115.086 572 149 c 5
EndSplineSet
Colour: ffffff
EndChar

StartChar: t
Encoding: 116 116 72
Width: 588
VWidth: 0
Flags: HMW
LayerCount: 3
Back
SplineSet
710 663 m 10
 675 378 l 18
 661 260 645 178.292 645 124.62 c 0
 645 47 714.262 53.9381 794.262 60 c 1
 788.262 7 l 1
 764.609 -4.25 718.935 -17 673.262 -17 c 11
 575.384 -17 520.368 45.5207 544 132 c 1
 533 132 l 1
 474.52 58.4502 388.64 -15.3213 251.327 -15.3213 c 4
 108.826 -15.3213 67.2999 98.6358 89 257 c 14
 149 694.872 l 2
 163 797 98 788.872 18 778.872 c 9
 25 833.872 l 17
 60.693 848.508 102.196 856.872 152 856.872 c 0
 243.465 856.872 260 815 240 663.872 c 10
 197 345 l 22
 169.078 130.912 190.939 77 317 77 c 7
 407.193 77 502.652 153.446 550 212 c 9
 618 694 l 2
 632 796 563.107 788 477 778 c 9
 484 833 l 17
 522.504 847.636 567.274 856 621 856 c 0
 713.504 856 732.767 814 710 663 c 10
EndSplineSet
Fore
SplineSet
285 -17 m 0
 154.789 -17 109.637 77.5342 136.673 255.321 c 10
 256 1040 l 25
 346 1040 l 25
 244.673 343.321 l 18
 209.947 95.7177 244.945 63.3213 344.673 63.3213 c 3
 406.481 63.3213 450.573 84.2994 473 103 c 1
 490 71 l 1
 441.924 21.6337 372.079 -17 285 -17 c 0
111 756 m 17
 121 819 l 9
 520 819 l 17
 510 756 l 9
 111 756 l 17
EndSplineSet
Colour: ffffff
EndChar

StartChar: u
Encoding: 117 117 73
Width: 941
VWidth: 0
Flags: HMW
LayerCount: 3
Fore
SplineSet
785 663 m 10
 750 378 l 18
 736 255.343 720 170.41 720 114.62 c 4
 720 37 789.262 43.9385 869.262 50 c 5
 863.262 7 l 1
 839.608 -4.25 793.935 -17 748.262 -17 c 11
 650.384 -17 595.368 45.5205 619 132 c 1
 608 132 l 1
 549.521 58.4502 463.64 -15.3213 326.327 -15.3213 c 0
 183.826 -15.3213 143 99 164 257 c 10
 224 704.872 l 2
 238 807 173 798.872 93 788.872 c 9
 100 833.872 l 17
 135.693 848.508 177.196 856.872 227 856.872 c 0
 318.465 856.872 335 815 315 663.872 c 10
 272 345 l 18
 244.078 130.912 265.939 77 392 77 c 3
 482.193 77 577.652 153.445 625 212 c 9
 693 704 l 2
 707 806 638.106 798 552 788 c 9
 559 833 l 17
 597.504 847.636 642.274 856 696 856 c 0
 788.504 856 807.768 814 785 663 c 10
EndSplineSet
Layer: 2
SplineSet
192.262 716.252 m 4
 192.262 793.872 123 786.934 43 780.872 c 5
 49 833.872 l 5
 72.653 845.122 118.327 857.872 164 857.872 c 7
 283.002 857.872 309.017 797.872 286 646.872 c 14
 243.262 352 l 22
 222.154 206.366 207.34 77.6406 342.69 77.6406 c 4
 460.664 77.6406 549.971 157.701 600.262 217 c 13
 674.262 840.872 l 5
 782.262 840.872 l 13
 695.262 142 l 22
 681.583 49 750.957 56 823.262 58 c 13
 817.262 16 l 21
 782.693 -5 742.497 -17 694.262 -17 c 7
 613.149 -17 571.262 18.455 601.262 153 c 5
 589.262 153 l 5
 533.065 79.865 420.758 -16 304.262 -16 c 7
 165.251 -16 110.759 53.175 137.262 264 c 14
 162.262 462.872 l 6
 177.262 580.872 192.262 662.58 192.262 716.252 c 4
EndSplineSet
Colour: ffffff
EndChar

StartChar: v
Encoding: 118 118 74
Width: 791
VWidth: 0
Flags: HMW
LayerCount: 3
Back
SplineSet
191 698.872 m 18
 204.679 791.872 135.305 784.872 63 782.872 c 9
 69 824.872 l 17
 103.569 845.872 143.765 857.872 192 857.872 c 3
 273.113 857.872 315 822.417 285 687.872 c 1
EndSplineSet
Fore
SplineSet
184 856.872 m 3
 278.074 856.872 282.145 800.041 303 669 c 2
 379 95 l 1
 491.95 285.983 616.685 630.172 616.685 732.832 c 4
 616.685 809.188 543.008 799.819 504 789 c 13
 510 823.872 l 17
 545.854 844.872 586.83 856.872 636 856.872 c 0
 689 856.872 723 834 723 780 c 0
 723 645.295 526.507 237.128 397 -10 c 1
 307 -28 l 1
 198 699 l 2
 184 789 161.464 797 66 791.872 c 9
 72 823.872 l 17
 103.478 844.872 140.079 856.872 184 856.872 c 3
EndSplineSet
Colour: ffffff
EndChar

StartChar: w
Encoding: 119 119 75
Width: 1185
VWidth: 0
Flags: HMW
LayerCount: 3
Back
SplineSet
829 -159.872 m 7
 734.925 -159.872 730.855 -103.041 710 28 c 6
 634 602 l 5
 521.05 414.011 396.315 75.2191 396.315 -25.832 c 4
 396.315 -102.189 469.992 -92.8195 509 -82 c 13
 503 -126.872 l 21
 467.146 -147.872 426.17 -159.872 377 -159.872 c 4
 324 -159.872 290 -137 290 -83 c 4
 290 51.7051 486.493 459.872 616 707 c 5
 706 725 l 5
 815 8 l 6
 829 -82 851.536 -90 947 -84.8721 c 13
 941 -126.872 l 21
 909.522 -147.872 872.921 -159.872 829 -159.872 c 7
EndSplineSet
Fore
SplineSet
710 -28 m 1
 632 580 l 1
 559.601 378.536 469.399 157.148 397 -10 c 1
 307 -28 l 1
 198 699 l 2
 184 789 161.464 797 66 791.872 c 9
 72 823.872 l 17
 103.478 844.872 140.079 856.872 184 856.872 c 3
 278.074 856.872 286 801 303 669 c 2
 379 95 l 1
 465 308 562.467 560 594 707 c 1
 704 729 l 9
 782 95 l 1
 890.198 285.983 1009.68 630.172 1009.68 732.832 c 4
 1009.68 809.188 936.008 799.819 897 789 c 13
 903 823.872 l 17
 938.854 844.872 979.83 856.872 1029 856.872 c 0
 1082 856.872 1116 834 1116 780 c 0
 1116 645.295 925.534 237.128 800 -10 c 1
 710 -28 l 1
EndSplineSet
Colour: ffffff
EndChar

StartChar: x
Encoding: 120 120 76
Width: 926
VWidth: 0
Flags: HMW
LayerCount: 3
Back
SplineSet
256 0 m 1
 156 0 l 9
 326 1158.1 l 18
 340 1251 270 1244.1 198 1242.1 c 9
 204 1284.1 l 17
 239 1305.1 279 1317.1 327 1317.1 c 3
 411.484 1317.1 441.636 1282 424 1157.1 c 2
 256 0 l 1
406 371 m 1
 533.647 466.469 680.685 585.496 680.685 732.832 c 4
 680.685 795.594 607.008 787.893 568 779 c 13
 574 823.872 l 21
 611.846 844.872 655.098 856.872 707 856.872 c 4
 760 856.872 794 831.025 794 770 c 4
 794 617.57 647.041 465.141 494 366 c 1
 524 312 l 2
 629.66 158.153 713.762 71.0646 823 58 c 2
 861 52 l 1
 848 4 l 1
 817.458 -8.66667 790.902 -15 767 -15 c 0
 647 -15 584 57 485 201 c 2
 403 354 l 1
 406 371 l 1
EndSplineSet
Fore
SplineSet
89 72 m 0
 89 235 275.915 395 405 483 c 1
 429 443 l 1
 302.496 332.736 207.1 244.932 204.315 102.168 c 4
 204.315 38.0459 283.223 45.9141 325 55 c 13
 319 18.1279 l 17
 281.154 -2.87207 237.902 -14.8721 186 -14.8721 c 0
 126.908 -14.8721 89 10.9756 89 72 c 0
827 770 m 0
 827 607 646 447 521 359 c 1
 497 399 l 1
 619 510.235 711 598.811 713.685 742.832 c 0
 713.685 805.595 640.008 797.894 601 789 c 9
 607 823.872 l 17
 644.846 844.872 688.098 856.872 740 856.872 c 0
 793 856.872 827 831.024 827 770 c 0
723 -17 m 3
 627.387 -17 583 14 465 287 c 2
 286 699 l 2
 243 795 223.786 794.083 143 791.872 c 9
 149 823.872 l 17
 180.478 844.872 217.079 856.872 261 856.872 c 3
 319.811 856.872 342.644 836.913 389 713 c 2
 537 383 l 2
 667.744 81.706 711.51 57.4322 805 50 c 2
 831 48 l 9
 825 16 l 17
 796.333 -5 763 -17 723 -17 c 3
EndSplineSet
Layer: 2
SplineSet
46 72 m 4
 46 235 227 395 352 483 c 5
 376 443 l 5
 254 335 162 249 159.315 109.168 c 4
 159.315 46.4056 232.992 54.1068 272 63 c 13
 266 18.1279 l 21
 228.154 -2.87207 184.902 -14.8721 133 -14.8721 c 4
 80 -14.8721 46 10.9753 46 72 c 4
EndSplineSet
Colour: ffffff
EndChar

StartChar: y
Encoding: 121 121 77
Width: 907
VWidth: 0
Flags: HMW
LayerCount: 3
Back
SplineSet
221 856.872 m 7
 315.075 856.872 319.145 800.041 340 669 c 6
 416 95 l 5
 528.95 282.989 653.685 621.781 653.685 722.832 c 4
 653.685 799.189 580.008 789.82 541 779 c 13
 547 823.872 l 21
 582.854 844.872 623.83 856.872 673 856.872 c 4
 726 856.872 760 834 760 780 c 4
 760 645.295 563.507 237.128 434 -10 c 1
 344 -28 l 1
 235 689 l 6
 221 779 198.464 787 103 781.872 c 13
 109 823.872 l 21
 140.477 844.872 177.079 856.872 221 856.872 c 7
EndSplineSet
Fore
SplineSet
841.369 778 m 0
 841.369 645 652.369 230 516.369 -2 c 0
 407.714 -183.854 297.162 -362 126.369 -362 c 0
 47.9717 -362 -19 -326.36 -19 -257.076 c 0
 -19 -233.776 -2.39355 -209.271 28.3691 -190 c 1
 79.1641 -238.75 119.45 -260 169.369 -260 c 0
 291.519 -260 372.752 -143.203 436.369 0 c 9
 316.369 697 l 2
 300.369 787 279.833 795 184.369 789.872 c 9
 190.369 821.872 l 17
 221.847 842.872 258.448 854.872 302.369 854.872 c 3
 396.443 854.872 400.514 798.041 421.369 667 c 2
 497.369 93 l 1
 610.319 283.983 735.054 628.172 735.054 730.832 c 0
 735.054 807.188 661.377 797.819 622.369 787 c 9
 628.369 821.872 l 17
 664.224 842.872 705.199 854.872 754.369 854.872 c 0
 807.369 854.872 841.369 832 841.369 778 c 0
EndSplineSet
Colour: ffffff
EndChar

StartChar: z
Encoding: 122 122 78
Width: 851
VWidth: 0
Flags: HMW
LayerCount: 3
Back
SplineSet
158 634 m 5
 204 874 l 5
 782 874 l 5
 772 806 l 5
 222 88 l 1
 524 88 l 1
 640 251 l 1
 703 243 l 1
 624 -2 l 1
 46 -2 l 1
 54 79 l 1
 595 789 l 5
 310 789 l 5
 222 621 l 5
 158 634 l 5
EndSplineSet
Fore
SplineSet
103 -8 m 1
 60 26 l 1
 654 739 l 1
 275 739 l 1
 207 579 l 1
 169 584 l 1
 215 836.872 l 1
 782 836.872 l 1
 782 786 l 1
 229 111 l 1
 233 107 l 1
 278 123 365.652 150.481 429 108 c 2
 514 51 l 2
 574.841 10.2012 634 19 700 113 c 1
 734 84 l 1
 646.079 -65.7617 522 -93 433 -41 c 2
 310 30 l 2
 244 68 185 47 146 21 c 2
 103 -8 l 1
EndSplineSet
Colour: ffffff
EndChar

StartChar: braceleft
Encoding: 123 123 79
Width: 734
VWidth: 0
Flags: HMW
LayerCount: 3
Back
SplineSet
4 389 m 1
 4 488 l 1
 53 497 l 1
 345 547 17 1255 426 1255 c 2
 527 1255 l 1
 518 1155 l 1
 436 1149 l 2
 368 1143 364 1044 364 921 c 2
 364 862 l 2
 364 687 356 491 194 445 c 1
 194 438 l 1
 492 352 265 -259 449 -271 c 2
 523 -277 l 1
 531 -378 l 1
 429 -378 l 2
 14 -378 343 335 56 381 c 2
 4 389 l 1
EndSplineSet
Fore
Refer: 81 125 N -1 0 0.316769 1 677 0 2
Colour: ffffff
EndChar

StartChar: bar
Encoding: 124 124 80
Width: 346
VWidth: 0
Flags: HMW
LayerCount: 3
Back
SplineSet
109 -366 m 1
 109 1260 l 1
 224 1248 l 1
 224 -380 l 1
 109 -366 l 1
EndSplineSet
Fore
SplineSet
76.7148 -368 m 1
 334.564 1260 l 1
 408.664 1248 l 1
 150.813 -380 l 1
 76.7148 -368 l 1
EndSplineSet
Colour: ffffff
EndChar

StartChar: braceright
Encoding: 125 125 81
Width: 734
VWidth: 0
Flags: HMW
LayerCount: 3
Back
SplineSet
22 -378 m 1
 31 -277 l 1
 105 -271 l 2
 289 -259 62 352 360 438 c 1
 360 445 l 1
 62 515 292 1134 117 1149 c 2
 35 1155 l 1
 28 1255 l 1
 129 1255 l 2
 538 1255 208 547 500 497 c 1
 549 488 l 1
 549 389 l 1
 497 381 l 2
 210 335 541 -378 126 -378 c 2
 22 -378 l 1
EndSplineSet
Fore
SplineSet
42.1309 -378 m 1
 55.8916 -329 l 1
 157.842 -323 l 1
 387.268 -314 244.978 385 582.214 437 c 1
 582.848 441 l 1
 266.993 524 626.319 1189 410.062 1200 c 1
 305.17 1207 l 1
 304.931 1256 l 1
 407.931 1256 l 2
 815.931 1256 359.143 506 654.44 470 c 2
 702.332 463 l 1
 694.571 414 l 1
 640.621 408 l 2
 336.235 374 558.131 -378 144.131 -378 c 2
 42.1309 -378 l 1
EndSplineSet
Colour: ffffff
EndChar

StartChar: asciitilde
Encoding: 126 126 82
Width: 1021
VWidth: 0
Flags: HMW
LayerCount: 3
Back
SplineSet
149 413 m 1
 149 413 231 626 370 611 c 2
 808 566 l 2
 846 561 903 628 903 628 c 1
 968 626 l 1
 968 626 877 407 738 424 c 1
 299 469 l 2
 256 474 200 400 200 400 c 1
 149 413 l 1
EndSplineSet
Fore
SplineSet
118 422 m 1
 118 422 181 662 357 614 c 2
 706 516 l 2
 806 489 858 620 858 620 c 1
 904 619 l 1
 904 619 835 371 658 419 c 2
 310 516 l 2
 218 542 157 408 157 408 c 1
 118 422 l 1
EndSplineSet
Colour: ffffff
EndChar

StartChar: exclamdown
Encoding: 161 161 83
Width: 369
VWidth: 0
Flags: HMW
LayerCount: 3
Back
SplineSet
97 -378 m 0xa0
 97 -210 124 212 151 534 c 1
 151 540 l 1
 240 520 l 1
 240 517 l 1x90
 264 195 294 -266 294 -375 c 2
 294 -378 l 1
 286 -406 198 -418 162 -418 c 0
 135 -418 97 -409 97 -378 c 0xa0
70 784 m 0xc0
 70 854 126 910 196 910 c 0
 266 910 320 853 320 783 c 0
 320 716 262 666 196 666 c 0
 129 666 70 717 70 784 c 0xc0
EndSplineSet
Fore
SplineSet
58.6055 -375 m 0
 85.373 -206 170.41 192 248.568 515 c 1
 254.885 517 l 1
 293.617 509 l 1
 293.301 507 l 1
 258.093 190 200.187 -264 182.765 -374 c 2
 182.605 -375 l 1
 169.329 -402 142.112 -416 106.112 -416 c 0
 79.1123 -416 53.6963 -406 58.6055 -375 c 0
258.133 809 m 0
 267.319 867 288.13 910 333.13 910 c 0
 375.13 910 382.686 863 374.133 809 c 0
 365.58 755 336.562 717 302.562 717 c 0
 266.562 717 249.58 755 258.133 809 c 0
EndSplineSet
Colour: ffffff
EndChar

StartChar: sterling
Encoding: 163 163 84
Width: 1147
VWidth: 0
Flags: HMW
LayerCount: 3
Back
SplineSet
43 0 m 1x4c
 50 74 l 1
 218 121 l 1
 249 221 254 313 257 461 c 2
 260 549 l 1
 80 538 l 1
 92 639 l 1
 263 649 l 1
 266 786 l 1
 276 1108 446 1250 673 1250 c 0x5c
 753 1250 827 1244 906 1211 c 1
 875 895 l 1
 789 907 l 1x2c
 748 1121 l 1
 727 1132 699 1143 663 1143 c 0
 496 1143 464 1037 458 703 c 1
 458 655 l 1
 676 669 l 1
 666 568 l 1
 455 555 l 1
 454 515 l 1
 451 356 440 196 393 99 c 1x9c
 853 96 l 1
 984 349 l 1
 1070 331 l 1
 1032 0 l 1
 43 0 l 1x4c
EndSplineSet
Fore
SplineSet
103 0 m 1
 115.652 42 l 1
 290.403 72 l 1
 333.876 176 363.574 313 390.174 462 c 1
 407.754 573 l 1
 230.487 565 l 1
 250.674 623 l 1
 421.258 633 l 1
 448.49 786 l 2
 506.015 1105 623.139 1251 850.139 1251 c 0
 932.139 1251 1001.03 1244 1074.8 1211 c 1
 992.804 889 l 1
 946.071 897 l 1
 966.885 1161 l 1
 946.627 1172 856.744 1198 820.744 1198 c 0
 666.744 1198 615.875 1142 546.027 701 c 2
 536.366 640 l 1
 757.425 653 l 1
 736.922 593 l 1
 524.863 580 l 1
 514.727 516 l 2
 481.782 308 431.392 154 380.188 58 c 1
 917.188 58 l 1
 1050.16 323 l 1
 1089.57 313 l 1
 1009 0 l 1
 103 0 l 1
EndSplineSet
Colour: ffffff
EndChar

StartChar: yen
Encoding: 165 165 85
Width: 1161
VWidth: 0
Flags: HMW
LayerCount: 3
Back
SplineSet
42 1168 m 5
 55 1244 l 5
 515 1244 l 5
 504 1168 l 5
 371 1130 l 5
 589 636 l 5
 806 1126 l 5
 649 1168 l 5
 658 1244 l 5
 1054 1244 l 5
 1045 1168 l 5
 921 1130 l 5
 667 578 l 5
 968 578 l 5
 957 480 l 5
 640 480 l 5
 640 338 l 5
 964 338 l 5
 953 240 l 5
 640 240 l 5
 640 113 l 5
 804 78 l 5
 794 0 l 5
 294 0 l 5
 304 71 l 5
 453 119 l 5
 453 240 l 5
 143 240 l 5
 155 338 l 5
 453 338 l 5
 453 480 l 5
 147 480 l 5
 159 578 l 5
 426 578 l 5
 178 1126 l 5
 42 1168 l 5
EndSplineSet
Fore
SplineSet
294.17 1207 m 5
 302.872 1243 l 5
 720.872 1243 l 5
 711.17 1207 l 5
 541.052 1181 l 5
 713.524 641 l 1
 1036.1 1175 l 5
 856.17 1207 l 5
 863.872 1243 l 5
 1255.87 1243 l 5
 1246.17 1207 l 5
 1112.89 1180 l 5
 737.388 577 l 1
 1096.39 577 l 1
 1077.1 531 l 1
 721.104 531 l 1
 690.376 337 l 1
 1056.38 337 l 1
 1037.93 290 l 1
 682.932 290 l 1
 647.611 67 l 1
 827.286 46 l 1
 811 0 l 1
 351 0 l 1
 362.652 42 l 1
 542.403 72 l 1
 576.932 290 l 1
 234.932 290 l 1
 252.376 337 l 1
 584.376 337 l 1
 615.104 531 l 1
 277.103 531 l 1
 293.388 577 l 1
 611.388 577 l 1
 429.419 1177 l 5
 294.17 1207 l 5
EndSplineSet
Colour: ffffff
EndChar

StartChar: brokenbar
Encoding: 166 166 86
Width: 335
VWidth: 0
Flags: HMW
LayerCount: 3
Back
SplineSet
109 -366 m 1
 109 423 l 1
 228 411 l 1
 228 -380 l 1
 109 -366 l 1
109 540 m 1
 109 1260 l 1
 227 1248 l 1
 225 529 l 1
 109 540 l 1
EndSplineSet
Fore
SplineSet
73.7646 -374 m 1
 198.571 414 l 1
 266.938 410 l 1
 141.813 -380 l 1
 73.7646 -374 l 1
217.735 535 m 1
 331.456 1253 l 1
 398.664 1248 l 1
 281.785 529 l 1
 217.735 535 l 1
EndSplineSet
Colour: ffffff
EndChar

StartChar: dieresis
Encoding: 168 168 87
Width: 661
VWidth: 0
Flags: HMW
LayerCount: 3
Back
SplineSet
92 1465 m 0
 92 1512 137 1542 177 1542 c 0
 221 1542 263 1511 263 1465 c 0
 263 1416 221 1383 177 1383 c 0
 134 1383 92 1416 92 1465 c 0
360 1465 m 0
 360 1512 405 1542 445 1542 c 0
 489 1542 532 1511 532 1465 c 0
 532 1416 489 1383 445 1383 c 0
 402 1383 360 1416 360 1465 c 0
EndSplineSet
Fore
SplineSet
140 1465 m 0
 140 1515 156 1543 195 1543 c 0
 232 1543 253 1516 253 1465 c 0
 253 1412 239 1384 197 1384 c 0
 155 1384 140 1414 140 1465 c 0
409 1465 m 0
 409 1515 424 1543 463 1543 c 0
 500 1543 521 1516 521 1465 c 0
 521 1412 506 1384 464 1384 c 0
 422 1384 409 1414 409 1465 c 0
EndSplineSet
Colour: ffffff
EndChar

StartChar: copyright
Encoding: 169 169 88
Width: 1446
VWidth: 0
Flags: HMW
LayerCount: 3
Back
SplineSet
53 645 m 0
 53 1026 346 1320 684 1320 c 0
 1079 1320 1327 1033 1327 649 c 0
 1327 292 1041 -15 675 -15 c 0
 309 -15 53 270 53 645 c 0
176 657 m 0
 176 329 387 92 683 92 c 0
 971 92 1205 325 1205 639 c 0
 1205 964 1019 1217 684 1217 c 0
 396 1217 176 961 176 657 c 0
344.5 643.75 m 0
 344.5 896.2 521.3 1056 705.75 1056 c 0
 847.7 1056 910.6 993.1 910.6 925.95 c 0
 910.6 875.8 873.2 841.8 802.65 836.7 c 1
 778.85 893.65 739.75 976.1 665.8 976.1 c 0
 564.65 976.1 498.35 875.8 498.35 721.95 c 0
 498.35 580 574 367.5 750.8 367.5 c 0
 834.95 367.5 882.55 393.85 922.5 419.35 c 1
 943.75 370.05 l 1
 898.7 315.65 789.9 265.5 680.25 265.5 c 0
 476.25 265.5 344.5 439.75 344.5 643.75 c 0
EndSplineSet
Fore
SplineSet
430.74 609.9 m 0
 430.74 839.359 569.32 1001.86 738.24 1001.86 c 4
 876.82 1001.86 919.46 928.934 919.46 864.92 c 0
 919.46 827.2 905.52 800.14 866.16 787.84 c 1
 828.44 899.36 784.98 952.66 698.88 952.66 c 0
 590.64 952.66 512.74 827.2 512.74 657.46 c 0
 512.74 412.28 604.58 322.9 746.44 322.9 c 0
 827.62 322.9 899.78 365.54 939.14 404.08 c 1
 953.9 377.02 l 1
 914.54 315.52 813.68 262.22 707.08 262.22 c 0
 525.04 262.22 430.74 413.92 430.74 609.9 c 0
113 620 m 0
 113 1018 372 1281 711 1281 c 0
 1089 1281 1330 1016 1330 623 c 0
 1330 233 1087 -27 702 -27 c 0
 337 -27 113 231 113 620 c 0
181 631 m 0
 181 286 399 31 711 31 c 0
 1030 31 1265 278 1265 613 c 0
 1265 966 1030 1226 713 1226 c 0
 401 1226 181 973 181 631 c 0
EndSplineSet
Colour: ffffff
EndChar

StartChar: guillemotleft
Encoding: 171 171 89
Width: 764
VWidth: 0
Flags: HMW
LayerCount: 3
Back
SplineSet
23 469 m 1
 292 820 l 1
 335 761 l 1
 171 461 l 1
 338 141 l 1
 286 77 l 1
 24 449 l 1
 23 469 l 1
270 469 m 1
 538 820 l 1
 583 761 l 1
 418 461 l 1
 586 141 l 1
 534 77 l 1
 271 449 l 1
 270 469 l 1
EndSplineSet
Fore
Refer: 219 8249 N 1 0 0 1 32 0 2
Refer: 219 8249 N 1 0 0 1 279 0 2
Colour: ffffff
EndChar

StartChar: logicalnot
Encoding: 172 172 90
Width: 998
VWidth: 0
Flags: HMW
LayerCount: 3
Back
SplineSet
74 559 m 1
 86 663 l 1
 830 663 l 1
 832 351 l 1
 726 332 l 1
 726 559 l 1
 74 559 l 1
EndSplineSet
Fore
SplineSet
114 609 m 1
 126 664 l 1
 872 664 l 1
 872 351 l 5
 800 333 l 1
 800 609 l 1
 114 609 l 1
EndSplineSet
Colour: ffffff
EndChar

StartChar: softhyphen
Encoding: 173 173 91
Width: 658
VWidth: 0
Flags: HMW
LayerCount: 3
Back
SplineSet
85 406 m 1
 92 521 l 1
 500 581 l 1
 492 465 l 1
 85 406 l 1
EndSplineSet
Fore
SplineSet
122 435 m 1
 130 497 l 1
 539 558 l 1
 529 495 l 1
 122 435 l 1
EndSplineSet
Colour: ffffff
EndChar

StartChar: micro
Encoding: 181 181 92
Width: 941
VWidth: 0
Flags: HMW
LayerCount: 3
Back
SplineSet
122 37 m 5
 115 37 l 5
 115 19 116 -28 110 -86 c 6
 80 -388 l 5
 -49 -362 l 5
 -35 -313 98 255 136 497 c 6
 175 746 l 1
 44 770 l 1
 54 844 l 1
 337 869 l 1
 356 846 l 1
 277 375 l 2
 247 197 251 117 342 117 c 0
 434 117 489 167 522 200 c 1
 604 746 l 1
 470 770 l 1
 480 844 l 1
 766 869 l 1
 786 846 l 1
 710 370 l 2
 672 132 694 104 740 96 c 2
 806 84 l 1
 788 15 l 1
 753 2 701 -17 647 -17 c 0
 559 -17 508 26 520 130 c 1
 510 130 l 1
 482 77 379 -20 247 -20 c 4
 196 -20 150 -6 122 38 c 5
 122 37 l 5
EndSplineSet
Fore
SplineSet
307 -21.7998 m 0
 443.012 -21.7998 546.238 55.0479 608 132 c 1
 619 132 l 1
 595.368 45.5205 650.384 -17 748.262 -17 c 19
 793.935 -17 839.608 -4.25 863.262 7 c 1
 869.262 60 l 1
 789.262 53.9385 720 47 720 124.62 c 0
 720 178.292 736 260 750 378 c 10
 785 663 l 18
 807.768 814 788.504 856 696 856 c 0
 642.274 856 597.504 847.636 559 833 c 9
 552 778 l 17
 638.106 788 707 796 693 694 c 2
 625 212 l 17
 577.652 153.445 482.193 77 392 77 c 3
 265.939 77 244.078 130.912 272 345 c 10
 315 663.872 l 18
 335 815 318.465 856.872 227 856.872 c 0
 177.196 856.872 135.693 848.508 100 833.872 c 9
 93 778.872 l 17
 173 788.872 239 799 224 694.872 c 2
 196 497 l 18
 166.568 256.829 43.4863 -303.57 31 -352 c 1
 140 -366 l 1
 170 -86 l 2
 177 -20 174.8 41.0078 174 60 c 1
 181 60 l 1
 181 61 l 1
 209.224 -1.81348 256.6 -21.7998 307 -21.7998 c 0
EndSplineSet
Colour: ffffff
EndChar

StartChar: periodcentered
Encoding: 183 183 93
Width: 482
VWidth: 0
Flags: HMW
LayerCount: 3
Back
SplineSet
83 504 m 0
 83 568 139 618 203 618 c 0
 269 618 325 568 325 504 c 0
 325 437 269 381 203 381 c 0
 137 381 83 437 83 504 c 0
EndSplineSet
Fore
SplineSet
119 504 m 0
 119 568 175 618 239 618 c 0
 305 618 361 568 361 504 c 0
 361 437 305 381 239 381 c 0
 173 381 119 437 119 504 c 0
EndSplineSet
Colour: ffffff
EndChar

StartChar: macron
Encoding: 175 175 94
Width: 729
VWidth: 0
Flags: HMW
LayerCount: 3
Back
SplineSet
372 1480 m 1
 813 1480 l 1
 783 1379 l 1
 342 1379 l 1
 372 1480 l 1
545 1239 m 0
EndSplineSet
Fore
SplineSet
140 1380 m 1
 149 1432 l 1
 589 1432 l 1
 581 1380 l 1
 140 1380 l 1
EndSplineSet
Colour: ffffff
EndChar

StartChar: degree
Encoding: 176 176 95
Width: 603
VWidth: 0
Flags: HMW
LayerCount: 3
Back
SplineSet
390 1237 m 0
 331 1237 294 1181 286 1125 c 0
 276 1064 298 996 362 996 c 0
 416 996 452 1037 464 1110 c 0
 474 1173 453 1237 390 1237 c 0
408 1285 m 0
 504 1285 553 1217 538 1123 c 0
 523 1032 444 948 342 948 c 0
 250 948 196 1011 213 1113 c 0
 228 1205 314 1285 408 1285 c 0
EndSplineSet
Fore
SplineSet
119 1107 m 0
 119 1210 204 1304 312 1304 c 0
 428 1304 483 1237 483 1128 c 0
 483 1013 394 928 288 928 c 0
 186 928 119 990 119 1107 c 0
180 1129 m 0
 180 1026 229 967 304 967 c 0
 364 967 421 1023 421 1105 c 0
 421 1200 371 1265 298 1265 c 0
 224 1265 180 1212 180 1129 c 0
EndSplineSet
Colour: ffffff
EndChar

StartChar: plusminus
Encoding: 177 177 96
Width: 847
VWidth: 0
Flags: HMW
LayerCount: 3
Back
SplineSet
58 13 m 1
 74 117 l 1
 686 123 l 1
 670 19 l 1
 58 13 l 1
83 475 m 1
 95 575 l 1
 304 575 l 1
 304 807 l 1
 412 795 l 1
 414 575 l 1
 633 575 l 1
 621 475 l 1
 414 475 l 1
 415 240 l 1
 304 251 l 1
 304 475 l 1
 83 475 l 1
EndSplineSet
Fore
SplineSet
112 36 m 1
 129 100 l 1
 740 100 l 1
 723 36 l 1
 112 36 l 1
EndSplineSet
Refer: 10 43 N 1 0 0 1 117 66 2
Colour: ffffff
EndChar

StartChar: acute
Encoding: 180 180 97
Width: 505
VWidth: 0
Flags: HMW
LayerCount: 3
Back
SplineSet
727 1666 m 1
 494 1349 l 1
 448 1381 l 1
 623 1706 l 1
 727 1666 l 1
505 1239 m 0
EndSplineSet
Fore
SplineSet
139 1370 m 1
 271 1707 l 1
 367 1668 l 1
 184 1344 l 1
 139 1370 l 1
EndSplineSet
Colour: ffffff
EndChar

StartChar: cedilla
Encoding: 184 184 98
Width: 448
VWidth: 0
Flags: HMW
LayerCount: 3
Back
SplineSet
201 -76 m 1
 234 -109 276 -158 266 -226 c 0
 253 -305 162 -355 41 -390 c 1
 30 -330 l 1
 91 -310 124 -278 129 -248 c 0
 134 -213 105 -172 74 -137 c 1
 193 3 l 1
 268 3 l 1
 201 -76 l 1
226 0 m 0
EndSplineSet
Fore
SplineSet
116 -347 m 1
 174 -327 234 -276 234 -247 c 0
 234 -182 184 -154 148 -118 c 1
 233 3 l 1
 292 3 l 1
 237 -76 l 1
 274 -109 326 -161 326 -227 c 0
 326 -306 245 -354 127 -390 c 1
 116 -347 l 1
EndSplineSet
Colour: ffffff
EndChar

StartChar: guillemotright
Encoding: 187 187 99
Width: 823
VWidth: 0
Flags: HMW
LayerCount: 3
Back
SplineSet
61 141 m 1
 228 461 l 1
 64 761 l 1
 108 820 l 1
 376 469 l 1
 374 449 l 1
 113 77 l 1
 61 141 l 1
308 141 m 1
 476 461 l 1
 311 761 l 1
 355 820 l 1
 623 469 l 1
 621 449 l 1
 360 77 l 1
 308 141 l 1
EndSplineSet
Fore
Refer: 89 171 N -1 0 0 -1 762 899 2
Colour: ffffff
EndChar

StartChar: questiondown
Encoding: 191 191 100
Width: 770
VWidth: 0
Flags: HMW
LayerCount: 3
Back
SplineSet
53 40 m 0xe8
 53 277 341 243 341 391 c 0
 341 431 334 468 319 517 c 1
 393 534 l 1
 420 494 470 394 470 314 c 0
 470 90 164 165 164 -40 c 0
 164 -132 269 -213 328 -213 c 0
 404 -213 476 -188 519 -142 c 1
 552 -155 593 -199 593 -253 c 0
 593 -306 553 -388 396 -388 c 0
 241 -388 53 -214 53 40 c 0xe8
233 810 m 0xf0
 233 880 289 936 359 936 c 0
 429 936 482 877 482 807 c 0
 482 740 425 690 359 690 c 0
 292 690 233 743 233 810 c 0xf0
EndSplineSet
Fore
Refer: 19 63 N -1 0 0 -1 707 901 2
Colour: ffffff
EndChar

StartChar: germandbls
Encoding: 223 223 101
Width: 995
VWidth: 0
Flags: HMW
LayerCount: 3
Back
SplineSet
264 886 m 6
 168 135 l 6
 142 -69 47.3782 -354 -220 -354 c 4
 -266.617 -354 -335.408 -324 -335.408 -259.646 c 4
 -335.408 -234.117 -318 -198 -272 -182 c 5
 -248 -248 -179.933 -268 -140 -268 c 4
 -47.1165 -268 18.6968 -186.803 58 99 c 6
 150 768 l 5
 10 768 l 5
 15 812 l 5
 162 836 l 5
 213.871 1190.48 407.363 1307.1 564 1307.1 c 4
 730.013 1307.1 790.423 1216.49 790.423 1110.05 c 4
 790.423 817 451 810.542 451 638 c 4
 451 463.393 857 407.692 857 212 c 4
 857 44.9229 701.268 -24.8408 555.841 -24.8408 c 4
 431.048 -24.8408 314 36.8906 314 139 c 4
 314 183.5 344.077 222.629 399 228 c 5
 414 126 478 35.0166 601.958 35.0166 c 4
 702 35.0166 754 75.2197 754 161 c 4
 754 347.252 363 380.26 363 592 c 4
 363 856.872 681 818.353 681 1060 c 4
 681 1149.84 636.251 1229.1 511 1229.1 c 4
 369.066 1229.1 303.228 1143.18 264 886 c 6
EndSplineSet
Fore
SplineSet
324 886 m 2
 228 135 l 2
 202 -69 107.378 -354 -160 -354 c 0
 -206.617 -354 -275.408 -324 -275.408 -259.646 c 0
 -275.408 -234.117 -258 -198 -212 -182 c 1
 -188 -248 -119.933 -268 -80 -268 c 0
 12.8838 -268 78.6973 -186.803 118 99 c 2
 210 768 l 1
 70 768 l 1
 75 812 l 1
 222 836 l 1
 273.871 1190.48 467.363 1307.1 624 1307.1 c 0
 766.35 1307.1 845.077 1224.32 845.077 1098.73 c 0
 845.077 838 516.878 805 516.878 635.861 c 0
 516.878 455.278 917 405.357 917 212 c 0
 917 44.9229 761.268 -24.8408 615.841 -24.8408 c 0
 491.048 -24.8408 374 36.8906 374 139 c 0
 374 183.5 404.077 222.629 459 228 c 1
 474 126 538 35.0166 661.958 35.0166 c 0
 762 35.0166 814 75.2197 814 161 c 0
 814 342.792 420.834 373.056 420.834 602.588 c 0
 420.834 820 745.354 826 745.354 1068.03 c 0
 745.354 1166.87 690.141 1229.1 571 1229.1 c 0
 429.066 1229.1 363.228 1143.18 324 886 c 2
EndSplineSet
Layer: 2
SplineSet
-226.891 0 m 5
 -203.329 73 l 5
 -44.5186 116 l 5
 61.2822 784 l 5
 -83.7178 784 l 5
 -64.4229 849 l 5
 77.2207 872 l 5
 108.609 1147 331.811 1305 567.801 1305 c 4
 721.827 1305 804.897 1199 804.897 1072 c 4
 804.897 891 496.118 811 496.118 663 c 4
 496.118 495 858.845 467 858.845 213 c 4
 858.845 71 682.583 -31 505.199 -31 c 4
 342.939 -31 239.6 52 239.6 142 c 4
 239.6 228 306.926 271 391.665 275 c 5
 417.373 144 487.864 67 551.721 67 c 4
 633.31 67 704.976 82 704.976 157 c 4
 704.976 295 356.348 331 356.348 595 c 4
 356.348 775 633.137 855 633.137 1023 c 4
 633.137 1116 556.918 1198 467.854 1198 c 4
 342.446 1198 256 1147 256 959 c 6
 104.109 0 l 5
 -226.891 0 l 5
EndSplineSet
Colour: ffffff
EndChar

StartChar: Agrave
Encoding: 192 192 102
Width: 1408
VWidth: 0
Flags: HMW
LayerCount: 3
Back
SplineSet
-37 0 m 1
 -28 74 l 1
 121 129 l 1
 559 1237 l 1
 710 1268 l 1
 1100 124 l 1
 1237 80 l 1
 1228 0 l 1
 713 0 l 1
 725 74 l 1
 896 129 l 1
 787 432 l 1
 368 432 l 1
 256 124 l 1
 442 80 l 1
 431 0 l 1
 -37 0 l 1
406 534 m 1
 758 534 l 1
 592 1034 l 1
 406 534 l 1
436 1664 m 1
 552 1702 l 1
 684 1368 l 1
 627 1334 l 1
 436 1664 l 1
EndSplineSet
Fore
Refer: 52 96 S 1 0 0 1 719 6 2
Refer: 21 65 N 1 0 0 1 60 0 3
Colour: ffffff
EndChar

StartChar: Aacute
Encoding: 193 193 103
Width: 1408
VWidth: 0
Flags: HMW
LayerCount: 3
Back
SplineSet
-37 0 m 1
 -28 74 l 1
 121 129 l 1
 559 1237 l 1
 710 1268 l 1
 1100 124 l 1
 1237 80 l 1
 1228 0 l 1
 713 0 l 1
 725 74 l 1
 896 129 l 1
 787 432 l 1
 368 432 l 1
 256 124 l 1
 442 80 l 1
 431 0 l 1
 -37 0 l 1
406 534 m 1
 758 534 l 1
 592 1034 l 1
 406 534 l 1
593 1385 m 1
 716 1710 l 1
 827 1670 l 1
 643 1354 l 1
 593 1385 l 1
EndSplineSet
Fore
Refer: 97 180 S 1 0 0 1 897 -3 2
Refer: 21 65 N 1 0 0 1 60 0 3
Colour: ffffff
EndChar

StartChar: Acircumflex
Encoding: 194 194 104
Width: 1408
VWidth: 0
Flags: HMW
LayerCount: 3
Back
SplineSet
-37 0 m 1
 -28 74 l 1
 121 129 l 1
 559 1237 l 1
 710 1268 l 1
 1100 124 l 1
 1237 80 l 1
 1228 0 l 1
 713 0 l 1
 725 74 l 1
 896 129 l 1
 787 432 l 1
 368 432 l 1
 256 124 l 1
 442 80 l 1
 431 0 l 1
 -37 0 l 1
406 534 m 1
 758 534 l 1
 592 1034 l 1
 406 534 l 1
443 1392 m 1
 611 1572 l 1
 666 1585 l 1
 844 1400 l 1
 794 1364 l 1
 632 1472 l 1
 621 1472 l 1
 480 1361 l 1
 443 1392 l 1
EndSplineSet
Fore
Refer: 211 710 S 1 0 0 1 724 4 2
Refer: 21 65 N 1 0 0 1 60 0 3
Colour: ffffff
EndChar

StartChar: Atilde
Encoding: 195 195 105
Width: 1408
VWidth: 0
Flags: HMW
LayerCount: 3
Back
SplineSet
-37 0 m 1xc0
 -28 74 l 1
 121 129 l 1
 559 1237 l 1
 710 1268 l 1
 1100 124 l 1
 1237 80 l 1
 1228 0 l 1
 713 0 l 1
 725 74 l 1
 896 129 l 1
 787 432 l 1
 368 432 l 1
 256 124 l 1
 442 80 l 1
 431 0 l 1
 -37 0 l 1xc0
406 534 m 1
 758 534 l 1
 592 1034 l 1
 406 534 l 1
406 1383 m 1
 406 1383 440 1526 529 1526 c 0
 533 1526 539 1527 543 1526 c 2xd0
 764 1496 l 1
 768 1496 l 2
 793 1496 825 1536 825 1536 c 1
 872 1535 l 1
 872 1535 835 1391 743 1391 c 0xe0
 739 1391 734 1391 730 1392 c 2
 507 1423 l 1
 504 1423 l 2xd0
 476 1423 445 1376 445 1376 c 1
 406 1383 l 1
EndSplineSet
Fore
Refer: 192 732 S 1 0 0 1 690 -5 2
Refer: 21 65 N 1 0 0 1 60 0 3
Colour: ffffff
EndChar

StartChar: Adieresis
Encoding: 196 196 106
Width: 1408
VWidth: 0
Flags: HMW
LayerCount: 3
Back
SplineSet
-37 0 m 1
 -28 74 l 1
 121 129 l 1
 559 1237 l 1
 710 1268 l 1
 1100 124 l 1
 1237 80 l 1
 1228 0 l 1
 713 0 l 1
 725 74 l 1
 896 129 l 1
 787 432 l 1
 368 432 l 1
 256 124 l 1
 442 80 l 1
 431 0 l 1
 -37 0 l 1
406 534 m 1
 758 534 l 1
 592 1034 l 1
 406 534 l 1
423 1453 m 0
 423 1500 466 1530 506 1530 c 0
 550 1530 592 1499 592 1453 c 0
 592 1404 550 1373 506 1373 c 0
 463 1373 423 1404 423 1453 c 0
690 1453 m 0
 690 1500 733 1530 773 1530 c 0
 817 1530 861 1499 861 1453 c 0
 861 1404 817 1373 773 1373 c 0
 730 1373 690 1404 690 1453 c 0
EndSplineSet
Fore
Refer: 87 168 S 1 0 0 1 724 -19 2
Refer: 21 65 N 1 0 0 1 60 0 3
Colour: ffffff
EndChar

StartChar: Aring
Encoding: 197 197 107
Width: 1408
VWidth: 0
Flags: HMW
LayerCount: 3
Back
SplineSet
-37 0 m 1
 -28 74 l 1
 121 129 l 1
 559 1237 l 1
 710 1268 l 1
 1100 124 l 1
 1237 80 l 1
 1228 0 l 1
 713 0 l 1
 725 74 l 1
 896 129 l 1
 787 432 l 1
 368 432 l 1
 256 124 l 1
 442 80 l 1
 431 0 l 1
 -37 0 l 1
406 534 m 1
 758 534 l 1
 592 1034 l 1
 406 534 l 1
480 1532 m 0
 480 1624 556 1704 649 1704 c 0
 745 1704 804 1635 804 1542 c 0
 804 1452 738 1367 636 1367 c 0
 544 1367 480 1430 480 1532 c 0
552 1543 m 0
 552 1482 583 1415 647 1415 c 0
 701 1415 734 1456 734 1529 c 0
 734 1591 698 1656 636 1656 c 0
 577 1656 552 1599 552 1543 c 0
EndSplineSet
Fore
Refer: 191 730 S 1 0 0 1 772 1 2
Refer: 21 65 N 1 0 0 1 60 0 3
Colour: ffffff
EndChar

StartChar: Ccedilla
Encoding: 199 199 108
Width: 1160
VWidth: 0
Flags: HMW
LayerCount: 3
Back
SplineSet
61 589 m 0
 61 884 247 1269 705 1269 c 0
 837 1269 970 1242 1066 1169 c 1
 1035 837 l 1
 947 850 l 1
 906 1070 l 1
 860 1129 776 1174 647 1174 c 0
 439 1174 275 980 275 658 c 0
 275 299 492 111 729 111 c 0
 863 111 992 182 1078 261 c 1
 1114 185 l 1
 1047 104 910 9 743 -18 c 1
 703 -76 l 1
 740 -109 792 -160 792 -227 c 0
 792 -306 708 -355 592 -389 c 1
 572 -331 l 1
 629 -312 658 -278 658 -248 c 0
 658 -214 621 -172 585 -138 c 1
 663 -24 l 1
 652 -24 l 2
 345 -24 61 190 61 589 c 0
EndSplineSet
Fore
Refer: 98 184 S 1 0 0 1 521 -15 2
Refer: 23 67 N 1 0 0 1 60 0 3
Colour: ffffff
EndChar

StartChar: Egrave
Encoding: 200 200 109
Width: 1184
VWidth: 0
Flags: HMW
LayerCount: 3
Back
SplineSet
50 1168 m 1x6f
 61 1244 l 1
 1056 1244 l 1x6f
 1025 924 l 1
 938 937 l 1
 897 1152 l 1
 426 1152 l 1
 426 676 l 1
 716 676 l 1
 758 796 l 1
 853 810 l 1
 819 421 l 1
 734 408 l 1
 700 583 l 1
 426 583 l 1
 426 96 l 1
 921 96 l 1xb7
 1019 326 l 1
 1102 313 l 1
 1072 0 l 1
 57 0 l 1
 65 74 l 1
 232 121 l 1
 232 1126 l 1
 50 1168 l 1x6f
443 1664 m 1
 559 1702 l 1
 691 1368 l 1
 633 1334 l 1
 443 1664 l 1
EndSplineSet
Fore
Refer: 52 96 S 1 0 0 1 607 2 2
Refer: 25 69 N 1 0 0 1 60 0 3
Colour: ffffff
EndChar

StartChar: Eacute
Encoding: 201 201 110
Width: 1184
VWidth: 0
Flags: HMW
LayerCount: 3
Back
SplineSet
50 1168 m 1x6f
 61 1244 l 1
 1056 1244 l 1x6f
 1025 924 l 1
 938 937 l 1
 897 1152 l 1
 426 1152 l 1
 426 676 l 1
 716 676 l 1
 758 796 l 1
 853 810 l 1
 819 421 l 1
 734 408 l 1
 700 583 l 1
 426 583 l 1
 426 96 l 1
 921 96 l 1xb7
 1019 326 l 1
 1102 313 l 1
 1072 0 l 1
 57 0 l 1
 65 74 l 1
 232 121 l 1
 232 1126 l 1
 50 1168 l 1x6f
517 1385 m 1
 640 1710 l 1
 751 1670 l 1
 568 1354 l 1
 517 1385 l 1
EndSplineSet
Fore
Refer: 97 180 S 1 0 0 1 745 -8 2
Refer: 25 69 N 1 0 0 1 60 0 3
Colour: ffffff
EndChar

StartChar: Ecircumflex
Encoding: 202 202 111
Width: 1184
VWidth: 0
Flags: HMW
LayerCount: 3
Back
SplineSet
406 1387 m 1
 574 1566 l 1
 629 1581 l 1
 807 1395 l 1
 758 1358 l 1
 595 1468 l 1
 584 1468 l 1
 445 1357 l 1
 406 1387 l 1
75 1168 m 1x6f
 86 1244 l 1
 1081 1244 l 1x6f
 1050 924 l 1
 963 937 l 1
 922 1152 l 1
 451 1152 l 1
 451 676 l 1
 741 676 l 1
 783 796 l 1
 878 810 l 1
 844 421 l 1
 759 408 l 1
 725 583 l 1
 451 583 l 1
 451 96 l 1
 946 96 l 1xb7
 1044 326 l 1
 1127 313 l 1
 1097 0 l 1
 82 0 l 1
 90 74 l 1
 257 121 l 1
 257 1126 l 1
 75 1168 l 1x6f
EndSplineSet
Fore
Refer: 211 710 S 1 0 0 1 586 -2 2
Refer: 25 69 N 1 0 0 1 60 0 3
Colour: ffffff
EndChar

StartChar: Edieresis
Encoding: 203 203 112
Width: 1184
VWidth: 0
Flags: HMW
LayerCount: 3
Back
SplineSet
50 1168 m 1x6e60
 61 1244 l 1
 1056 1244 l 1x6e60
 1025 924 l 1
 938 937 l 1
 897 1152 l 1
 426 1152 l 1
 426 676 l 1
 716 676 l 1
 758 796 l 1
 853 810 l 1
 819 421 l 1
 734 408 l 1
 700 583 l 1
 426 583 l 1
 426 96 l 1
 921 96 l 1xb660
 1019 326 l 1
 1102 313 l 1
 1072 0 l 1
 57 0 l 1
 65 74 l 1
 232 121 l 1
 232 1126 l 1
 50 1168 l 1x6e60
380 1453 m 0x2520
 380 1500 423 1530 463 1530 c 0
 507 1530 549 1499 549 1453 c 0
 549 1404 507 1373 463 1373 c 0
 420 1373 380 1404 380 1453 c 0x2520
647 1453 m 0x24a0
 647 1500 690 1530 730 1530 c 0
 774 1530 818 1499 818 1453 c 0
 818 1404 774 1373 730 1373 c 0
 687 1373 647 1404 647 1453 c 0x24a0
EndSplineSet
Fore
Refer: 87 168 S 1 0 0 1 616 -24.2 2
Refer: 25 69 N 1 0 0 1 60 0 3
Colour: ffffff
EndChar

StartChar: Igrave
Encoding: 204 204 113
Width: 695
VWidth: 0
Flags: HMW
LayerCount: 3
Back
SplineSet
50 1168 m 1
 61 1244 l 1
 605 1244 l 1
 595 1168 l 1
 426 1130 l 1
 426 114 l 1
 607 80 l 1
 597 0 l 1
 57 0 l 1
 65 74 l 1
 232 121 l 1
 232 1126 l 1
 50 1168 l 1
133 1664 m 1
 249 1702 l 1
 381 1368 l 1
 323 1334 l 1
 133 1664 l 1
EndSplineSet
Fore
Refer: 52 96 S 1 0 0 1 342 2.80005 2
Refer: 29 73 N 1 0 0 1 60 0 3
Colour: ffffff
EndChar

StartChar: Iacute
Encoding: 205 205 114
Width: 695
VWidth: 0
Flags: HMW
LayerCount: 3
Back
SplineSet
50 1168 m 1
 61 1244 l 1
 605 1244 l 1
 595 1168 l 1
 426 1130 l 1
 426 114 l 1
 607 80 l 1
 597 0 l 1
 57 0 l 1
 65 74 l 1
 232 121 l 1
 232 1126 l 1
 50 1168 l 1
289 1385 m 1
 412 1710 l 1
 523 1670 l 1
 341 1354 l 1
 289 1385 l 1
EndSplineSet
Fore
Refer: 97 180 S 1 0 0 1 494 -7 2
Refer: 29 73 N 1 0 0 1 60 0 3
Colour: ffffff
EndChar

StartChar: Icircumflex
Encoding: 206 206 115
Width: 695
VWidth: 0
Flags: HMW
LayerCount: 3
Back
SplineSet
50 1168 m 1
 61 1244 l 1
 605 1244 l 1
 595 1168 l 1
 426 1130 l 1
 426 114 l 1
 607 80 l 1
 597 0 l 1
 57 0 l 1
 65 74 l 1
 232 121 l 1
 232 1126 l 1
 50 1168 l 1
132 1392 m 1
 299 1572 l 1
 354 1585 l 1
 532 1400 l 1
 483 1364 l 1
 319 1472 l 1
 309 1472 l 1
 169 1361 l 1
 132 1392 l 1
EndSplineSet
Fore
Refer: 211 710 N 1 0 0 1 335 3 2
Refer: 29 73 N 1 0 0 1 60 0 3
Colour: ffffff
EndChar

StartChar: Idieresis
Encoding: 207 207 116
Width: 695
VWidth: 0
Flags: HMW
LayerCount: 3
Back
SplineSet
50 1168 m 1xe8
 61 1244 l 1
 605 1244 l 1
 595 1168 l 1
 426 1130 l 1
 426 114 l 1
 607 80 l 1
 597 0 l 1
 57 0 l 1
 65 74 l 1
 232 121 l 1
 232 1126 l 1
 50 1168 l 1xe8
110 1453 m 0xf0
 110 1500 154 1530 194 1530 c 0
 238 1530 279 1499 279 1453 c 0
 279 1404 238 1373 194 1373 c 0
 151 1373 110 1404 110 1453 c 0xf0
377 1453 m 0xe4
 377 1500 421 1530 461 1530 c 0
 505 1530 549 1499 549 1453 c 0
 549 1404 505 1373 461 1373 c 0
 418 1373 377 1404 377 1453 c 0xe4
EndSplineSet
Fore
Refer: 87 168 S 1 0 0 1 335 11 2
Refer: 29 73 N 1 0 0 1 60 0 3
Colour: ffffff
EndChar

StartChar: Ntilde
Encoding: 209 209 117
Width: 1466
VWidth: 0
Flags: HMW
LayerCount: 3
Back
SplineSet
50 1168 m 1xe6
 61 1244 l 1
 412 1244 l 1
 1054 271 l 1
 1054 1126 l 1
 869 1168 l 1
 881 1244 l 1
 1356 1244 l 1
 1343 1168 l 1
 1176 1130 l 1
 1176 1 l 1
 1023 -30 l 1
 360 961 l 1
 360 114 l 1
 543 80 l 1
 532 0 l 1
 57 0 l 1
 65 74 l 1
 232 121 l 1
 232 1117 l 1
 50 1168 l 1xe6
445 1383 m 1
 445 1383 477 1526 566 1526 c 0
 570 1526 576 1527 580 1526 c 2xee
 802 1496 l 1
 807 1496 l 2
 832 1496 862 1536 862 1536 c 1
 910 1535 l 1
 910 1535 873 1391 781 1391 c 0xf6
 777 1391 772 1391 768 1392 c 2
 546 1423 l 1
 543 1423 l 2xee
 515 1423 483 1376 483 1376 c 1
 445 1383 l 1
EndSplineSet
Fore
Refer: 192 732 S 1 0 0 1 654 -11 2
Refer: 34 78 N 1 0 0 1 60 0 3
Colour: ffffff
EndChar

StartChar: Ograve
Encoding: 210 210 118
Width: 1341
VWidth: 0
Flags: HMW
LayerCount: 3
Back
SplineSet
61 619 m 0
 61 1004 308 1272 706 1272 c 0
 1068 1272 1284 970 1284 619 c 0
 1284 274 1051 -27 636 -27 c 0
 291 -27 61 257 61 619 c 0
283 676 m 0
 283 382 398 79 686 79 c 0
 990 79 1062 330 1062 573 c 0
 1062 856 945 1176 658 1176 c 0
 358 1176 283 937 283 676 c 0
527 1664 m 1
 642 1702 l 1
 774 1368 l 1
 717 1334 l 1
 527 1664 l 1
EndSplineSet
Fore
Refer: 52 96 N 1 0 0 1 723 6 2
Refer: 35 79 N 1 0 0 1 60 0 3
Colour: ffffff
EndChar

StartChar: Oacute
Encoding: 211 211 119
Width: 1341
VWidth: 0
Flags: HMW
LayerCount: 3
Back
SplineSet
73 619 m 0
 73 1004 320 1272 718 1272 c 0
 1080 1272 1296 970 1296 619 c 0
 1296 274 1064 -27 649 -27 c 0
 304 -27 73 257 73 619 c 0
295 676 m 0
 295 382 410 79 698 79 c 0
 1002 79 1073 330 1073 573 c 0
 1073 856 957 1176 670 1176 c 0
 370 1176 295 937 295 676 c 0
574 1380 m 1
 696 1705 l 1
 808 1666 l 1
 624 1348 l 1
 574 1380 l 1
EndSplineSet
Fore
Refer: 97 180 S 1 0 0 1 843 -7 2
Refer: 35 79 N 1 0 0 1 60 0 3
Colour: ffffff
EndChar

StartChar: Ocircumflex
Encoding: 212 212 120
Width: 1341
VWidth: 0
Flags: HMW
LayerCount: 3
Back
SplineSet
61 619 m 0
 61 1004 308 1272 706 1272 c 0
 1068 1272 1284 970 1284 619 c 0
 1284 274 1051 -27 636 -27 c 0
 291 -27 61 257 61 619 c 0
283 676 m 0
 283 382 398 79 686 79 c 0
 990 79 1062 330 1062 573 c 0
 1062 856 945 1176 658 1176 c 0
 358 1176 283 937 283 676 c 0
484 1392 m 1
 652 1572 l 1
 707 1585 l 1
 885 1400 l 1
 836 1364 l 1
 672 1472 l 1
 662 1472 l 1
 522 1361 l 1
 484 1392 l 1
EndSplineSet
Fore
Refer: 211 710 S 1 0 0 1 721 1 2
Refer: 35 79 N 1 0 0 1 60 0 3
Colour: ffffff
EndChar

StartChar: Otilde
Encoding: 213 213 121
Width: 1341
VWidth: 0
Flags: HMW
LayerCount: 3
Back
SplineSet
61 619 m 0xcc
 61 1004 308 1272 706 1272 c 0
 1068 1272 1284 970 1284 619 c 0
 1284 274 1051 -27 636 -27 c 0
 291 -27 61 257 61 619 c 0xcc
283 676 m 0
 283 382 398 79 686 79 c 0
 990 79 1062 330 1062 573 c 0
 1062 856 945 1176 658 1176 c 0
 358 1176 283 937 283 676 c 0
448 1383 m 1
 448 1383 479 1526 568 1526 c 0
 572 1526 577 1527 581 1526 c 2xdc
 805 1496 l 1
 810 1496 l 2
 835 1496 866 1536 866 1536 c 1
 913 1535 l 1
 913 1535 875 1391 783 1391 c 0xec
 779 1391 775 1391 771 1392 c 2
 547 1423 l 1
 546 1423 l 2xdc
 518 1423 485 1376 485 1376 c 1
 448 1383 l 1
EndSplineSet
Fore
Refer: 192 732 S 1 0 0 1 654 -3 2
Refer: 35 79 N 1 0 0 1 60 0 3
Colour: ffffff
EndChar

StartChar: Odieresis
Encoding: 214 214 122
Width: 1341
VWidth: 0
Flags: HMW
LayerCount: 3
Back
SplineSet
61 619 m 0
 61 1004 308 1272 706 1272 c 0
 1068 1272 1284 970 1284 619 c 0
 1284 274 1051 -27 636 -27 c 0
 291 -27 61 257 61 619 c 0
283 676 m 0
 283 382 398 79 686 79 c 0
 990 79 1062 330 1062 573 c 0
 1062 856 945 1176 658 1176 c 0
 358 1176 283 937 283 676 c 0
463 1453 m 0
 463 1500 507 1530 547 1530 c 0
 591 1530 632 1499 632 1453 c 0
 632 1404 591 1373 547 1373 c 0
 504 1373 463 1404 463 1453 c 0
730 1453 m 0
 730 1500 774 1530 814 1530 c 0
 858 1530 902 1499 902 1453 c 0
 902 1404 858 1373 814 1373 c 0
 771 1373 730 1404 730 1453 c 0
EndSplineSet
Fore
Refer: 87 168 N 1 0 0 1 702 -19 2
Refer: 35 79 N 1 0 0 1 60 0 3
Colour: ffffff
EndChar

StartChar: Ugrave
Encoding: 217 217 123
Width: 1477
VWidth: 0
Flags: HMW
LayerCount: 3
Back
SplineSet
475 1659 m 1
 590 1697 l 1
 722 1364 l 1
 666 1329 l 1
 475 1659 l 1
37 1168 m 1
 50 1244 l 1
 592 1244 l 1
 583 1168 l 1
 414 1130 l 1
 414 510 l 2
 414 225 557 105 762 105 c 0
 964 105 1086 221 1087 482 c 2
 1090 1126 l 1
 907 1168 l 1
 917 1244 l 1
 1395 1244 l 1
 1384 1168 l 1
 1218 1130 l 1
 1213 515 l 2
 1210 155 1059 -27 712 -27 c 0
 481 -27 221 48 221 469 c 2
 221 1126 l 1
 37 1168 l 1
EndSplineSet
Fore
Refer: 52 96 S 1 0 0 1 761 6 2
Refer: 41 85 N 1 0 0 1 60 0 3
Colour: ffffff
EndChar

StartChar: Uacute
Encoding: 218 218 124
Width: 1477
VWidth: 0
Flags: HMW
LayerCount: 3
Back
SplineSet
633 1380 m 1
 756 1705 l 1
 867 1666 l 5
 684 1348 l 1
 633 1380 l 1
633 1380 m 1
 756 1705 l 1
 867 1666 l 5
 684 1348 l 1
 633 1380 l 1
37 1168 m 1
 50 1244 l 1
 592 1244 l 1
 583 1168 l 1
 414 1130 l 1
 414 510 l 2
 414 225 557 105 762 105 c 0
 964 105 1086 221 1087 482 c 2
 1090 1126 l 1
 907 1168 l 1
 917 1244 l 1
 1395 1244 l 1
 1384 1168 l 1
 1218 1130 l 1
 1213 515 l 2
 1210 155 1059 -27 712 -27 c 0
 481 -27 221 48 221 469 c 2
 221 1126 l 1
 37 1168 l 1
EndSplineSet
Fore
Refer: 97 180 S 1 0 0 1 878 -7 2
Refer: 41 85 N 1 0 0 1 60 0 3
Colour: ffffff
EndChar

StartChar: Ucircumflex
Encoding: 219 219 125
Width: 1477
VWidth: 0
Flags: HMW
LayerCount: 3
Back
SplineSet
22 1168 m 1
 35 1244 l 1
 577 1244 l 1
 568 1168 l 1
 399 1130 l 1
 399 510 l 2
 399 225 542 105 747 105 c 0
 949 105 1071 221 1072 482 c 2
 1075 1126 l 1
 892 1168 l 1
 902 1244 l 1
 1380 1244 l 1
 1369 1168 l 1
 1203 1130 l 1
 1198 515 l 2
 1195 155 1044 -27 697 -27 c 0
 466 -27 206 48 206 469 c 2
 206 1126 l 1
 22 1168 l 1
537 1392 m 1
 704 1572 l 1
 759 1585 l 1
 937 1400 l 1
 887 1364 l 1
 724 1472 l 1
 713 1472 l 1
 574 1361 l 1
 537 1392 l 1
EndSplineSet
Fore
Refer: 211 710 S 1 0 0 1 749 0 2
Refer: 41 85 N 1 0 0 1 60 0 3
Colour: ffffff
EndChar

StartChar: Udieresis
Encoding: 220 220 126
Width: 1477
VWidth: 0
Flags: HMW
LayerCount: 3
Back
SplineSet
22 1168 m 1
 35 1244 l 1
 577 1244 l 1
 568 1168 l 1
 399 1130 l 1
 399 510 l 2
 399 225 542 105 747 105 c 0
 949 105 1071 221 1072 482 c 2
 1075 1126 l 1
 892 1168 l 1
 902 1244 l 1
 1380 1244 l 1
 1369 1168 l 1
 1203 1130 l 1
 1198 515 l 2
 1195 155 1044 -27 697 -27 c 0
 466 -27 206 48 206 469 c 2
 206 1126 l 1
 22 1168 l 1
515 1453 m 0
 515 1500 558 1530 598 1530 c 0
 642 1530 684 1499 684 1453 c 0
 684 1404 642 1373 598 1373 c 0
 555 1373 515 1404 515 1453 c 0
782 1453 m 0
 782 1500 826 1530 866 1530 c 0
 910 1530 953 1499 953 1453 c 0
 953 1404 910 1373 866 1373 c 0
 823 1373 782 1404 782 1453 c 0
EndSplineSet
Fore
Refer: 87 168 S 1 0 0 1 761 -9 2
Refer: 41 85 N 1 0 0 1 60 0 3
Colour: ffffff
EndChar

StartChar: Yacute
Encoding: 221 221 127
Width: 1302
VWidth: 0
Flags: HMW
LayerCount: 3
Back
SplineSet
455 1380 m 1
 578 1705 l 1
 689 1666 l 5
 506 1348 l 1
 455 1380 l 1
-73 1168 m 1
 -60 1244 l 1
 448 1244 l 1
 436 1168 l 1
 278 1130 l 1
 555 640 l 1
 819 1126 l 1
 636 1168 l 1
 646 1244 l 1
 1091 1244 l 1
 1081 1168 l 1
 956 1130 l 1
 611 529 l 1
 611 114 l 1
 774 80 l 1
 764 0 l 1
 258 0 l 1
 268 74 l 1
 418 121 l 1
 418 504 l 1
 65 1126 l 1
 -73 1168 l 1
EndSplineSet
Fore
Refer: 97 180 N 1 0 0 1 790 -3 2
Refer: 45 89 N 1 0 0 1 60 0 3
Colour: ffffff
EndChar

StartChar: agrave
Encoding: 224 224 128
Width: 848
VWidth: 0
Flags: HMW
LayerCount: 3
Back
SplineSet
158 1291 m 1
 273 1329 l 1
 405 996 l 1
 349 961 l 1
 158 1291 l 1
28 168 m 4xba
 28 315 163 462 489 485 c 5
 489 540 l 6
 489 675 450 807 312 807 c 4
 216 807 215 756 201 592 c 5
 148 592 62 596 62 695 c 4
 62 804 266 900 404 900 c 4
 582 900 651 804 651 593 c 6
 651 230 l 6
 651 138 670 111 763 96 c 6
 813 87 l 5
 800 1 l 5x76
 753 -5 723 -18 664 -18 c 4
 548 -18 509 57 509 116 c 6
 509 131 l 5
 498 131 l 5
 471 78 388 -24 224 -24 c 4
 119 -24 28 46 28 168 c 4xba
203 215 m 4xba
 203 165 241 99 315 99 c 4
 385 99 456 151 489 188 c 5
 489 428 l 5
 271 385 203 311 203 215 c 4xba
EndSplineSet
Fore
Refer: 52 96 S 1 0 0 1 365 -384 2
Refer: 53 97 N 1 0 0 1 60 0 3
Colour: ffffff
EndChar

StartChar: aacute
Encoding: 225 225 129
Width: 848
VWidth: 0
Flags: HMW
LayerCount: 3
Back
SplineSet
47 168 m 0xba
 47 315 182 462 508 485 c 1
 508 540 l 2
 508 675 469 804 331 804 c 0
 235 804 235 716 220 592 c 1
 167 592 81 596 81 695 c 0
 81 804 285 900 423 900 c 0
 601 900 670 804 670 593 c 2
 670 230 l 2
 670 138 689 111 782 96 c 2
 832 87 l 1
 819 1 l 1x76
 772 -5 742 -18 683 -18 c 0
 567 -18 528 57 528 116 c 2
 528 131 l 1
 517 131 l 1
 490 78 407 -24 243 -24 c 0
 138 -24 47 46 47 168 c 0xba
222 215 m 0xba
 222 165 260 99 334 99 c 0
 404 99 475 151 508 188 c 1
 508 428 l 1
 290 385 222 311 222 215 c 0xba
328 1017 m 1
 451 1342 l 1
 562 1302 l 1
 380 985 l 1
 328 1017 l 1
EndSplineSet
Fore
Refer: 97 180 S 1 0 0 1 485 -393 2
Refer: 53 97 N 1 0 0 1 60 0 3
Colour: ffffff
EndChar

StartChar: acircumflex
Encoding: 226 226 130
Width: 848
VWidth: 0
Flags: HMW
LayerCount: 3
Back
SplineSet
47 168 m 0xba
 47 315 182 462 508 485 c 1
 508 540 l 2
 508 675 469 804 331 804 c 0
 235 804 235 716 220 592 c 1
 167 592 81 596 81 695 c 0
 81 804 285 900 423 900 c 0
 601 900 670 804 670 593 c 2
 670 230 l 2
 670 138 689 111 782 96 c 2
 832 87 l 1
 819 1 l 1x76
 772 -5 742 -18 683 -18 c 0
 567 -18 528 57 528 116 c 2
 528 131 l 1
 517 131 l 1
 490 78 407 -24 243 -24 c 0
 138 -24 47 46 47 168 c 0xba
211 1024 m 1
 380 1203 l 1
 434 1217 l 1
 611 1032 l 1
 562 995 l 1
 399 1104 l 1
 389 1104 l 1
 249 993 l 1
 211 1024 l 1
222 215 m 0xba
 222 165 260 99 334 99 c 0
 404 99 475 151 508 188 c 1
 508 428 l 1
 290 385 222 311 222 215 c 0xba
EndSplineSet
Fore
Refer: 211 710 S 1 0 0 1 303 -382 2
Refer: 53 97 N 1 0 0 1 60 0 3
Colour: ffffff
EndChar

StartChar: atilde
Encoding: 227 227 131
Width: 848
VWidth: 0
Flags: HMW
LayerCount: 3
Back
SplineSet
47 168 m 0xb280
 47 315 182 462 508 485 c 1
 508 540 l 2
 508 675 469 804 331 804 c 0
 235 804 235 716 220 592 c 1
 167 592 81 596 81 695 c 0
 81 804 285 900 423 900 c 0
 601 900 670 804 670 593 c 2
 670 230 l 2
 670 138 689 111 782 96 c 2
 832 87 l 1
 819 1 l 1x7180
 772 -5 742 -18 683 -18 c 0
 567 -18 528 57 528 116 c 2
 528 131 l 1
 517 131 l 1
 490 78 407 -24 243 -24 c 0
 138 -24 47 46 47 168 c 0xb280
175 1015 m 1
 175 1015 207 1158 296 1158 c 0x3480
 300 1158 305 1158 309 1157 c 2
 532 1127 l 1
 537 1127 l 2
 562 1127 592 1169 592 1169 c 1
 640 1167 l 1
 640 1167 602 1023 510 1023 c 0x3880
 506 1023 501 1023 497 1024 c 2
 275 1054 l 1
 271 1054 l 2x3480
 243 1054 212 1007 212 1007 c 1
 175 1015 l 1
222 215 m 0xb280
 222 165 260 99 334 99 c 0
 404 99 475 151 508 188 c 1
 508 428 l 1
 290 385 222 311 222 215 c 0xb280
EndSplineSet
Fore
Refer: 192 732 S 1 0 0 1 286 -395 2
Refer: 53 97 N 1 0 0 1 60 0 3
Colour: ffffff
EndChar

StartChar: adieresis
Encoding: 228 228 132
Width: 848
VWidth: 0
Flags: HMW
LayerCount: 3
Back
SplineSet
47 168 m 0xbc40
 47 315 182 462 508 485 c 1
 508 540 l 2
 508 675 469 804 331 804 c 0
 235 804 235 716 220 592 c 1
 167 592 81 596 81 695 c 0
 81 804 285 900 423 900 c 0
 601 900 670 804 670 593 c 2
 670 230 l 2
 670 138 689 111 782 96 c 2
 832 87 l 1
 819 1 l 1x7a40
 772 -5 742 -18 683 -18 c 0
 567 -18 528 57 528 116 c 2
 528 131 l 1
 517 131 l 1
 490 78 407 -24 243 -24 c 0
 138 -24 47 46 47 168 c 0xbc40
189 1084 m 0x39
 189 1131 233 1163 273 1163 c 0
 317 1163 359 1130 359 1084 c 0
 359 1035 317 1004 273 1004 c 0
 230 1004 189 1035 189 1084 c 0x39
222 215 m 0xbc40
 222 165 260 99 334 99 c 0
 404 99 475 151 508 188 c 1
 508 428 l 1
 290 385 222 311 222 215 c 0xbc40
457 1084 m 0x3880
 457 1131 500 1163 540 1163 c 0
 584 1163 628 1130 628 1084 c 0
 628 1035 584 1004 540 1004 c 0
 497 1004 457 1035 457 1084 c 0x3880
EndSplineSet
Fore
Refer: 87 168 S 1 0 0 1 306 -409 2
Refer: 53 97 N 1 0 0 1 60 0 3
Colour: ffffff
EndChar

StartChar: aring
Encoding: 229 229 133
Width: 848
VWidth: 0
Flags: HMW
LayerCount: 3
Back
SplineSet
47 168 m 0xbea0
 47 315 182 462 508 485 c 1
 508 540 l 2
 508 675 469 804 331 804 c 0
 235 804 235 716 220 592 c 1
 167 592 81 596 81 695 c 0
 81 804 285 900 423 900 c 0
 601 900 670 804 670 593 c 2
 670 230 l 2
 670 138 689 111 782 96 c 2
 832 87 l 1
 819 1 l 1x7da0
 772 -5 742 -18 683 -18 c 0
 567 -18 528 57 528 116 c 2
 528 131 l 1
 517 131 l 1
 490 78 407 -24 243 -24 c 0
 138 -24 47 46 47 168 c 0xbea0
222 215 m 0xbea0
 222 165 260 99 334 99 c 0
 404 99 475 151 508 188 c 1
 508 428 l 1
 290 385 222 311 222 215 c 0xbea0
228 1167 m 0
 228 1259 303 1338 396 1338 c 0
 492 1338 551 1270 551 1177 c 0x3cc0
 551 1087 485 1002 383 1002 c 0
 291 1002 228 1065 228 1167 c 0
298 1178 m 0
 298 1117 330 1050 394 1050 c 0
 448 1050 480 1091 480 1164 c 0
 480 1226 446 1291 384 1291 c 0
 325 1291 298 1234 298 1178 c 0
EndSplineSet
Fore
Refer: 191 730 S 1 0 0 1 399 -387 2
Refer: 53 97 N 1 0 0 1 60 0 3
Colour: ffffff
EndChar

StartChar: ccedilla
Encoding: 231 231 134
Width: 741
VWidth: 0
Flags: HMW
LayerCount: 3
Back
SplineSet
54 415 m 0
 54 712 260 900 477 900 c 0
 644 900 719 826 719 747 c 0
 719 688 675 648 592 642 c 1
 564 709 517 806 430 806 c 0
 311 806 233 688 233 507 c 0
 233 340 322 90 530 90 c 0
 629 90 685 121 732 151 c 1
 758 93 l 1
 712 36 608 -17 495 -28 c 1
 461 -76 l 1
 498 -109 550 -160 550 -227 c 0
 550 -306 467 -355 351 -389 c 1
 331 -331 l 1
 388 -312 417 -278 417 -248 c 0
 417 -214 380 -172 344 -138 c 1
 419 -28 l 1
 195 -13 54 185 54 415 c 0
EndSplineSet
Fore
Refer: 98 184 S 1 0 0 1 256 -10 2
Refer: 55 99 N 1 0 0 1 60 0 3
Colour: ffffff
EndChar

StartChar: egrave
Encoding: 232 232 135
Width: 717
VWidth: 0
Flags: HMW
LayerCount: 3
Back
SplineSet
205 1291 m 1
 320 1329 l 1
 452 996 l 1
 396 961 l 1
 205 1291 l 1
45 428 m 0
 45 728 262 899 456 899 c 0
 601 899 723 792 723 581 c 0
 723 550 715 485 707 451 c 1
 223 445 l 1
 231 288 315 102 502 102 c 0
 574.547 102 626.143 101.457 729 157 c 1
 750 104 l 1
 671 21 553 -30 421 -30 c 0
 233 -30 45 124 45 428 c 0
225 523 m 1
 539 546 l 1
 543 562 545 599 545 615 c 0
 545 734 503 801 407 801 c 0
 327 801 235 717 225 523 c 1
EndSplineSet
Fore
Refer: 52 96 S 1 0 0 1 237 -384 2
Refer: 57 101 N 1 0 0 1 60 0 3
Colour: ffffff
EndChar

StartChar: eacute
Encoding: 233 233 136
Width: 717
VWidth: 0
Flags: HMW
LayerCount: 3
Back
SplineSet
363 1012 m 1
 486 1337 l 1
 597 1298 l 5
 414 980 l 1
 363 1012 l 1
45 428 m 0
 45 728 262 899 456 899 c 0
 601 899 723 792 723 581 c 0
 723 550 715 485 707 451 c 1
 223 445 l 1
 231 288 315 102 502 102 c 0
 574.547 102 626.143 101.457 729 157 c 1
 750 104 l 1
 671 21 553 -30 421 -30 c 0
 233 -30 45 124 45 428 c 0
225 523 m 1
 539 546 l 1
 543 562 545 599 545 615 c 0
 545 734 503 801 407 801 c 0
 327 801 235 717 225 523 c 1
EndSplineSet
Fore
Refer: 97 180 S 1 0 0 1 362 -393 2
Refer: 57 101 N 1 0 0 1 60 0 3
Colour: ffffff
EndChar

StartChar: ecircumflex
Encoding: 234 234 137
Width: 717
VWidth: 0
Flags: HMW
LayerCount: 3
Back
SplineSet
53 428 m 0
 53 728 270 899 464 899 c 0
 609 899 731 792 731 581 c 0
 731 550 723 485 715 451 c 1
 231 445 l 1
 239 288 323 102 510 102 c 2
 516 102 l 2
 583 102 637 103 737 157 c 1
 758 104 l 1
 679 21 561 -30 429 -30 c 0
 241 -30 53 124 53 428 c 0
233 523 m 1
 547 546 l 1
 551 562 553 599 553 615 c 0
 553 734 511 801 415 801 c 0
 335 801 243 717 233 523 c 1
233 1024 m 1
 402 1203 l 1
 457 1217 l 1
 633 1032 l 1
 585 995 l 1
 421 1104 l 1
 411 1104 l 1
 271 993 l 1
 233 1024 l 1
EndSplineSet
Fore
Refer: 211 710 S 1 0 0 1 220 -382 2
Refer: 57 101 N 1 0 0 1 60 0 3
Colour: ffffff
EndChar

StartChar: edieresis
Encoding: 235 235 138
Width: 717
VWidth: 0
Flags: HMW
LayerCount: 3
Back
SplineSet
53 428 m 0xf2
 53 728 270 899 464 899 c 0
 609 899 731 792 731 581 c 0
 731 550 723 485 715 451 c 1
 231 445 l 1
 239 288 323 102 510 102 c 2
 516 102 l 2
 583 102 637 103 737 157 c 1
 758 104 l 1
 679 21 561 -30 429 -30 c 0
 241 -30 53 124 53 428 c 0xf2
211 1084 m 0xe8
 211 1131 255 1163 295 1163 c 0
 339 1163 381 1130 381 1084 c 0
 381 1035 339 1004 295 1004 c 0
 252 1004 211 1035 211 1084 c 0xe8
233 523 m 1
 547 546 l 1
 551 562 553 599 553 615 c 0xe2
 553 734 511 801 415 801 c 0
 335 801 243 717 233 523 c 1
479 1084 m 0xe4
 479 1131 522 1163 562 1163 c 0
 606 1163 650 1130 650 1084 c 0
 650 1035 606 1004 562 1004 c 0
 519 1004 479 1035 479 1084 c 0xe4
EndSplineSet
Fore
Refer: 87 168 S 1 0 0 1 203 -409 2
Refer: 57 101 N 1 0 0 1 60 0 3
Colour: ffffff
EndChar

StartChar: igrave
Encoding: 236 236 139
Width: 471
VWidth: 0
Flags: HMW
LayerCount: 3
Back
SplineSet
18 1291 m 1
 133 1329 l 1
 265 996 l 1
 209 961 l 1
 18 1291 l 1
25 0 m 1
 37 79 l 1
 188 116 l 1
 188 731 l 1
 37 786 l 1
 50 862 l 1
 331 885 l 1
 356 860 l 1
 356 116 l 1
 516 80 l 1
 505 0 l 1
 25 0 l 1
EndSplineSet
Fore
SplineSet
102 833 m 17
 137.693 847.636 179.196 856 229 856 c 0
 318.386 856 336.875 813.759 315 663 c 2
 278 378 l 2
 262 253 249.738 174.242 249.738 124.62 c 0
 249.738 47 319 53.9385 399 60 c 1
 393 7 l 1
 369.348 -4.25 323.674 -17 278 -17 c 3
 162.9 -17 140 43 160 194 c 2
 226 694 l 2
 240.358 796.248 175 788 95 778 c 9
 102 833 l 17
EndSplineSet
Refer: 52 96 S 1 0 0 1 -0.3806 -386.128 2
Colour: ffffff
EndChar

StartChar: iacute
Encoding: 237 237 140
Width: 471
VWidth: 0
Flags: HMW
LayerCount: 3
Back
SplineSet
37 0 m 1
 49 79 l 1
 200 116 l 1
 200 731 l 1
 49 786 l 1
 62 862 l 1
 343 885 l 1
 368 860 l 1
 368 116 l 1
 528 80 l 1
 517 0 l 1
 37 0 l 1
193 1041 m 1
 314 1367 l 1
 427 1327 l 1
 243 1010 l 1
 193 1041 l 1
EndSplineSet
Fore
SplineSet
102 833 m 17
 137.693 847.636 179.196 856 229 856 c 0
 318.386 856 336.875 813.759 315 663 c 2
 278 378 l 2
 262 253 249.738 174.242 249.738 124.62 c 0
 249.738 47 319 53.9385 399 60 c 1
 393 7 l 1
 369.348 -4.25 323.674 -17 278 -17 c 3
 162.9 -17 140 43 160 194 c 2
 226 694 l 2
 240.358 796.248 175 788 95 778 c 9
 102 833 l 17
EndSplineSet
Refer: 97 180 S 1 0 0 1 144.619 -394.128 2
Colour: ffffff
EndChar

StartChar: icircumflex
Encoding: 238 238 141
Width: 471
VWidth: 0
Flags: HMW
LayerCount: 3
Back
SplineSet
37 0 m 1
 49 79 l 1
 200 116 l 1
 200 731 l 1
 49 786 l 1
 62 862 l 1
 343 885 l 1
 368 860 l 1
 368 116 l 1
 528 80 l 1
 517 0 l 1
 37 0 l 1
76 1048 m 1
 243 1228 l 1
 298 1241 l 1
 476 1057 l 1
 427 1019 l 1
 263 1130 l 1
 253 1130 l 1
 113 1019 l 1
 76 1048 l 1
EndSplineSet
Fore
SplineSet
102 833 m 17
 137.693 847.636 179.196 856 229 856 c 0
 318.386 856 336.875 813.759 315 663 c 2
 278 378 l 2
 262 253 249.738 174.242 249.738 124.62 c 0
 249.738 47 319 53.9385 399 60 c 1
 393 7 l 1
 369.348 -4.25 323.674 -17 278 -17 c 3
 162.9 -17 140 43 160 194 c 2
 226 694 l 2
 240.358 796.248 175 788 95 778 c 9
 102 833 l 17
EndSplineSet
Refer: 211 710 S 1 0 0 1 -23.4955 -378.128 2
Colour: ffffff
EndChar

StartChar: idieresis
Encoding: 239 239 142
Width: 471
VWidth: 0
Flags: HMW
LayerCount: 3
Back
SplineSet
37 0 m 1xd0
 49 79 l 1
 200 116 l 1
 200 731 l 1
 49 786 l 1
 62 862 l 1
 343 885 l 1
 368 860 l 1
 368 116 l 1
 528 80 l 1
 517 0 l 1
 37 0 l 1xd0
54 1109 m 0xe0
 54 1156 98 1186 138 1186 c 0
 182 1186 223 1155 223 1109 c 0
 223 1060 182 1028 138 1028 c 0
 95 1028 54 1060 54 1109 c 0xe0
321 1109 m 0xc8
 321 1156 366 1186 406 1186 c 0
 450 1186 494 1155 494 1109 c 0
 494 1060 450 1028 406 1028 c 0
 363 1028 321 1060 321 1109 c 0xc8
EndSplineSet
Fore
SplineSet
102 833 m 17
 137.693 847.636 179.196 856 229 856 c 0
 318.386 856 336.875 813.759 315 663 c 2
 278 378 l 2
 262 253 249.738 174.242 249.738 124.62 c 0
 249.738 47 319 53.9385 399 60 c 1
 393 7 l 1
 369.348 -4.25 323.674 -17 278 -17 c 3
 162.9 -17 140 43 160 194 c 2
 226 694 l 2
 240.358 796.248 175 788 95 778 c 9
 102 833 l 17
EndSplineSet
Refer: 87 168 S 1 0 0 1 0.948502 -405.128 2
Colour: ffffff
EndChar

StartChar: ntilde
Encoding: 241 241 143
Width: 944
VWidth: 0
Flags: HMW
LayerCount: 3
Back
SplineSet
37 0 m 1xcc
 47 73 l 1
 198 114 l 1
 198 721 l 1
 44 773 l 1
 54 849 l 1
 352 888 l 1
 369 869 l 1
 352 741 l 1
 362 741 l 1
 429 821 537 899 663 899 c 0
 820 899 904 794 904 616 c 2
 904 114 l 1
 1048 79 l 1
 1038 0 l 1
 589 0 l 1
 599 73 l 1
 737 114 l 1
 737 577 l 2
 737 706 662 761 563 761 c 0
 490 761 416 731 366 675 c 1
 366 114 l 1
 515 79 l 1
 501 0 l 1
 37 0 l 1xcc
302 1015 m 1
 302 1015 335 1158 424 1158 c 0xdc
 428 1158 434 1158 438 1157 c 2
 660 1127 l 1
 664 1127 l 2
 689 1127 721 1169 721 1169 c 1
 768 1167 l 1
 768 1167 730 1023 638 1023 c 0xec
 634 1023 630 1023 626 1024 c 2
 402 1054 l 1
 400 1054 l 2xdc
 372 1054 341 1007 341 1007 c 1
 302 1015 l 1
EndSplineSet
Fore
Refer: 192 732 S 1 0 0 1 274 -395 2
Refer: 66 110 N 1 0 0 1 60 0 3
Colour: ffffff
EndChar

StartChar: ograve
Encoding: 242 242 144
Width: 843
VWidth: 0
Flags: HMW
LayerCount: 3
Back
SplineSet
52 426 m 0
 52 730 264 903 487 903 c 0
 733 903 882 716 882 441 c 0
 882 162 696 -27 463 -27 c 0
 199 -27 52 169 52 426 c 0
230 497 m 0
 230 291 300 70 497 70 c 0
 638 70 704 218 704 359 c 0
 704 557 635 798 445 798 c 0
 294 798 230 654 230 497 c 0
314 1296 m 1
 430 1334 l 1
 562 1000 l 1
 504 965 l 1
 314 1296 l 1
EndSplineSet
Fore
Refer: 52 96 N 1 0 0 1 277 -382 2
Refer: 67 111 N 1 0 0 1 60 0 3
Colour: ffffff
EndChar

StartChar: oacute
Encoding: 243 243 145
Width: 843
VWidth: 0
Flags: HMW
LayerCount: 3
Back
SplineSet
52 426 m 0
 52 730 264 903 487 903 c 0
 733 903 882 716 882 441 c 0
 882 162 696 -27 463 -27 c 0
 199 -27 52 169 52 426 c 0
230 497 m 0
 230 291 300 70 497 70 c 0
 638 70 704 218 704 359 c 0
 704 557 635 798 445 798 c 0
 294 798 230 654 230 497 c 0
389 1017 m 1
 512 1342 l 1
 623 1302 l 1
 440 985 l 1
 389 1017 l 1
EndSplineSet
Fore
Refer: 97 180 S 1 0 0 1 396 -393 2
Refer: 67 111 N 1 0 0 1 60 0 3
Colour: ffffff
EndChar

StartChar: ocircumflex
Encoding: 244 244 146
Width: 843
VWidth: 0
Flags: HMW
LayerCount: 3
Back
SplineSet
52 426 m 0
 52 730 264 903 487 903 c 0
 733 903 882 716 882 441 c 0
 882 162 696 -27 463 -27 c 0
 199 -27 52 169 52 426 c 0
230 497 m 0
 230 291 300 70 497 70 c 0
 638 70 704 218 704 359 c 0
 704 557 635 798 445 798 c 0
 294 798 230 654 230 497 c 0
271 1024 m 1
 440 1203 l 1
 495 1217 l 1
 673 1032 l 1
 623 995 l 1
 460 1104 l 1
 449 1104 l 1
 310 993 l 1
 271 1024 l 1
EndSplineSet
Fore
Refer: 211 710 N 1 0 0 1 274 -392 2
Refer: 67 111 N 1 0 0 1 60 0 3
Colour: ffffff
EndChar

StartChar: otilde
Encoding: 245 245 147
Width: 843
VWidth: 0
Flags: HMW
LayerCount: 3
Back
SplineSet
52 426 m 0xcc
 52 730 264 903 487 903 c 0
 733 903 882 716 882 441 c 0
 882 162 696 -27 463 -27 c 0
 199 -27 52 169 52 426 c 0xcc
230 497 m 0
 230 291 300 70 497 70 c 0
 638 70 704 218 704 359 c 0
 704 557 635 798 445 798 c 0
 294 798 230 654 230 497 c 0
236 1015 m 1
 236 1015 268 1158 357 1158 c 0xdc
 361 1158 367 1158 371 1157 c 2
 594 1127 l 1
 598 1127 l 2
 623 1127 653 1169 653 1169 c 1
 701 1167 l 1
 701 1167 664 1023 572 1023 c 0xec
 568 1023 563 1023 559 1024 c 2
 337 1054 l 1
 334 1054 l 2xdc
 306 1054 274 1007 274 1007 c 1
 236 1015 l 1
EndSplineSet
Fore
Refer: 192 732 S 1 0 0 1 287 -355 2
Refer: 67 111 N 1 0 0 1 60 0 3
Colour: ffffff
EndChar

StartChar: odieresis
Encoding: 246 246 148
Width: 843
VWidth: 0
Flags: HMW
LayerCount: 3
Back
SplineSet
52 426 m 0
 52 730 264 903 487 903 c 0
 733 903 882 716 882 441 c 0
 882 162 696 -27 463 -27 c 0
 199 -27 52 169 52 426 c 0
230 497 m 0
 230 291 300 70 497 70 c 0
 638 70 704 218 704 359 c 0
 704 557 635 798 445 798 c 0
 294 798 230 654 230 497 c 0
251 1084 m 0
 251 1131 294 1163 334 1163 c 0
 378 1163 420 1130 420 1084 c 0
 420 1035 378 1004 334 1004 c 0
 291 1004 251 1035 251 1084 c 0
518 1084 m 0
 518 1131 562 1163 602 1163 c 0
 646 1163 690 1130 690 1084 c 0
 690 1035 646 1004 602 1004 c 0
 559 1004 518 1035 518 1084 c 0
EndSplineSet
Fore
Refer: 87 168 S 1 0 0 1 256 -409 2
Refer: 67 111 N 1 0 0 1 60 0 3
Colour: ffffff
EndChar

StartChar: ugrave
Encoding: 249 249 149
Width: 941
VWidth: 0
Flags: HMW
LayerCount: 3
Back
SplineSet
19 783 m 1xb8
 33 862 l 1
 301 883 l 1
 326 859 l 1
 326 317 l 2
 326 166 390 114 480 114 c 0xb8
 570 114 623 147 666 191 c 1
 666 722 l 1
 507 764 l 1
 517 856 l 1
 811 883 l 1
 832 859 l 1
 832 215 l 2
 832 115 874 104 940 89 c 2
 986 79 l 1
 977 -4 l 1x78
 915 -19 885 -23 826 -23 c 0
 726 -23 679 39 679 122 c 2
 679 131 l 1
 666 131 l 1
 596 29 501 -23 380 -23 c 0
 251 -23 157 52 157 267 c 2
 157 728 l 1
 19 783 l 1xb8
342 1296 m 1
 458 1334 l 1
 589 1000 l 1
 532 965 l 1
 342 1296 l 1
EndSplineSet
Fore
Refer: 52 96 S 1 0 0 1 289 -384 2
Refer: 73 117 N 1 0 0 1 60 0 3
Colour: ffffff
EndChar

StartChar: uacute
Encoding: 250 250 150
Width: 941
VWidth: 0
Flags: HMW
LayerCount: 3
Back
SplineSet
19 783 m 1xb8
 33 862 l 1
 301 883 l 1
 326 859 l 1
 326 317 l 2
 326 166 390 114 480 114 c 0xb8
 570 114 623 147 666 191 c 1
 666 722 l 1
 507 764 l 1
 517 856 l 1
 811 883 l 1
 832 859 l 1
 832 215 l 2
 832 115 874 104 940 89 c 2
 986 79 l 1
 977 -4 l 1x78
 915 -19 885 -23 826 -23 c 0
 726 -23 679 39 679 122 c 2
 679 131 l 1
 666 131 l 1
 596 29 501 -23 380 -23 c 0
 251 -23 157 52 157 267 c 2
 157 728 l 1
 19 783 l 1xb8
415 1017 m 1
 538 1342 l 1
 650 1302 l 1
 467 985 l 1
 415 1017 l 1
EndSplineSet
Fore
Refer: 97 180 N 1 0 0 1 439 -393 2
Refer: 73 117 N 1 0 0 1 60 0 3
Colour: ffffff
EndChar

StartChar: ucircumflex
Encoding: 251 251 151
Width: 941
VWidth: 0
Flags: HMW
LayerCount: 3
Back
SplineSet
19 783 m 1xb8
 33 862 l 1
 301 883 l 1
 326 859 l 1
 326 317 l 2
 326 166 390 114 480 114 c 0xb8
 570 114 623 147 666 191 c 1
 666 722 l 1
 507 764 l 1
 517 856 l 1
 811 883 l 1
 832 859 l 1
 832 215 l 2
 832 115 874 104 940 89 c 2
 986 79 l 1
 977 -4 l 1x78
 915 -19 885 -23 826 -23 c 0
 726 -23 679 39 679 122 c 2
 679 131 l 1
 666 131 l 1
 596 29 501 -23 380 -23 c 0
 251 -23 157 52 157 267 c 2
 157 728 l 1
 19 783 l 1xb8
299 1024 m 1
 467 1203 l 1
 522 1217 l 1
 700 1032 l 1
 650 995 l 1
 487 1104 l 1
 477 1104 l 1
 338 993 l 1
 299 1024 l 1
EndSplineSet
Fore
Refer: 211 710 S 1 0 0 1 301 -382 2
Refer: 73 117 N 1 0 0 1 60 0 3
Colour: ffffff
EndChar

StartChar: udieresis
Encoding: 252 252 152
Width: 941
VWidth: 0
Flags: HMW
LayerCount: 3
Back
SplineSet
19 783 m 1xb9
 33 862 l 1
 301 883 l 1
 326 859 l 1
 326 317 l 2
 326 166 390 114 480 114 c 0xb9
 570 114 623 147 666 191 c 1
 666 722 l 1
 507 764 l 1
 517 856 l 1
 811 883 l 1
 832 859 l 1
 832 215 l 2
 832 115 874 104 940 89 c 2
 986 79 l 1
 977 -4 l 1x79
 915 -19 885 -23 826 -23 c 0
 726 -23 679 39 679 122 c 2
 679 131 l 1
 666 131 l 1
 596 29 501 -23 380 -23 c 0
 251 -23 157 52 157 267 c 2
 157 728 l 1
 19 783 l 1xb9
279 1084 m 0x34
 279 1131 322 1163 362 1163 c 0
 406 1163 448 1130 448 1084 c 0
 448 1035 406 1004 362 1004 c 0
 319 1004 279 1035 279 1084 c 0x34
546 1084 m 0x32
 546 1131 589 1163 629 1163 c 0
 673 1163 717 1130 717 1084 c 0
 717 1035 673 1004 629 1004 c 0
 586 1004 546 1035 546 1084 c 0x32
EndSplineSet
Fore
Refer: 87 168 S 1 0 0 1 307 -409 2
Refer: 73 117 N 1 0 0 1 60 0 3
Colour: ffffff
EndChar

StartChar: yacute
Encoding: 253 253 153
Width: 907
VWidth: 0
Flags: HMW
LayerCount: 3
Back
SplineSet
408 1012 m 1
 531 1337 l 1
 642 1298 l 5
 459 980 l 1
 408 1012 l 1
2 -261 m 0
 2 -221 12 -181 58 -141 c 1
 112 -178 156 -194 209 -194 c 0
 258 -194 326 -183 380 -49 c 2
 400 0 l 1
 115 758 l 1
 -9 796 l 1
 2 873 l 1
 422 873 l 1
 413 799 l 1
 286 761 l 1
 490 222 l 1
 706 756 l 1
 575 798 l 1
 589 873 l 1
 931 873 l 1
 924 799 l 1
 823 758 l 1
 492 -53 l 2
 388 -309 307 -380 156 -380 c 0
 64 -380 2 -318 2 -261 c 0
EndSplineSet
Fore
Refer: 97 180 S 1 0 0 1 484.369 -393 2
Refer: 77 121 N 1 0 0 1 60 0 3
Colour: ffffff
EndChar

StartChar: ydieresis
Encoding: 255 255 154
Width: 907
VWidth: 0
Flags: HMW
LayerCount: 3
Back
SplineSet
255 1097 m 0
 255 1144 300 1174 340 1174 c 0
 384 1174 426 1143 426 1097 c 0
 426 1048 384 1015 340 1015 c 0
 297 1015 255 1048 255 1097 c 0
523 1097 m 0
 523 1144 568 1174 608 1174 c 0
 652 1174 695 1143 695 1097 c 0
 695 1048 652 1015 608 1015 c 0
 565 1015 523 1048 523 1097 c 0
2 -261 m 0
 2 -221 12 -181 58 -141 c 1
 112 -178 156 -194 209 -194 c 0
 258 -194 326 -183 380 -49 c 2
 400 0 l 1
 115 758 l 1
 -9 796 l 1
 2 873 l 1
 422 873 l 1
 413 799 l 1
 286 761 l 1
 490 222 l 1
 706 756 l 1
 575 798 l 1
 589 873 l 1
 931 873 l 1
 924 799 l 1
 823 758 l 1
 492 -53 l 2
 388 -309 307 -380 156 -380 c 0
 64 -380 2 -318 2 -261 c 0
EndSplineSet
Fore
Refer: 87 168 S 1 0 0 1 336.369 -409 2
Refer: 77 121 N 1 0 0 1 60 0 3
Colour: ffffff
EndChar

StartChar: zero
Encoding: 48 48 155
Width: 2048
VWidth: 1651
LayerCount: 3
Back
SplineSet
67 586 m 0
 67 1017 271 1203 492 1203 c 0
 732 1203 900 1020 900 586 c 0
 900 110 685 -27 487 -27 c 0
 263 -27 67 94 67 586 c 0
283 583 m 0
 283 236 321 70 492 70 c 0
 639 70 683 235 683 586 c 0
 683 928 644 1098 485 1098 c 0
 323 1098 283 926 283 583 c 0
EndSplineSet
EndChar

StartChar: one
Encoding: 49 49 156
Width: 2048
VWidth: 1651
LayerCount: 3
Back
SplineSet
40 0 m 5
 47 74 l 5
 311 121 l 5
 311 1031 l 5
 61 1031 l 5
 67 1108 l 5
 488 1185 l 5
 515 1185 l 5
 515 114 l 5
 777 83 l 5
 767 0 l 5
 40 0 l 5
EndSplineSet
EndChar

StartChar: two
Encoding: 50 50 157
Width: 2048
VWidth: 1651
LayerCount: 3
Back
SplineSet
40 102 m 1
 275 299 l 2
 454 448 603 618 603 820 c 0
 603 958 577 1105 415 1105 c 0
 331 1105 260 1052 235 987 c 1
 198 726 l 1
 121 736 l 1
 94 1020 l 1
 152 1120 340 1209 483 1209 c 0
 701 1209 826 1084 826 866 c 0
 826 583 513 343 321 205 c 2
 246 151 l 1
 700 151 l 1
 804 368 l 1
 874 358 l 1
 826 0 l 1
 46 0 l 1
 40 102 l 1
EndSplineSet
EndChar

StartChar: three
Encoding: 51 51 158
Width: 2048
VWidth: 1651
LayerCount: 3
Back
SplineSet
37 74 m 1xe8
 88 373 l 1
 173 360 l 1
 186 157 l 1
 209 115 279 72 349 72 c 0
 505 72 597 148 597 297 c 0xe8
 597 423 463 545 266 545 c 1
 256 611 l 1
 338 637 556 742 556 918 c 0
 556 1018 495 1124 371 1124 c 0
 317 1124 263 1101 227 1068 c 1
 181 812 l 1
 96 823 l 1
 78 1090 l 1
 122 1138 284 1213 429 1213 c 0
 619 1213 768 1125 768 960 c 0xf0
 768 798 604 693 483 649 c 1
 483 637 l 1
 661 613 813 522 813 357 c 0
 813 139 592 -30 328 -30 c 0
 194 -30 65 29 37 74 c 1xe8
EndSplineSet
EndChar

StartChar: seven
Encoding: 55 55 159
Width: 2048
VWidth: 1651
LayerCount: 3
Back
SplineSet
5 809 m 1
 29 1182 l 1
 817 1182 l 1
 817 1130 l 1
 380 -33 l 1
 173 -11 l 1
 662 1015 l 1
 149 1015 l 1
 74 796 l 1
 5 809 l 1
EndSplineSet
EndChar

StartChar: four
Encoding: 52 52 160
Width: 2048
VWidth: 1651
LayerCount: 3
Back
SplineSet
-21 431 m 1
 621 1194 l 1
 686 1176 l 1
 680 1057 676 864 676 683 c 2
 676 479 l 1
 931 479 l 1
 915 346 l 1
 676 346 l 1
 676 105 l 1
 865 73 l 1
 855 0 l 1
 274 0 l 1
 281 66 l 1
 496 111 l 1
 496 349 l 1
 2 349 l 1
 -21 431 l 1
164 479 m 1
 493 479 l 1
 493 912 l 1
 164 479 l 1
EndSplineSet
EndChar

StartChar: five
Encoding: 53 53 161
Width: 2048
VWidth: 1651
LayerCount: 3
Back
SplineSet
-19 74 m 1
 7 387 l 1
 92 368 l 1
 113 155 l 1
 153 93 222 67 304 67 c 0
 431 67 513 156 513 290 c 0
 513 494 357 582 57 602 c 1
 176 1169 l 1
 645 1198 l 1
 619 1016 l 1
 232 1000 l 1
 196 762 l 1
 582 740 689 564 689 354 c 0
 689 156 505 -25 260 -25 c 0
 151 -25 55 -3 -19 74 c 1
EndSplineSet
EndChar

StartChar: eight
Encoding: 56 56 162
Width: 2048
VWidth: 1651
LayerCount: 3
Back
SplineSet
54 280 m 0xe4
 54 393 127 482 287 575 c 1
 287 584 l 1
 191 648 100 732 100 879 c 0
 100 1047 257 1201 451 1201 c 0
 641 1201 770 1077 770 926 c 0xd8
 770 809 680 679 567 639 c 1
 564 629 l 1
 712 521 798 449 798 300 c 0
 798 116 662 -27 396 -27 c 0
 212 -27 54 89 54 280 c 0xe4
243 304 m 0xe4
 243 142 352 61 461 61 c 0
 556 61 628 115 628 236 c 0
 628 349 473 459 354 533 c 1
 288 474 243 442 243 304 c 0xe4
266 955 m 0xd8
 266 862 352 761 497 678 c 1
 571 721 601 771 601 890 c 0
 601 1031 531 1124 426 1124 c 0
 312 1124 266 1035 266 955 c 0xd8
EndSplineSet
EndChar

StartChar: six
Encoding: 54 54 163
Width: 2048
VWidth: 1651
LayerCount: 3
Back
SplineSet
59 421 m 0
 59 756 352 1112 666 1214 c 1
 703 1155 l 1
 442 1036 312 807 272 609 c 1
 283 609 l 1
 327 659 410 709 518 709 c 0
 712 709 849 589 849 370 c 0
 849 133 659 -21 442 -21 c 0
 171 -21 59 187 59 421 c 0
262 406 m 0
 262 235 327 61 449 61 c 0
 611 61 644 174 644 328 c 0
 644 463 587 606 445 606 c 0
 371 606 293 563 269 527 c 1
 266 494 262 440 262 406 c 0
EndSplineSet
EndChar

StartChar: nine
Encoding: 57 57 164
Width: 2048
VWidth: 1651
LayerCount: 3
Back
SplineSet
40 802 m 0
 40 1046 241 1211 432 1211 c 0
 695 1211 813 998 813 764 c 0
 813 365 574 39 198 -27 c 1
 175 47 l 1
 503 144 578 331 597 575 c 1
 584 575 l 1
 518 502 432 466 340 466 c 0
 149 466 40 585 40 802 c 0
240 845 m 0
 240 710 287 575 429 575 c 0
 499 575 569 612 600 662 c 1
 608 708 609 766 609 806 c 0
 609 970 542 1130 426 1130 c 0
 278 1130 240 1023 240 845 c 0
EndSplineSet
EndChar

StartChar: zero
Encoding: 48 48 165
Width: 1010
VWidth: 0
Flags: HMW
LayerCount: 3
Back
SplineSet
67 586 m 0
 67 1017 271 1203 492 1203 c 0
 732 1203 900 1020 900 586 c 0
 900 110 685 -27 487 -27 c 0
 263 -27 67 94 67 586 c 0
283 583 m 0
 283 236 321 70 492 70 c 0
 639 70 683 235 683 586 c 0
 683 928 644 1098 485 1098 c 0
 323 1098 283 926 283 583 c 0
EndSplineSet
Fore
SplineSet
208.13 588 m 0
 267.049 960 476.378 1202 698.378 1202 c 0
 939.378 1202 1045.47 969 985.13 588 c 0
 920.509 180 701.436 -27 496.724 -27 c 0
 275.873 -27 142.559 174 208.13 588 c 0
327.496 584 m 0
 269.687 219 359.066 27 510.276 27 c 0
 685.597 27 804.688 219 863.13 588 c 0
 914.605 913 854.301 1151 692.301 1151 c 0
 510.301 1151 379.605 913 327.496 584 c 0
EndSplineSet
Substitution2: "'onum' Oldstyle Figures lookup 1-1" zero.osf
Colour: ffffff
EndChar

StartChar: one
Encoding: 49 49 166
Width: 883
VWidth: 0
Flags: HMW
LayerCount: 3
Back
SplineSet
40 0 m 5
 47 74 l 5
 311 121 l 5
 311 1031 l 5
 61 1031 l 5
 67 1108 l 5
 488 1185 l 5
 515 1185 l 5
 515 114 l 5
 777 83 l 5
 767 0 l 5
 40 0 l 5
EndSplineSet
Fore
SplineSet
106.476 3 m 1
 114.603 48 l 1
 404.463 85 l 1
 563.48 1089 l 1
 295.48 1089 l 1
 307.449 1133 l 1
 665.527 1184 l 1
 693.527 1184 l 1
 518.987 82 l 1
 789.188 58 l 1
 771.476 3 l 1
 106.476 3 l 1
EndSplineSet
Substitution2: "'onum' Oldstyle Figures lookup 1-1" one.osf
Colour: ffffff
EndChar

StartChar: two
Encoding: 50 50 167
Width: 1018
VWidth: 0
Flags: HMW
LayerCount: 3
Back
SplineSet
40 102 m 1
 275 299 l 2
 454 448 603 618 603 820 c 0
 603 958 577 1105 415 1105 c 0
 331 1105 260 1052 235 987 c 1
 198 726 l 1
 121 736 l 1
 94 1020 l 1
 152 1120 340 1209 483 1209 c 0
 701 1209 826 1084 826 866 c 0
 826 583 513 343 321 205 c 2
 246 151 l 1
 700 151 l 1
 804 368 l 1
 874 358 l 1
 826 0 l 1
 46 0 l 1
 40 102 l 1
EndSplineSet
Fore
SplineSet
113.286 46 m 1
 386.547 256 l 2
 706.351 501 840.732 636 876.686 863 c 0
 901.077 1017 840.301 1151 683.301 1151 c 0
 554.301 1151 476.064 1099 435.938 1054 c 1
 356.093 834 l 1
 321.201 841 l 1
 367.114 1093 l 1
 424.4 1139 555.17 1207 717.17 1207 c 0
 907.17 1207 1040.86 1104 1001.26 854 c 0
 961.98 606 748.273 450 347.392 154 c 2
 254.463 85 l 1
 798.463 85 l 1
 928.068 354 l 1
 967.118 348 l 1
 866 0 l 1
 112 0 l 1
 113.286 46 l 1
EndSplineSet
Substitution2: "'onum' Oldstyle Figures lookup 1-1" two.osf
Colour: ffffff
EndChar

StartChar: three
Encoding: 51 51 168
Width: 921
VWidth: 0
Flags: HMW
LayerCount: 3
Back
SplineSet
37 74 m 1xe8
 88 373 l 1
 173 360 l 1
 186 157 l 1
 209 115 279 72 349 72 c 0
 505 72 597 148 597 297 c 0xe8
 597 423 463 545 266 545 c 1
 256 611 l 1
 338 637 556 742 556 918 c 0
 556 1018 495 1124 371 1124 c 0
 317 1124 263 1101 227 1068 c 1
 181 812 l 1
 96 823 l 1
 78 1090 l 1
 122 1138 284 1213 429 1213 c 0
 619 1213 768 1125 768 960 c 0xf0
 768 798 604 693 483 649 c 1
 483 637 l 1
 661 613 813 522 813 357 c 0
 813 139 592 -30 328 -30 c 0
 194 -30 65 29 37 74 c 1xe8
EndSplineSet
Fore
SplineSet
125.789 106 m 1
 200.742 333 l 1
 249.158 323 l 1
 225.54 136 l 1
 249.354 78 330.376 15 435.376 15 c 0
 583.376 15 714.164 121 740.456 287 c 0
 769.124 468 630.062 556 443.487 565 c 1
 446.872 599 l 1
 553.425 653 759.204 740 790.723 939 c 0
 806.244 1037 769.093 1156 646.093 1156 c 0
 542.093 1156 480.54 1102 436.938 1054 c 1
 366.261 854 l 1
 322.844 864 l 1
 364.114 1093 l 1
 425.4 1139 521.17 1207 699.17 1207 c 0
 843.17 1207 938.698 1103 915.574 957 c 0
 889.916 795 741.019 682 612.891 637 c 1
 611.466 628 l 1
 785.348 602 888.975 486 864.584 332 c 0
 830.056 114 606.298 -36 409.298 -36 c 0
 263.298 -36 158.643 23 125.789 106 c 1
EndSplineSet
Substitution2: "'onum' Oldstyle Figures lookup 1-1" three.osf
Colour: ffffff
EndChar

StartChar: four
Encoding: 52 52 169
Width: 1083
VWidth: 0
Flags: HMW
LayerCount: 3
Back
SplineSet
-21 431 m 1
 621 1194 l 1
 686 1176 l 1
 680 1057 676 864 676 683 c 2
 676 479 l 1
 931 479 l 1
 915 346 l 1
 676 346 l 1
 676 105 l 1
 865 73 l 1
 855 0 l 1
 274 0 l 1
 281 66 l 1
 496 111 l 1
 496 349 l 1
 2 349 l 1
 -21 431 l 1
164 479 m 1
 493 479 l 1
 493 912 l 1
 164 479 l 1
EndSplineSet
Fore
SplineSet
168.037 398 m 1
 883.002 1187 l 1
 915.102 1175 l 1
 889.412 1057 857.003 865 828.177 683 c 2
 790.322 444 l 1
 1046.32 444 l 1
 1017.44 369 l 1
 778.443 369 l 1
 730.453 66 l 1
 929.444 47 l 1
 912.158 1 l 1
 349.158 1 l 1
 363.811 43 l 1
 625.562 73 l 1
 672.919 372 l 1
 177.919 372 l 1
 168.037 398 l 1
285.322 444 m 1
 681.322 444 l 1
 766.851 984 l 1
 285.322 444 l 1
EndSplineSet
Substitution2: "'onum' Oldstyle Figures lookup 1-1" four.osf
Colour: ffffff
EndChar

StartChar: five
Encoding: 53 53 170
Width: 916
VWidth: 0
Flags: HMW
LayerCount: 3
Back
SplineSet
-19 74 m 1
 7 387 l 1
 92 368 l 1
 113 155 l 1
 153 93 222 67 304 67 c 0
 431 67 513 156 513 290 c 0
 513 494 357 582 57 602 c 1
 176 1169 l 1
 645 1198 l 1
 619 1016 l 1
 232 1000 l 1
 196 762 l 1
 582 740 689 564 689 354 c 0
 689 156 505 -25 260 -25 c 0
 151 -25 55 -3 -19 74 c 1
EndSplineSet
Fore
SplineSet
126.313 103 m 1
 196.593 351 l 1
 242.851 340 l 1
 228.392 154 l 1
 284.305 84 357.444 47 437.444 47 c 0
 597.444 47 710.184 159 736.475 325 c 0
 768.152 525 582.851 662 322.227 677 c 1
 511.468 1171 l 1
 943.744 1198 l 1
 909.214 1081 l 1
 523.362 1063 l 1
 427.382 779 l 1
 746.58 755 897.605 591 864.661 383 c 0
 831.242 172 630.892 -7 385.892 -7 c 0
 285.892 -7 198.276 27 126.313 103 c 1
EndSplineSet
Substitution2: "'onum' Oldstyle Figures lookup 1-1" five.osf
Colour: ffffff
EndChar

StartChar: six
Encoding: 54 54 171
Width: 945
VWidth: 0
Flags: HMW
LayerCount: 3
Back
SplineSet
59 421 m 0
 59 756 352 1112 666 1214 c 1
 703 1155 l 1
 442 1036 312 807 272 609 c 1
 283 609 l 1
 327 659 410 709 518 709 c 0
 712 709 849 589 849 370 c 0
 849 133 659 -21 442 -21 c 0
 171 -21 59 187 59 421 c 0
262 406 m 0
 262 235 327 61 449 61 c 0
 611 61 644 174 644 328 c 0
 644 463 587 606 445 606 c 0
 371 606 293 563 269 527 c 1
 266 494 262 440 262 406 c 0
EndSplineSet
Fore
SplineSet
182.838 422 m 0
 235.897 757 500.431 1095 848.12 1213 c 1
 862.468 1171 l 1
 540.72 1040 415.133 809 343.456 609 c 1
 350.456 609 l 1
 417.742 655 505.295 709 641.295 709 c 0
 836.295 709 917.735 535 888.91 353 c 0
 856.282 147 673.516 -22 456.516 -22 c 0
 201.516 -22 145.935 189 182.838 422 c 0
300.621 408 m 0
 261.816 163 365.276 27 488.276 27 c 0
 642.276 27 735.016 139 764.792 327 c 0
 792.351 501 714.94 631 554.94 631 c 0
 445.94 631 365.288 589 333.587 553 c 1
 320.885 517 306.322 444 300.621 408 c 0
EndSplineSet
Substitution2: "'onum' Oldstyle Figures lookup 1-1" six.osf
Colour: ffffff
EndChar

StartChar: seven
Encoding: 55 55 172
Width: 980
VWidth: 0
Flags: HMW
LayerCount: 3
Back
SplineSet
5 809 m 1
 29 1182 l 1
 817 1182 l 1
 817 1130 l 1
 380 -33 l 1
 173 -11 l 1
 662 1015 l 1
 149 1015 l 1
 74 796 l 1
 5 809 l 1
EndSplineSet
Fore
SplineSet
241.31 848 m 1
 324.21 1182 l 1
 1063.21 1182 l 1
 1054.97 1130 l 1
 440.773 -33 l 1
 331.832 -20 l 1
 964.738 1078 l 1
 377.738 1078 l 1
 278.519 843 l 1
 241.31 848 l 1
EndSplineSet
Substitution2: "'onum' Oldstyle Figures lookup 1-1" seven.osf
Colour: ffffff
EndChar

StartChar: eight
Encoding: 56 56 173
Width: 897
VWidth: 0
Flags: HMW
LayerCount: 3
Back
SplineSet
54 280 m 0xe4
 54 393 127 482 287 575 c 1
 287 584 l 1
 191 648 100 732 100 879 c 0
 100 1047 257 1201 451 1201 c 0
 641 1201 770 1077 770 926 c 0xd8
 770 809 680 679 567 639 c 1
 564 629 l 1
 712 521 798 449 798 300 c 0
 798 116 662 -27 396 -27 c 0
 212 -27 54 89 54 280 c 0xe4
243 304 m 0xe4
 243 142 352 61 461 61 c 0
 556 61 628 115 628 236 c 0
 628 349 473 459 354 533 c 1
 288 474 243 442 243 304 c 0xe4
266 955 m 0xd8
 266 862 352 761 497 678 c 1
 571 721 601 771 601 890 c 0
 601 1031 531 1124 426 1124 c 0
 312 1124 266 1035 266 955 c 0xd8
EndSplineSet
Fore
SplineSet
154.506 281 m 0
 173.287 399.58 266.678 517.111 415.356 621 c 1
 416.148 626 l 1
 316.386 709.368 283.208 803.158 300.764 914 c 0
 325.946 1073 459.378 1202 652.378 1202 c 0
 818.378 1202 909.086 1090.52 882.63 923.48 c 0
 859.166 775.337 757.344 668.969 664.664 604 c 1
 663.189 601 l 1
 795.118 499.896 853.562 407.626 833.506 281 c 0
 804.521 98 605.724 -27 417.724 -27 c 0
 233.724 -27 127.264 109 154.506 281 c 0
261.524 319 m 0
 232.698 137 372.182 33 474.227 33 c 0
 623.227 33 721.689 118 739.429 230 c 0
 758.476 350.257 699.866 422.411 450.397 596 c 1
 351.627 528 282.59 452 261.524 319 c 0
385.425 975 m 0
 363.681 837.713 434.922 764.358 627.466 628 c 1
 693.189 679.167 776.888 756.942 798.12 891 c 0
 821.547 1038.91 733.137 1154.77 605.812 1154.77 c 0
 492.66 1154.77 402.076 1080.13 385.425 975 c 0
EndSplineSet
Substitution2: "'onum' Oldstyle Figures lookup 1-1" eight.osf
Colour: ffffff
EndChar

StartChar: nine
Encoding: 57 57 174
Width: 938
VWidth: 0
Flags: HMW
LayerCount: 3
Back
SplineSet
40 802 m 0
 40 1046 241 1211 432 1211 c 0
 695 1211 813 998 813 764 c 0
 813 365 574 39 198 -27 c 1
 175 47 l 1
 503 144 578 331 597 575 c 1
 584 575 l 1
 518 502 432 466 340 466 c 0
 149 466 40 585 40 802 c 0
240 845 m 0
 240 710 287 575 429 575 c 0
 499 575 569 612 600 662 c 1
 608 708 609 766 609 806 c 0
 609 970 542 1130 426 1130 c 0
 278 1130 240 1023 240 845 c 0
EndSplineSet
Fore
SplineSet
240.935 833 m 0
 273.562 1039 454.17 1207 671.17 1207 c 0
 926.17 1207 979.643 989 942.738 756 c 0
 889.68 421 592.286 46 206.724 -27 c 1
 199.376 15 l 1
 537.739 112 710.711 377 782.388 577 c 1
 775.388 577 l 1
 708.104 531 623.708 478 487.708 478 c 0
 292.708 478 212.108 651 240.935 833 c 0
361.211 860 m 0
 333.651 686 412.903 555 572.903 555 c 0
 681.903 555 764.664 604 796.366 640 c 1
 812.177 683 822.68 743 828.382 779 c 0
 867.186 1024 762.251 1157 639.251 1157 c 0
 485.251 1157 390.987 1048 361.211 860 c 0
EndSplineSet
Substitution2: "'onum' Oldstyle Figures lookup 1-1" nine.osf
Colour: ffffff
EndChar

StartChar: less
Encoding: 60 60 176
Width: 865
VWidth: 0
Flags: HMW
LayerCount: 3
Back
SplineSet
28.7881 428 m 1
 582.854 -83 l 1
 645.941 -13 l 1
 263.906 454 l 1
 626.862 902 l 1
 570.107 973 l 1
 29.2227 456 l 1
 28.7881 428 l 1
EndSplineSet
Fore
Refer: 18 62 N -1 0 0 1 818 0 2
Colour: ffffff
EndChar

StartChar: cent
Encoding: 162 162 177
Width: 855
VWidth: 0
Flags: HMW
LayerCount: 3
Back
SplineSet
41 415 m 0
 41 712 249 940 466 940 c 0
 633 940 707 866 707 787 c 0
 707 728 664 689 581 683 c 1
 553 750 506 846 419 846 c 0
 300 846 222 688 222 507 c 0
 222 340 311 90 519 90 c 0
 618 90 674 121 721 151 c 1
 746 93 l 1
 693 29 565 -30 436 -30 c 0
 196 -30 41 175 41 415 c 0
347 1154 m 1
 493 1171 l 1
 469 903 l 1
 378 903 l 1
 347 1154 l 1
357 -266 m 1
 383 0 l 1
 472 0 l 1
 505 -250 l 1
 357 -266 l 1
EndSplineSet
Fore
SplineSet
115 408 m 0
 115 705 273 899 490 899 c 0
 659 899 711 810 711 731 c 0
 711 685 694 653 646 638 c 1
 600 774 547 840 442 840 c 0
 324 840 215 708 215 465 c 0
 215 166 340 47 500 47 c 0
 599 47 687 97 735 144 c 1
 753 111 l 1
 705 36 582 -29 452 -29 c 0
 230 -29 115 169 115 408 c 0
387 1115 m 1
 493 1133 l 1
 469 863 l 1
 419 863 l 1
 387 1115 l 1
397 -267 m 1
 424 0 l 1
 472 0 l 1
 505 -250 l 1
 397 -267 l 1
EndSplineSet
Colour: ffffff
EndChar

StartChar: currency
Encoding: 164 164 178
Width: 820
VWidth: 0
Flags: HMW
LayerCount: 3
Back
SplineSet
494 670 m 0
 402 670 329 600 312 494 c 0
 295 387 347 314 439 314 c 0
 535 314 611 383 628 487 c 0
 646 598 591 670 494 670 c 0
226 332 m 1
 206 373 198 436 206 489 c 0
 213 535 238 592 266 628 c 1
 190 713 l 1
 287 796 l 1
 352 708 l 1
 400 744 465 768 515 768 c 0
 569 768 629 748 664 718 c 1
 753 798 l 1
 816 710 l 1
 720 636 l 1
 735 598 741 538 733 490 c 0
 725 439 700 380 667 342 c 1
 748 256 l 1
 647 173 l 1
 581 264 l 1
 530 236 467 216 419 216 c 0
 379 216 330 233 292 258 c 1
 200 168 l 1
 129 254 l 1
 226 332 l 1
EndSplineSet
Fore
SplineSet
112 734 m 1
 162 782 l 1
 240 693 l 1
 283 729 361 772 409 772 c 0
 463 772 544 730 584 701 c 1
 662 783 l 1
 704 730 l 1
 620 656 l 1
 642 619 673 539 673 493 c 0
 673 442 640 364 613 327 c 1
 706 241 l 1
 654 193 l 1
 575 283 l 1
 529 256 449 220 403 220 c 0
 363 220 293 252 251 278 c 1
 173 190 l 1
 124 239 l 1
 208 317 l 1
 181 359 147 439 147 492 c 0
 147 538 179 611 203 647 c 1
 112 734 l 1
221 496 m 0
 221 372 295 288 406 288 c 0
 522 288 600 371 600 489 c 0
 600 616 522 700 404 700 c 0
 293 700 221 617 221 496 c 0
EndSplineSet
Colour: ffffff
EndChar

StartChar: section
Encoding: 167 167 179
Width: 942
VWidth: 0
Flags: HMW
LayerCount: 3
Back
SplineSet
55 -236 m 1xd4
 68 31 l 1
 172 16 l 1xe4
 209 -172 l 1
 245 -229 322 -282 415 -282 c 0
 520 -282 653 -219 653 -71 c 0
 653 195 17 191 83 606 c 1
 439 406 l 2
 611 310 836 230 836 -4 c 0
 836 -234 621 -383 393 -383 c 0
 249 -383 119 -315 55 -236 c 1xd4
83 916 m 0xd8
 83 1143 273 1269 470 1269 c 0
 578 1269 674 1235 753 1169 c 1
 753 1161 731 887 731 887 c 1
 632 899 l 1
 606 1090 l 1
 588 1126 518 1185 438 1185 c 0
 338 1185 254 1126 254 995 c 0
 254 698 902 728 835 300 c 1
 429 527 l 2
 270 616 83 704 83 916 c 0xd8
EndSplineSet
Fore
SplineSet
65.1465 -239 m 1
 139.286 46 l 1
 185.652 42 l 1
 178.649 -179 l 1
 209.87 -266 320.792 -317 433.792 -317 c 0
 557.792 -317 685.829 -241 709.429 -92 c 0
 753.935 189 228.705 257 245.637 547 c 1
 549.742 333 l 2
 695.903 233 853.906 132 825.714 -46 c 0
 795.779 -235 620.131 -378 372.131 -378 c 0
 228.131 -378 116.634 -318 65.1465 -239 c 1
301.891 959 m 0
 333.409 1158 523.307 1271 683.307 1271 c 0
 791.307 1271 902.764 1236 957.885 1161 c 1
 875.785 851 l 1
 830.894 858 l 1
 842.381 1101 l 1
 816.835 1167 730.278 1214 648.278 1214 c 0
 536.278 1214 428.083 1137 407.335 1006 c 0
 358.394 697 905.732 636 885.059 335 c 1
 572.329 564 l 2
 431.484 666 271.322 766 301.891 959 c 0
EndSplineSet
Colour: ffffff
EndChar

StartChar: ordfeminine
Encoding: 170 170 180
Width: 787
VWidth: 0
Flags: HMW
LayerCount: 3
Back
SplineSet
124.65 668.4 m 0xba
 124.65 786 212 932 496.5 932 c 1
 496.5 966 l 2
 496 1074 488 1169.6 386.05 1169.6 c 0
 316 1169.6 304 1114 291.7 977.6 c 1
 212 970 153.55 1014 153.55 1100 c 0
 153.55 1187.2 326.95 1254 444.25 1254 c 0
 595.55 1254 654 1177 654.2 1008.4 c 2
 654.2 748 l 2
 654.2 674.4 674 648 749.4 634.8 c 2
 791.9 627.6 l 1
 780.85 565.8 l 1x76
 740 529 715.4 519.6 665.25 519.6 c 0
 566.65 519.6 513.5 579.6 513.5 626.8 c 2
 513.5 638.8 l 1
 504.15 638.8 l 1
 481.2 596.4 430.65 514.8 291.25 514.8 c 0
 202 514.8 124.65 570.8 124.65 668.4 c 0xba
293.4 716 m 0xba
 293.4 676 315.7 627.2 378.6 627.2 c 0
 438.1 627.2 468.45 664.8 496.5 694.4 c 1
 496.5 873.4 l 1
 344 846 293.4 792.8 293.4 716 c 0xba
EndSplineSet
Fore
SplineSet
114 711 m 0
 114 841 229 952 484 967 c 1
 484 994 l 2
 484 1161 454 1235 331 1235 c 0
 242 1235 234 1165 222 1068 c 1
 188 1068 141 1086 141 1122 c 1
 141 1210 262 1282 374 1282 c 0
 498 1282 572 1205 572 1036 c 2
 572 764 l 2
 572 690 556 640 626 628 c 2
 679 617 l 1
 675 583 l 1
 659 576 628 566 594 566 c 0
 528 566 494 616 494 674 c 2
 494 685 l 1
 490 685 l 1
 472 636 391 560 280 560 c 0
 195 560 114 613 114 711 c 0
210 734 m 0
 210 668 236 622 306 622 c 0
 383 622 447 672 484 735 c 1
 484 927 l 1
 324 904 210 861 210 734 c 0
EndSplineSet
Colour: ffffff
EndChar

StartChar: registered
Encoding: 174 174 181
Width: 1176
VWidth: 0
Flags: HMW
LayerCount: 3
Back
SplineSet
634 1116 m 0
 634 938 498 837 358 837 c 0
 228 837 173 926 173 1017 c 0
 173 1204 304 1308 438 1308 c 0
 575 1308 634 1213 634 1116 c 0
433 1277 m 0
 322 1277 215 1186 215 1027 c 0
 215 948 258 870 367 870 c 0
 481 870 595 953 595 1113 c 0
 595 1199 545 1277 433 1277 c 0
406 1085 m 2
 429 1085 449 1116 449 1146 c 0
 449 1172 434 1186 403 1186 c 0
 396 1186 388 1184 388 1184 c 1
 372 1085 l 1
 406 1085 l 2
500 1153 m 0
 500 1127 477 1097 436 1080 c 1
 466 1026 l 2
 479 1000 492 983 515 973 c 1
 522 971 l 1
 514 953 l 1
 504 950 497 950 489 950 c 0
 458 950 436 973 423 1004 c 2
 400 1060 l 1
 368 1060 l 1
 355 981 l 1
 388 971 l 1
 383 953 l 1
 268 953 l 1
 272 971 l 1
 310 979 l 1
 342 1177 l 1
 307 1184 l 1
 310 1202 l 1
 343 1205 378 1209 401 1209 c 0
 479 1209 500 1193 500 1153 c 0
EndSplineSet
Fore
SplineSet
349 771 m 1
 352 802 l 1
 423 815 l 1
 423 1284 l 1
 351 1293 l 1
 355 1316 l 1
 422 1327 499 1335 566 1335 c 0
 664 1335 759 1291 759 1203 c 0
 759 1142 716 1086 622 1040 c 1
 622 1039 l 1
 711 916 l 2
 777 824 796 815 826 804 c 2
 848 796 l 1
 845 770 l 1
 826 763 820 763 803 763 c 0
 751 763 708 788 657 880 c 2
 578 1020 l 1
 489 1020 l 1
 489 812 l 1
 584 804 l 1
 579 771 l 1
 349 771 l 1
489 1055 m 1
 591 1055 l 1
 643 1088 689 1130 689 1191 c 0
 689 1272 637 1299 543 1299 c 0
 519 1299 489 1297 489 1297 c 1
 489 1055 l 1
108 1022 m 0
 108 1332 319 1518 579 1518 c 0
 855 1518 1068 1336 1068 1026 c 0
 1068 728 835 544 569 544 c 0
 315 544 108 736 108 1022 c 0
163 1036 m 0
 163 776 327 592 577 592 c 0
 811 592 1011 752 1011 1016 c 0
 1011 1300 827 1467 579 1472 c 0
 357 1476 163 1336 163 1036 c 0
EndSplineSet
Colour: ffffff
EndChar

StartChar: two.superior
Encoding: 178 178 182
Width: 754
VWidth: 0
Flags: HMW
LayerCount: 3
Back
SplineSet
35 638 m 5
 190 761 l 6
 294 846 373 930 373 1005 c 4
 373 1077 358 1153 264 1153 c 4
 215 1153 175 1127 160 1095 c 5
 138 966 l 5
 70 971 l 5
 55 1141 l 5
 96 1218 227 1257 328 1257 c 4
 481 1257 569 1189 569 1071 c 4
 569 918 420.948 803.011 258 696 c 6
 191 652 l 5
 461 652 l 5
 540 805 l 5
 597 784 l 5
 578 531 l 5
 27 531 l 5
 35 638 l 5
EndSplineSet
Fore
SplineSet
207.09 613 m 5
 377.888 738 l 6
 562.428 874 639.148 948 659.104 1074 c 4
 672.567 1159 637.446 1234 546.446 1234 c 4
 471.446 1234 439.338 1227 418.12 1213 c 5
 368.362 1063 l 5
 326.996 1067 l 5
 357.18 1226 l 5
 393.931 1256 478.316 1290 583.316 1290 c 4
 706.316 1290 794.496 1228 770.58 1077 c 4
 746.822 927 608.935 833 350.583 654 c 6
 346.108 651 l 5
 662.108 651 l 5
 729.549 799 l 5
 764.074 796 l 5
 707.646 566 l 5
 202.646 566 l 5
 207.09 613 l 5
EndSplineSet
Colour: ffffff
EndChar

StartChar: three.superior
Encoding: 179 179 183
Width: 708
VWidth: 0
Flags: HMW
LayerCount: 3
Back
SplineSet
21 563 m 5xe8
 51 762 l 5
 126 754 l 5
 134 619 l 5
 152 598 190 579 233 579 c 4
 328 579 384 635 384 719 c 4xe8
 384 790 301 849 180 849 c 5
 164 908 l 5
 212 923 348 971 348 1070 c 4
 348 1127 313 1189 241 1189 c 4
 210 1189 179 1186 158 1167 c 5
 134 1010 l 5
 58 1016 l 5
 46 1187 l 5
 77 1231 192 1279 295 1279 c 4
 430 1279 535 1223 535 1117 c 4xf0
 535 1013 453 955 356 927 c 5
 356 920 l 5
 501 905 574 839 574 736 c 4
 574 600 417 495 229 495 c 4
 134 495 41 521 21 563 c 5xe8
EndSplineSet
Fore
SplineSet
211.099 632 m 1
 270.59 774 l 1
 313.798 769 l 1
 298.95 650 l 1
 313.564 616 363.705 579 426.705 579 c 0
 514.705 579 592.524 641 607.888 738 c 0
 624.677 844 503.862 902 392.654 907 c 1
 394.822 927 l 1
 442.99 947 603.701 1002 622.074 1118 c 0
 631.102 1175 602.188 1245 535.188 1245 c 0
 479.188 1245 449.922 1237 426.12 1213 c 1
 375.322 1088 l 1
 326.272 1094 l 1
 352.288 1233 l 1
 391.673 1267 470.425 1297 584.425 1297 c 0
 676.425 1297 747.13 1232 732.717 1141 c 0
 716.72 1040 615.217 980 525.782 952 c 1
 524.832 946 l 1
 652.298 930 728.469 849 713.422 754 c 0
 692.198 620 537.469 527 399.469 527 c 0
 297.469 527 233.438 571 211.099 632 c 1
EndSplineSet
Colour: ffffff
EndChar

StartChar: paragraph
Encoding: 182 182 184
Width: 1221
VWidth: 0
Flags: HMW
LayerCount: 3
Back
SplineSet
44 828 m 0xec
 44 1065 244 1245 487 1245 c 2xec
 833 1245 l 1xdc
 833 0 l 1
 427 0 l 1
 434 74 l 1
 675 121 l 1
 675 1152 l 1
 635 1153 578 1154 568 1154 c 0
 353 1154 249 1041 249 863 c 0
 249 692 344 546 562 546 c 9
 544 448 l 1
 283 448 44 536 44 828 c 0xec
912 0 m 1xde
 912 1245 l 1xde
 1232 1245 l 1
 1223 1168 l 1
 1053 1130 l 1
 1053 114 l 1xdd
 1234 80 l 1
 1224 0 l 1
 912 0 l 1xde
EndSplineSet
Fore
SplineSet
242.519 843 m 0
 280.214 1081 534.188 1245 782.188 1245 c 2
 964.188 1245 l 1
 767.158 1 l 1
 445.158 1 l 1
 457.811 43 l 1
 678.562 73 l 1
 854.686 1185 l 1
 813.161 1188 791.002 1187 782.002 1187 c 0
 527.002 1187 411.422 1076 374.043 840 c 0
 346.801 668 454.627 528 669.627 528 c 1
 643.708 478 l 1
 382.708 478 196.27 551 242.519 843 c 0
823.158 1 m 1
 1020.19 1245 l 1
 1304.19 1245 l 1
 1294.17 1207 l 1
 1113.53 1184 l 1
 936.137 64 l 1
 1125.29 46 l 1
 1107.68 -2 l 1
 823.158 1 l 1
EndSplineSet
Colour: ffffff
EndChar

StartChar: one.superior
Encoding: 185 185 185
Width: 647
VWidth: 0
Flags: HMW
LayerCount: 3
Back
SplineSet
23 531 m 5
 27 605 l 5
 180 630 l 5
 180 1122 l 5
 35 1122 l 5
 39 1199 l 5
 341 1245 l 5
 360 1245 l 5
 360 627 l 5
 512 614 l 5
 506 531 l 5
 23 531 l 5
EndSplineSet
Fore
SplineSet
200.646 566 m 1
 208.772 611 l 1
 377.099 632 l 1
 467.062 1200 l 1
 311.062 1200 l 1
 321.03 1244 l 1
 561.465 1272 l 1
 579.465 1272 l 1
 477.782 630 l 1
 635.356 621 l 1
 621.646 566 l 1
 200.646 566 l 1
EndSplineSet
Colour: ffffff
EndChar

StartChar: ordmasculine
Encoding: 186 186 186
Width: 850
VWidth: 0
Flags: HMW
LayerCount: 3
Back
SplineSet
89 345 m 1
 428 345 l 1
 413 287 l 1
 74 287 l 1
 89 345 l 1
206 601 m 0
 191 504 219 441 272 441 c 0
 323 441 359 489 372 575 c 0
 387 666 362 732 304 732 c 0
 254 732 219 689 206 601 c 0
448 588 m 0
 430 477 348 401 256 401 c 0
 150 401 113 479 130 583 c 0
 150 707 237 773 325 773 c 0
 424 773 466 699 448 588 c 0
EndSplineSet
Fore
SplineSet
255.912 896 m 0
 294.241 1138 467.207 1283 646.207 1283 c 0
 820.207 1283 912.915 1117 883.139 929 c 0
 847.661 705 674.379 558 510.379 558 c 0
 341.379 558 222.651 686 255.912 896 c 0
363.099 954 m 0
 331.264 753 398.564 616 548.564 616 c 0
 665.564 616 754.254 734 780.546 900 c 0
 808.104 1074 748.704 1223 601.704 1223 c 0
 480.704 1223 387.648 1109 363.099 954 c 0
EndSplineSet
Colour: ffffff
EndChar

StartChar: onequarter
Encoding: 188 188 187
Width: 1341
VWidth: 0
Flags: HMW
LayerCount: 3
Back
SplineSet
693 270 m 1
 1103 737 l 1
 1160 726 l 1
 1155 655 1151 539 1151 430 c 2
 1151 272 l 1
 1299 272 l 1
 1290 175 l 1
 1151 175 l 1
 1151 83 l 1
 1272 65 l 1
 1266 0 l 1
 852 0 l 1
 856 58 l 1
 993 85 l 1
 993 178 l 1
 706 178 l 1
 693 270 l 1
800 272 m 1
 990 272 l 1
 990 508 l 1
 800 272 l 1
-52 531 m 1
 -48 605 l 1
 105 630 l 1
 105 1122 l 1
 -40 1122 l 1
 -36 1199 l 1
 266 1245 l 1
 285 1245 l 1
 285 627 l 1
 437 614 l 1
 431 531 l 1
 -52 531 l 1
159 -10 m 1
 566 588 l 1
 957 1210 l 1
 1133 1207 l 1
 1131 1178 l 1
 730 591 l 1
 359 -32 l 1
 159 -10 l 1
EndSplineSet
Fore
SplineSet
708.587 231 m 5
 1169.51 723 l 5
 1212.4 716 l 5
 1195.16 645 1174.79 529 1157.52 420 c 6
 1134.87 277 l 5
 1282.87 277 l 5
 1261.99 202 l 5
 1122.99 202 l 5
 1101.14 64 l 5
 1215.13 45 l 5
 1201.84 -1 l 5
 827.842 -1 l 5
 840.494 41 l 5
 1008.77 68 l 5
 1030.47 205 l 5
 713.469 205 l 5
 708.587 231 l 5
821.872 277 m 5
 1039.87 277 l 5
 1084.22 557 l 5
 821.872 277 l 5
194.279 570 m 5
 202.406 615 l 5
 370.732 636 l 5
 460.695 1204 l 5
 304.695 1204 l 5
 314.664 1248 l 5
 555.099 1276 l 5
 573.099 1276 l 5
 471.416 634 l 5
 628.99 625 l 5
 615.279 570 l 5
 194.279 570 l 5
280.189 -43 m 5
 726.13 588 l 5
 1140.96 1212 l 5
 1237.17 1207 l 5
 1233.54 1203 l 5
 805.605 591 l 5
 380.556 -47 l 5
 280.189 -43 l 5
EndSplineSet
Colour: ffffff
EndChar

StartChar: onehalf
Encoding: 189 189 188
Width: 1423
VWidth: 0
Flags: HMW
LayerCount: 3
Back
SplineSet
792 109 m 1
 947 232 l 2
 1051 317 1130 401 1130 476 c 0
 1130 548 1115 624 1021 624 c 0
 972 624 932 598 917 566 c 1
 895 437 l 1
 827 442 l 1
 812 612 l 1
 853 689 984 728 1085 728 c 0
 1238 728 1326 660 1326 542 c 0
 1326 389 1177.95 274.011 1015 167 c 2
 948 123 l 1
 1218 123 l 1
 1297 276 l 1
 1354 255 l 1
 1335 2 l 5
 784 2 l 1
 792 109 l 1
-52 531 m 1
 -48 605 l 1
 105 630 l 1
 105 1122 l 1
 -40 1122 l 1
 -36 1199 l 1
 266 1245 l 1
 285 1245 l 1
 285 627 l 1
 437 614 l 1
 431 531 l 1
 -52 531 l 1
139 -10 m 1
 546 588 l 1
 937 1210 l 1
 1113 1207 l 1
 1111 1178 l 1
 710 591 l 1
 339 -32 l 1
 139 -10 l 1
EndSplineSet
Fore
SplineSet
794.444 47 m 1
 965.242 172 l 2
 1149.78 308 1226.5 382 1246.46 508 c 0
 1259.92 593 1224.8 668 1133.8 668 c 0
 1058.8 668 1026.69 661 1005.47 647 c 1
 955.717 497 l 1
 914.351 501 l 1
 944.534 660 l 1
 981.285 690 1065.67 724 1170.67 724 c 0
 1293.67 724 1381.85 662 1357.93 511 c 0
 1334.18 361 1196.29 267 937.938 88 c 2
 933.463 85 l 1
 1249.46 85 l 1
 1316.9 233 l 1
 1351.43 230 l 1
 1295 0 l 1
 790 0 l 1
 794.444 47 l 1
194.279 570 m 1
 202.406 615 l 1
 370.732 636 l 1
 460.695 1204 l 1
 304.695 1204 l 1
 314.664 1248 l 1
 555.099 1276 l 1
 573.099 1276 l 1
 471.416 634 l 1
 628.99 625 l 1
 615.279 570 l 1
 194.279 570 l 1
280.189 -43 m 1
 726.13 588 l 1
 1140.96 1212 l 1
 1237.17 1207 l 1
 1233.54 1203 l 1
 805.605 591 l 1
 380.556 -47 l 1
 280.189 -43 l 1
EndSplineSet
Colour: ffffff
EndChar

StartChar: threequarters
Encoding: 190 190 189
Width: 1349
VWidth: 0
Flags: HMW
LayerCount: 3
Back
SplineSet
-31 546 m 1xe8
 -1 745 l 1
 74 737 l 1
 82 602 l 1
 100 581 138 562 181 562 c 0
 276 562 332 618 332 702 c 0xe8
 332 773 249 832 128 832 c 1
 112 891 l 1
 160 906 296 954 296 1053 c 0
 296 1110 261 1172 189 1172 c 0
 158 1172 127 1169 106 1150 c 1
 82 993 l 1
 6 999 l 1
 -6 1170 l 1
 25 1214 140 1262 243 1262 c 0
 378 1262 483 1206 483 1100 c 0xf0
 483 996 401 938 304 910 c 1
 304 903 l 1
 449 888 522 822 522 719 c 0
 522 583 365 478 177 478 c 0
 82 478 -11 504 -31 546 c 1xe8
173 -10 m 1
 580 588 l 1
 971 1210 l 1
 1147 1207 l 1
 1145 1178 l 1
 744 591 l 1
 373 -32 l 1
 173 -10 l 1
693 270 m 1
 1103 737 l 1
 1160 726 l 1
 1155 655 1151 539 1151 430 c 2
 1151 272 l 1
 1299 272 l 1
 1290 175 l 1
 1151 175 l 1
 1151 83 l 1
 1272 65 l 1
 1266 0 l 1
 852 0 l 1
 856 58 l 1
 993 85 l 1
 993 178 l 1
 706 178 l 1
 693 270 l 1
800 272 m 1
 990 272 l 1
 990 508 l 1
 800 272 l 1
EndSplineSet
Fore
SplineSet
207 644 m 1
 266.49 786 l 1
 309.698 781 l 1
 294.851 662 l 1
 309.466 628 359.605 591 422.605 591 c 0
 510.605 591 588.425 653 603.788 750 c 0
 620.577 856 499.764 914 388.556 919 c 1
 390.723 939 l 1
 438.891 959 599.602 1014 617.975 1130 c 0
 627.002 1187 598.089 1257 531.089 1257 c 0
 475.089 1257 445.822 1249 422.021 1225 c 1
 371.223 1100 l 1
 322.173 1106 l 1
 348.188 1245 l 1
 387.573 1279 466.325 1309 580.325 1309 c 0
 672.325 1309 743.03 1244 728.617 1153 c 0
 712.62 1052 611.117 992 521.683 964 c 1
 520.732 958 l 1
 648.198 942 724.369 861 709.322 766 c 0
 688.099 632 533.369 539 395.369 539 c 0
 293.369 539 229.338 583 207 644 c 1
288.189 -43 m 1
 734.13 588 l 1
 1148.96 1212 l 1
 1245.17 1207 l 1
 1241.54 1203 l 1
 813.605 591 l 1
 388.556 -47 l 1
 288.189 -43 l 1
716.587 231 m 1
 1177.51 723 l 1
 1220.4 716 l 1
 1203.16 645 1182.79 529 1165.52 420 c 2
 1142.87 277 l 1
 1290.87 277 l 1
 1269.99 202 l 1
 1130.99 202 l 1
 1109.14 64 l 1
 1223.13 45 l 1
 1209.84 -1 l 1
 835.842 -1 l 1
 848.494 41 l 1
 1016.77 68 l 1
 1038.47 205 l 1
 721.469 205 l 1
 716.587 231 l 1
829.872 277 m 1
 1047.87 277 l 1
 1092.22 557 l 1
 829.872 277 l 1
EndSplineSet
Colour: ffffff
EndChar

StartChar: dotaccent
Encoding: 729 729 190
Width: 406
VWidth: 0
Flags: HMW
LayerCount: 3
Back
SplineSet
294 1303 m 27
 360 1303 416 1253 416 1189 c 27
 416 1121 360 1067 294 1067 c 27
 228 1067 175 1123 175 1191 c 27
 175 1255 231 1303 294 1303 c 27
EndSplineSet
Fore
SplineSet
140 1479 m 0
 140 1542 160 1576 203 1576 c 0
 246 1576 266 1543 266 1479 c 0
 266 1413 249 1376 203 1376 c 0
 157 1376 140 1415 140 1479 c 0
EndSplineSet
Colour: ffffff
EndChar

StartChar: ring
Encoding: 730 730 191
Width: 605
VWidth: 0
Flags: HMW
LayerCount: 3
Back
SplineSet
225 390 m 0
 166 390 129 334 121 278 c 0
 111 217 133 149 197 149 c 0
 251 149 287 190 299 263 c 0
 309 326 288 390 225 390 c 0
243 438 m 0
 339 438 388 370 373 276 c 0
 358 185 279 101 177 101 c 0
 85 101 31 164 48 266 c 0
 63 358 149 438 243 438 c 0
EndSplineSet
Fore
SplineSet
140 1529 m 0
 140 1621 214 1700 308 1700 c 0
 405 1700 466 1632 466 1538 c 0
 466 1447 398 1363 296 1363 c 0
 204 1363 140 1427 140 1529 c 0
205 1540 m 0
 205 1476 237 1404 306 1404 c 0
 365 1404 400 1447 400 1523 c 0
 400 1589 362 1660 296 1660 c 0
 232 1660 205 1600 205 1540 c 0
EndSplineSet
Colour: ffffff
EndChar

StartChar: tilde
Encoding: 732 732 192
Width: 747
VWidth: 0
Flags: HMW
LayerCount: 3
Back
SplineSet
-110 141 m 1
 -110 141 -28 354 111 339 c 2
 549 294 l 2
 587 289 644 356 644 356 c 1
 709 354 l 1
 709 354 618 135 479 152 c 1
 40 197 l 2
 -3 202 -59 128 -59 128 c 1
 -110 141 l 1
EndSplineSet
Fore
SplineSet
137 1379 m 1
 169 1540 263.778 1551.58 336 1511.2 c 2
 409 1470.37 l 2
 477.145 1432.26 532 1410 575 1531 c 1
 607 1523 l 1
 578 1379 498.873 1340.59 407 1391.22 c 2
 335 1430.9 l 2
 269.444 1467.03 214 1497 168 1371 c 1
 137 1379 l 1
EndSplineSet
Colour: ffffff
EndChar

StartChar: quoteright
Encoding: 8217 8217 193
Width: 503
VWidth: 0
Flags: HMW
LayerCount: 3
Back
SplineSet
17 882 m 21
 119 945 155 1034 155 1097 c 7
 155 1158 129 1207 111 1220 c 5
 157 1265 198 1280 238 1280 c 7
 307 1280 355 1220 355 1141 c 7
 355 1045 279 885 48 816 c 13
 17 882 l 21
EndSplineSet
Fore
Refer: 11 44 N 1 0 0 1 14 1063 2
Colour: ffffff
EndChar

StartChar: quoteleft
Encoding: 8216 8216 194
Width: 504
VWidth: 0
Flags: HMW
LayerCount: 3
Back
SplineSet
363 1219 m 17
 261 1156 225 1067 225 1004 c 3
 225 943 251 893 269 880 c 1
 223 835 182 821 142 821 c 3
 73 821 25 881 25 960 c 3
 25 1056 101 1216 332 1285 c 9
 363 1219 l 17
EndSplineSet
Fore
Refer: 11 44 N -1 0 0 -1 491 972 2
Colour: ffffff
EndChar

StartChar: quotesinglbase
Encoding: 8218 8218 195
Width: 514
VWidth: 0
Flags: HMW
LayerCount: 3
Back
SplineSet
25 -177 m 17
 127 -114 163 -24 163 40 c 3
 163 99 137 148 119 163 c 1
 165 206 206 221 246 221 c 3
 315 221 363 164 363 83 c 3
 363 -11 287 -174 56 -243 c 9
 25 -177 l 17
EndSplineSet
Fore
Refer: 11 44 N 1 0 0 1 16 0 2
Colour: ffffff
EndChar

StartChar: quotedblleft
Encoding: 8220 8220 196
Width: 818
VWidth: 0
Flags: HMW
LayerCount: 3
Back
SplineSet
618 1219 m 21
 516 1156 479 1067 479 1004 c 7
 479 943 506 893 524 880 c 5
 478 835 436 821 396 821 c 7
 327 821 279 881 279 960 c 7
 279 1056 355 1216 586 1285 c 13
 618 1219 l 21
363 1219 m 21
 261 1156 225 1067 225 1004 c 7
 225 943 251 893 269 880 c 5
 223 835 182 821 142 821 c 7
 73 821 25 881 25 960 c 7
 25 1056 101 1216 332 1285 c 13
 363 1219 l 21
EndSplineSet
Fore
Refer: 11 44 N -1 0 0 -1 491 975 2
Refer: 11 44 N -1 0 0 -1 805 975 2
Colour: ffffff
EndChar

StartChar: quotedblright
Encoding: 8221 8221 197
Width: 820
VWidth: 0
Flags: HMW
LayerCount: 3
Back
SplineSet
17 884 m 17
 119 947 155 1035 155 1098 c 3
 155 1159 129 1209 111 1222 c 1
 157 1267 198 1282 238 1282 c 3
 307 1282 355 1222 355 1143 c 3
 355 1047 279 886 48 817 c 9
 17 884 l 17
271 884 m 17
 373 947 410 1035 410 1098 c 3
 410 1159 383 1209 365 1222 c 1
 411 1267 452 1282 492 1282 c 3
 561 1282 609 1222 609 1143 c 3
 609 1047 533 886 302 817 c 9
 271 884 l 17
EndSplineSet
Fore
Refer: 11 44 N 1 0 0 1 331 1069 2
Refer: 11 44 N 1 0 0 1 14 1069 2
Colour: ffffff
EndChar

StartChar: thorn
Encoding: 254 254 198
Width: 882
VWidth: 0
Flags: HMW
LayerCount: 3
Fore
SplineSet
45 -366 m 1
 151 -366 l 1
 304 651 l 1
 377.989 724.248 422.832 760.872 517 760.872 c 27
 651.738 760.872 684 636 684 453 c 0
 684 217.913 558.936 64 398 64 c 0
 324.96 64 290.785 68.9775 260 74 c 9
 237 -8 l 17
 256.655 -16 293.782 -20 332 -20 c 3
 631.002 -20 800 222.175 800 514 c 0
 800 699.309 730.852 856.872 578 856.872 c 3
 464.576 856.872 357.339 783.605 313 720 c 1
 300 722 l 1
 323 784 l 1
 374 1157.1 l 2
 391.103 1282.22 360.71 1317.1 271 1317.1 c 3
 223 1317.1 183 1305.1 148 1284.1 c 9
 142 1242.1 l 17
 214 1244.1 284 1251 270 1158.1 c 10
 45 -366 l 1
EndSplineSet
Layer: 2
SplineSet
642 125 m 0
 642 47 711 54 791 60 c 1
 783 7 l 1
 759 -4 714 -17 668 -17 c 3
 549 -17 523 43 546 194 c 10
 589 489 l 18
 610 635 625 763 490 763 c 0
 376.574 763 290.062 683 242 624 c 9
 158 0 l 1
 50 0 l 13
 210 1158.1 l 22
 224 1251.1 154 1244.1 82 1242.1 c 13
 88 1284.1 l 21
 123 1305.1 163 1317.1 211 1317.1 c 7
 300.71 1317.1 331.103 1282.22 314 1157.1 c 6
 263 784 l 5
 241 688 l 5
 253 688 l 1
 307.035 761 416.07 857 528 857 c 3
 668.665 857 724.323 788 697 577 c 10
 672 378 l 2
 657 260 642 179 642 125 c 0
EndSplineSet
Colour: ffffff
EndChar

StartChar: Thorn
Encoding: 222 222 199
Width: 1128
VWidth: 0
Flags: HMW
LayerCount: 3
Back
SplineSet
201 119 m 1
 201 1126 l 1
 20 1168 l 1
 30 1244 l 1
 573 1244 l 1
 563 1168 l 1
 393 1130 l 1
 393 1021 l 1
 434 1023 476 1024 517 1024 c 0
 778 1024 1017 953 1017 661 c 0
 1017 423 816 259 573 259 c 0
 537 259 498 261 457 266 c 1
 449 291 441 310 441 350 c 1
 459 348 475 350 492 350 c 0
 707 350 811 446 811 624 c 0
 811 794 717 926 499 926 c 0
 458 926 393 920 393 920 c 1
 393 121 l 1
 629 83 l 1
 616 -2 l 1
 23 -2 l 1
 33 73 l 1
 201 119 l 1
EndSplineSet
Fore
SplineSet
299.854 1205 m 1
 311.03 1244 l 1
 769.03 1244 l 1
 757.854 1205 l 1
 576.21 1182 l 1
 550.711 1021 l 1
 593.186 1024 650.186 1024 692.186 1024 c 0
 960.186 1024 1158.92 915 1118.53 660 c 0
 1078.94 410 820.279 248 570.279 248 c 0
 553.279 248 534.121 247 517.596 250 c 1
 514.406 293 l 1
 568.882 296 l 2
 837.782 308 963.174 462 991.366 640 c 0
 1018.61 812 917.059 979 654.059 979 c 0
 612.059 979 542.949 972 542.949 972 c 1
 399.453 66 l 1
 630.286 46 l 1
 615 0 l 1
 116 0 l 1
 127.652 42 l 1
 290.403 72 l 1
 468.894 1180 l 1
 299.854 1205 l 1
EndSplineSet
Colour: ffffff
EndChar

StartChar: eth
Encoding: 240 240 200
Width: 964
VWidth: 0
Flags: HMW
LayerCount: 3
Back
SplineSet
53 451 m 0
 53 746 232 948 445 948 c 0
 485 948 572 933 602 857 c 1
 608 859 l 1
 587 929 541 1001 497 1071 c 1
 282 1031 l 1
 292 1106 l 1
 461 1139 l 1
 415 1205 365 1262 321 1302 c 1
 438 1302 l 1
 471 1283 528 1238 589 1171 c 1
 740 1201 l 1
 730 1124 l 1
 642 1106 l 1
 746 968 842 757 842 465 c 0
 842 157 663 -27 448 -27 c 0
 171 -27 53 208 53 451 c 0
231 498 m 5
 234 227 332 70 470 70 c 0
 625 70 669 209 669 424 c 0
 669 658 548 853 432 856 c 1
 285.022 856 231 713.682 231 498 c 5
EndSplineSet
Fore
SplineSet
186.432 451 m 0
 233.313 747 385.307 949 597.307 949 c 0
 715.307 949 793.894 858 810.856 782 c 1
 818.015 783 l 1
 807.704 901 763.285 1012 713.064 1099 c 1
 455.987 1048 l 1
 476.064 1099 l 1
 688.717 1141 l 1
 637.388 1221 585.099 1276 562.217 1302 c 1
 628.217 1302 l 1
 680.356 1265 728.596 1216 770.251 1157 c 1
 937.794 1192 l 1
 920.717 1141 l 1
 798.915 1117 l 1
 892.524 963 945.996 745 901.648 465 c 0
 852.866 157 682.724 -27 467.724 -27 c 0
 224.724 -27 147.944 208 186.432 451 c 0
294.875 498 m 0
 245.301 185 349.593 29 500.593 29 c 0
 654.593 29 760.261 210 794.312 425 c 0
 844.521 742 712.438 893 576.438 893 c 2
 572.438 893 l 1
 417.962 890 325.761 693 294.875 498 c 0
EndSplineSet
Colour: ffffff
EndChar

StartChar: Eth
Encoding: 208 208 201
Width: 1387
VWidth: 0
Flags: HMW
LayerCount: 3
Back
SplineSet
1288 659 m 0x1c
 1288 334 1024 0 530 0 c 2x9c
 18 0 l 1
 31 74 l 1
 203 129 l 1
 203 570 l 1
 23 555 l 1
 35 647 l 1
 203 661 l 1
 203 1105 l 1
 31 1135 l 1
 40 1211 l 1x6c
 237 1242 408 1260 553 1260 c 0
 1115 1260 1288 968 1288 659 c 0x1c
395 581 m 1
 395 104 l 1
 606 104 l 2
 935 104 1073 342 1073 598 c 0
 1073 905 890 1158 517 1158 c 0
 476 1158 436 1156 395 1151 c 1
 395 672 l 1
 652 694 l 1
 641 601 l 1
 395 581 l 1
EndSplineSet
Fore
SplineSet
201.764 592 m 1
 220.425 653 l 1
 394.167 664 l 1
 471.617 1153 l 1
 303.102 1175 l 1
 318.804 1211 l 1
 520.714 1242 654.406 1259 800.406 1259 c 0
 1308.41 1259 1424.52 963 1375.74 655 c 0
 1321.57 313 1056 0 543 0 c 2
 112 0 l 1
 126.652 42 l 1
 300.403 72 l 1
 384.822 605 l 1
 201.764 592 l 1
398.553 54 m 1
 578.553 54 l 2
 932.553 54 1200.29 267 1252.87 599 c 0
 1310.37 962 1143.85 1205 754.854 1205 c 0
 712.854 1205 623.17 1207 580.22 1201 c 1
 496.435 672 l 1
 786.443 691 l 1
 768.94 631 l 1
 486.932 612 l 1
 398.553 54 l 1
EndSplineSet
Colour: ffffff
EndChar

StartChar: ae
Encoding: 230 230 202
Width: 1291
VWidth: 0
Flags: HMW
LayerCount: 3
Back
SplineSet
607 740 m 5
 579 766 514 781 468 781 c 4
 308 781 208 533 208 320 c 4
 208 171 250 106 329 106 c 4
 405 106 476 150 508 208 c 13
 607 740 l 5
248 -21 m 4
 126 -21 47 91 47 274 c 4
 47 667 336 885 557 885 c 4
 621 885 690 872 722 855 c 5
 737 836 l 5
 733 798 l 5
 789 838 881 890 944 890 c 4
 1055 890 1126 814 1126 692 c 4
 1126 456 845 372 687 396 c 5
 682 368 682 342 682 324 c 4
 682 175 750 102 864 102 c 4
 917 102 1029 152 1054 177 c 5
 1080 132 l 5
 1035 63 906 -30 770 -30 c 4
 652 -30 586 35 553 156 c 5
 482 48 364 -21 248 -21 c 4
696 469 m 5
 832 453 976 498 976 663 c 4
 976 734 942 798 884 798 c 4
 792 798 732 692 696 469 c 5
EndSplineSet
Fore
SplineSet
664 747.872 m 1
 632.705 770.9 582.412 778.872 531 778.872 c 0
 366.552 778.872 233 627.057 233 310 c 0
 233 138.024 274.653 63 353 63 c 0
 437 63 542 153 575 221 c 1
 664 747.872 l 1
707 397 m 1
 850.049 415.493 1045.4 484.906 1045.4 653.766 c 0
 1045.4 722.505 1008.7 784.872 930 784.872 c 0
 811.132 784.872 722.42 707.075 707 397 c 1
609.015 177 m 1
 580.805 101.36 446.294 -21 320 -21 c 0
 197.393 -21 118 87.2031 118 264 c 0
 118 645.34 382.067 856.872 584 856.872 c 0
 657.169 856.872 741.741 851.268 775 823.872 c 1
 765.856 768.774 l 1
 828.918 825.454 903.874 856.872 982 856.872 c 0
 1087.21 856.872 1163.32 792.634 1163.32 673.552 c 0
 1163.32 502.517 955.403 374.71 705 354 c 1
 699.746 179.522 756.488 68 912 68 c 0
 1009.24 68 1077.82 103.333 1103 121 c 1
 1118 89 l 1
 1077.35 38.3145 960.839 -30 838 -30 c 0
 732.807 -30 645.888 34.8633 609.015 177 c 1
EndSplineSet
Colour: ffffff
EndChar

StartChar: AE
Encoding: 198 198 203
Width: 1834
VWidth: 0
Flags: HMW
LayerCount: 3
Back
SplineSet
-40 1 m 1x7380
 -31 76 l 1
 105 131 l 1
 738 1126 l 1
 524 1168 l 1
 534 1244 l 1
 1596 1244 l 1x7780
 1564 927 l 1
 1478 940 l 1
 1436 1152 l 1
 998 1152 l 1
 998 679 l 1
 1257 679 l 1
 1299 802 l 1
 1394 810 l 1
 1360 424 l 1
 1275 409 l 1
 1241 586 l 1
 998 586 l 1
 998 96 l 1
 1462 96 l 1xbb80
 1563 329 l 1
 1643 313 l 1
 1613 0 l 1
 642 0 l 1
 650 74 l 1
 817 121 l 1
 817 472 l 1
 458 472 l 1
 240 126 l 1
 428 83 l 1
 415 1 l 1
 -40 1 l 1x7380
510 568 m 1
 817 568 l 1
 817 1058 l 1
 510 568 l 1
EndSplineSet
Fore
SplineSet
113.476 3 m 1
 123.811 43 l 1
 271.562 73 l 1
 1100.89 1180 l 1
 871.854 1205 l 1
 884.03 1244 l 1
 1871.03 1244 l 1
 1788.51 925 l 1
 1745.46 931 l 1
 1765.95 1193 l 1
 1231.95 1193 l 1
 1147.38 659 l 1
 1489.38 659 l 1
 1547.39 798 l 1
 1597.66 806 l 1
 1503.05 417 l 1
 1454.62 408 l 1
 1468.82 605 l 1
 1138.82 605 l 1
 1051.55 54 l 1
 1615.55 54 l 1
 1729.16 323 l 1
 1769.57 313 l 1
 1690 0 l 1
 736 0 l 1
 748.652 42 l 1
 946.403 72 l 1
 1009.76 472 l 1
 660.758 472 l 1
 360.453 66 l 1
 541.603 48 l 1
 524.476 3 l 1
 113.476 3 l 1
709.053 537 m 1
 1023.05 537 l 1
 1111.11 1093 l 1
 709.053 537 l 1
EndSplineSet
Colour: ffffff
EndChar

StartChar: divide
Encoding: 247 247 204
Width: 1049
VWidth: 0
Flags: HMW
LayerCount: 3
Back
SplineSet
334 948 m 27
 400 948 454 898 454 834 c 27
 454 766 400 712 334 712 c 27
 268 712 215 768 215 836 c 27
 215 900 270 948 334 948 c 27
334 385 m 27
 400 385 454 335 454 271 c 27
 454 203 400 149 334 149 c 27
 268 149 215 204 215 272 c 27
 215 336 270 385 334 385 c 27
40 604 m 17
 654 604 l 1
 642 499 l 1
 28 499 l 9
 40 604 l 17
EndSplineSet
Fore
SplineSet
113 476 m 1
 125 541 l 1
 937 541 l 1
 926 476 l 1
 113 476 l 1
457 224 m 0
 457 287 474 317 517 317 c 0
 560 317 584 288 584 224 c 0
 584 158 565 120 519 120 c 0
 473 120 457 160 457 224 c 0
457 789 m 0
 457 852 474 885 517 885 c 0
 560 885 584 853 584 789 c 0
 584 723 565 685 519 685 c 0
 473 685 457 725 457 789 c 0
EndSplineSet
Colour: ffffff
EndChar

StartChar: multiply
Encoding: 215 215 205
Width: 682
VWidth: 0
Flags: HMW
LayerCount: 3
Back
SplineSet
284 388 m 1
 119 228 l 1
 53 310 l 1
 208 462 l 1
 53 619 l 1
 135 685 l 1
 289 532 l 1
 454 692 l 1
 520 608 l 1
 363 457 l 1
 522 297 l 1
 439 231 l 1
 284 388 l 1
EndSplineSet
Fore
SplineSet
116 294 m 1
 300 462 l 1
 118 630 l 1
 176 678 l 1
 340 496 l 1
 512 680 l 1
 558 622 l 1
 378 459 l 1
 566 287 l 1
 508 242 l 1
 337 425 l 1
 162 236 l 1
 116 294 l 1
EndSplineSet
Colour: ffffff
EndChar

StartChar: Oslash
Encoding: 216 216 206
Width: 1403
VWidth: 0
Flags: HMW
LayerCount: 3
Back
SplineSet
228 -111 m 1
 359 133 l 1
 399 157 l 1
 925 1139 l 1
 917 1178 l 1
 984 1304 l 1
 1136 1312 l 1
 1039 1134 l 1
 988 1090 l 1
 445 80 l 1
 458 52 l 1
 375 -102 l 1
 228 -111 l 1
295 676 m 0
 295 382 410 79 698 79 c 0
 1002 79 1073 330 1073 573 c 0
 1073 856 957 1176 670 1176 c 0
 370 1176 295 937 295 676 c 0
73 619 m 0
 73 1004 320 1272 718 1272 c 0
 1080 1272 1296 970 1296 619 c 0
 1296 274 1064 -27 649 -27 c 0
 304 -27 73 257 73 619 c 0
EndSplineSet
Fore
SplineSet
126.115 127 m 1
 293.388 255 l 1
 334.714 276 l 1
 1229.29 1012 l 1
 1258.99 1048 l 1
 1391.88 1161 l 5
 1474.5 1127 l 1
 1306.18 1005 l 1
 1256.58 976 l 1
 351.271 229 l 1
 322.519 199 l 1
 204.571 92 l 1
 126.115 127 l 1
361.543 679 m 0
 303.1 310 428.86 37 718.86 37 c 0
 1008.86 37 1199.27 330 1237.75 573 c 0
 1298.1 954 1164.91 1218 878.912 1218 c 0
 585.912 1218 402.882 940 361.543 679 c 0
242.198 620 m 0
 303.177 1005 572.782 1274 935.782 1274 c 0
 1277.78 1274 1414.02 1004 1354.31 627 c 0
 1305.84 321 1066.72 -27 660.724 -27 c 0
 343.724 -27 186.289 267 242.198 620 c 0
EndSplineSet
Colour: ffffff
EndChar

StartChar: oslash
Encoding: 248 248 207
Width: 1074
VWidth: 0
Flags: HMW
LayerCount: 3
Back
SplineSet
24 -46 m 1
 180 141 l 1
 224 157 l 1
 650 727 l 1
 648 765 l 1
 749 897 l 1
 904 904 l 1
 753 705 l 1
 694 670 l 1
 270 109 l 1
 279 78 l 1
 187 -41 l 1
 24 -46 l 1
220 497 m 0
 220 291 290 70 487 70 c 0
 628 70 693 218 693 359 c 0
 693 557 624 798 434 798 c 0
 283 798 220 654 220 497 c 0
40 426 m 0
 40 730 254 903 477 903 c 0
 723 903 872 716 872 441 c 0
 872 162 685 -27 452 -27 c 0
 188 -27 40 169 40 426 c 0
EndSplineSet
Fore
SplineSet
648 454 m 0
 648 618.686 590.255 773.872 433.361 773.872 c 3
 281.9 773.872 176 645 176 377 c 0
 176 160.564 272.315 49 393 49 c 0
 564.283 49 648 185.367 648 454 c 0
340 -26 m 3
 159.861 -26 66 133.164 66 336 c 0
 66 604.068 243.91 856.872 493.361 856.872 c 3
 677.338 856.872 759 679.936 759 503 c 0
 759 197.577 574.761 -26 340 -26 c 3
-7 14 m 1
 124 151 l 1
 166 177 l 1
 627 689 l 1
 658 733 l 1
 724 815 l 1
 838 825 l 1
 704 681 l 1
 657 648 l 1
 196 140 l 1
 165 89 l 1
 105 22 l 1
 -7 14 l 1
EndSplineSet
Colour: ffffff
EndChar

StartChar: Euro
Encoding: 8364 8364 208
Width: 1262
VWidth: 0
Flags: HMW
LayerCount: 3
Back
SplineSet
-14 468 m 1xf8
 -4 567 l 1
 849 567 l 1
 828 468 l 1
 -14 468 l 1xf8
-4 651 m 1
 6 750 l 1
 898 750 l 1
 877 651 l 1
 -4 651 l 1
142 636 m 0
 142 917 347 1269 750 1269 c 0
 882 1269 983 1242 1079 1169 c 1
 1048 837 l 1
 960 850 l 1xfc
 918 1070 l 1
 872 1129 822 1174 693 1174 c 0
 467 1174 354 965 354 666 c 3
 354 343 497 83 750 83 c 0
 812 83 887 108 934 174 c 1
 977 401 l 1
 1065 414 l 1xfa
 1096 111 l 1
 970 12 864 -24 700 -24 c 0
 362 -24 142 234 142 636 c 0
EndSplineSet
Fore
SplineSet
189.885 517 m 1
 201.496 584 l 1
 997.496 584 l 1
 973.885 517 l 1
 189.885 517 l 1
223.761 693 m 1
 236.056 758 l 1
 1071.06 758 l 1
 1047.76 693 l 1
 223.761 693 l 1
376.496 584 m 0
 436.207 961 658.307 1271 1030.31 1271 c 0
 1163.31 1271 1235.03 1244 1320.47 1171 c 1
 1235.09 834 l 1
 1192.36 842 l 1
 1203.38 1101 l 1
 1173.99 1168 1129.01 1206 1016.01 1206 c 0
 744.012 1206 562.059 979 504.564 616 c 0
 443.587 231 576.811 43 830.811 43 c 0
 893.811 43 990.671 80 1071.24 172 c 1
 1144.42 432 l 1
 1189.37 438 l 1
 1167.31 103 l 1
 1036.17 20 931.882 -26 767.882 -26 c 0
 481.882 -26 318.053 215 376.496 584 c 0
EndSplineSet
Colour: ffffff
EndChar

StartChar: Germandbls
Encoding: 7838 7838 209
Width: 1364
VWidth: 0
Flags: HMW
LayerCount: 3
Back
SplineSet
26 0 m 1x75
 34 73 l 1
 198 119 l 1
 198 751 l 2
 198 1102 393 1250 689 1250 c 0
 874 1250 1169 1208 1169 1032 c 0
 1169 956 1127 923 1049 897 c 1
 1013 1001 976 1112 862 1112 c 0
 778 1112 691 1028 691 928 c 0x76
 691 637 1232 680 1232 316 c 0
 1232 90 1050 -24 826 -24 c 0
 684 -24 549 30 494 121 c 1
 507 376 l 1
 602 361 l 1
 637 184 l 1
 673 127 757 76 849 76 c 0xb9
 953 76 1050 110 1050 250 c 0
 1050 503 521 468 521 829 c 0
 521 992 621 1123 761 1155 c 1
 763 1158 l 1
 744 1160 695 1161 676 1161 c 0
 481 1161 387 1027 387 774 c 2
 389 0 l 1
 26 0 l 1x75
EndSplineSet
Fore
SplineSet
110 0 m 1
 121.652 42 l 1
 296.403 72 l 1
 405.848 763 l 2
 462.232 1119 655.307 1271 954.307 1271 c 0
 1144.31 1271 1378 1187 1358.2 1062 c 0
 1349.65 1008 1317.85 984 1260 966 c 1
 1256.1 1074 1196.11 1194 1060.11 1194 c 0
 975.111 1194 841.074 1118 816.683 964 c 0
 767.267 652 1346.25 614 1297.78 308 c 0
 1267.85 119 1089.88 -26 841.882 -26 c 0
 697.882 -26 587.86 37 536.373 116 c 1
 610.512 401 l 1
 658.245 393 l 1
 649.559 174 l 1
 680.779 87 791.86 37 904.86 37 c 0
 1028.86 37 1157.9 113 1181.5 262 c 0
 1226.32 545 659.13 588 711.396 918 c 0
 729.77 1034 821.894 1180 969.12 1213 c 1
 970.912 1218 l 1
 951.388 1221 903.388 1221 883.388 1221 c 0
 683.388 1221 553.195 1043 512.49 786 c 2
 388 0 l 1
 110 0 l 1
EndSplineSet
Colour: ffffff
EndChar

StartChar: Germandbls.alt
Encoding: 65536 -1 210
Width: 1351
VWidth: 0
Flags: HMW
LayerCount: 3
Back
SplineSet
25 0 m 1x7c
 33 73 l 1x7c
 198 119 l 1
 198 678 l 2
 198 1115 392 1250 688 1250 c 0
 851 1250 1076 1232 1134 1213 c 1
 1135 1142 l 1
 835 751 l 1
 922 689 1232 595 1232 332 c 0
 1232 106 1049 -24 825 -24 c 0
 683 -24 548 38 493 129 c 1
 506 392 l 1
 607 377 l 1
 646 192 l 1
 682 135 756 76 848 76 c 0xbc
 952 76 1049 126 1049 266 c 0
 1049 432 772 545 609 639 c 1
 586 687 l 1
 906 1125 l 1
 906 1130 l 1
 864 1148 694 1161 675 1161 c 0
 480 1161 386 1053 386 700 c 1
 388 0 l 1
 25 0 l 1x7c
EndSplineSet
Fore
SplineSet
104 0 m 1
 115.652 42 l 1
 290.403 72 l 1
 399.848 763 l 2
 456.232 1119 649.307 1271 948.307 1271 c 0
 1114.31 1271 1280.46 1253 1337.29 1233 c 1
 1332.38 1202 l 1
 911.571 736 l 1
 1036.11 651 1326.63 528 1291.78 308 c 0
 1261.85 119 1083.88 -26 835.882 -26 c 0
 691.882 -26 581.86 37 530.373 116 c 1
 604.512 401 l 1
 652.245 393 l 1
 643.559 174 l 1
 674.779 87 785.86 37 898.86 37 c 0
 1022.86 37 1151.9 113 1175.5 262 c 0
 1206.7 459 938.229 576 794.701 680 c 1
 780.195 721 l 1
 1190.47 1171 l 1
 1190.94 1174 l 1
 1120.54 1203 970.388 1221 877.388 1221 c 0
 677.388 1221 547.195 1043 506.49 786 c 2
 382 0 l 1
 104 0 l 1
EndSplineSet
Colour: ffffff
EndChar

StartChar: circumflex
Encoding: 710 710 211
Width: 678
VWidth: 0
Flags: HMW
LayerCount: 3
Back
SplineSet
90 1387 m 1
 258 1566 l 1
 313 1581 l 1
 491 1395 l 1
 442 1358 l 1
 279 1468 l 1
 268 1468 l 1
 129 1357 l 1
 90 1387 l 1
EndSplineSet
Fore
SplineSet
139 1388 m 1
 326 1569 l 1
 380 1582 l 1
 539 1396 l 1
 507 1359 l 1
 341 1494 l 1
 332 1494 l 1
 160 1358 l 1
 139 1388 l 1
EndSplineSet
Colour: ffffff
EndChar

StartChar: dagger
Encoding: 8224 8224 212
Width: 892
VWidth: 0
Flags: HMW
LayerCount: 3
Back
SplineSet
37 712 m 1xa0
 45 827 l 1
 342 819 l 1
 334 1255 l 1
 467 1244 l 1
 458 819 l 1
 764 827 l 1
 756 705 l 1
 458 716 l 1xa0
 473 -363 l 1
 328 -351 l 1xc0
 342 718 l 1
 37 712 l 1xa0
EndSplineSet
Fore
SplineSet
219.254 734 m 1
 240.291 810 l 1
 536.183 803 l 1
 597.931 1256 l 1
 690.03 1244 l 1
 609.183 803 l 1
 916.291 810 l 1
 896.621 730 l 1
 599.204 740 l 1
 441.507 -363 l 1
 337.407 -351 l 1
 526.521 742 l 1
 219.254 734 l 1
EndSplineSet
Colour: ffffff
EndChar

StartChar: daggerdbl
Encoding: 8225 8225 213
Width: 900
VWidth: 0
Flags: HMW
LayerCount: 3
Back
SplineSet
52 712 m 1xd0
 59 827 l 1
 354 819 l 1
 347 1255 l 1
 480 1244 l 1
 470 819 l 1
 774 827 l 1
 768 705 l 1
 470 716 l 1
 461 429 l 1xd0
 464 174 l 1
 777 181 l 1
 771 64 l 1
 464 73 l 1
 473 -363 l 1
 340 -352 l 1
 350 73 l 1
 62 64 l 1
 70 187 l 1
 350 175 l 1xe0
 357 498 l 1
 354 718 l 1
 52 712 l 1xd0
EndSplineSet
Fore
SplineSet
221.254 734 m 1
 242.133 809 l 1
 537.024 802 l 1
 598.931 1256 l 1
 691.03 1244 l 1
 610.024 802 l 1
 916.133 809 l 1
 895.462 729 l 1
 600.046 739 l 1
 542.947 429 l 1
 507.392 154 l 1
 819.658 162 l 1
 801.779 87 l 1
 498.363 97 l 1
 431.507 -363 l 1
 341.09 -353 l 1
 422.363 97 l 1
 134.779 87 l 1
 152.767 169 l 1
 431.866 157 l 1
 491.875 498 l 1
 527.204 740 l 1
 221.254 734 l 1
EndSplineSet
Colour: ffffff
EndChar

StartChar: eight.osf
Encoding: 65537 -1 214
Width: 896
VWidth: 0
Flags: HMW
LayerCount: 3
Back
SplineSet
55 280 m 0xe4
 55 393 127 499 271 589 c 1
 271 598 l 1
 197 642 100 753 100 887 c 0
 100 1055 242 1201 417 1201 c 0
 589 1201 700 1094 700 943 c 0xd8
 700 826 650 731 534 645 c 1
 534 636 l 1
 681 544 752 430 752 308 c 0
 752 124 590 -27 360 -27 c 0
 176 -27 55 89 55 280 c 0xe4
220 304 m 0xe4
 220 185 301 66 406 66 c 0
 519 66 594 132 594 266 c 0
 594 374 475 465 330 555 c 1
 277 515 220 409 220 304 c 0xe4
249 977 m 0xd8
 249 868 325 756 466 676 c 1
 506 720 552 778 552 906 c 0
 552 1014 495 1124 390 1124 c 0
 311 1124 249 1057 249 977 c 0xd8
EndSplineSet
Fore
SplineSet
154.506 281 m 4
 173.287 399.58 266.678 517.111 415.356 621 c 5
 416.148 626 l 5
 316.386 709.368 283.208 803.158 300.764 914 c 4
 325.946 1073 459.378 1202 652.378 1202 c 4
 818.378 1202 909.086 1090.52 882.63 923.48 c 4
 859.166 775.337 757.344 668.969 664.664 604 c 5
 663.189 601 l 5
 795.118 499.896 853.562 407.626 833.506 281 c 4
 804.521 98 605.724 -27 417.724 -27 c 4
 233.724 -27 127.264 109 154.506 281 c 4
261.524 319 m 4
 232.698 137 372.182 33 474.227 33 c 4
 623.227 33 721.689 118 739.429 230 c 4
 758.476 350.257 699.866 422.411 450.397 596 c 5
 351.627 528 282.59 452 261.524 319 c 4
385.425 975 m 4
 363.681 837.713 434.922 764.358 627.466 628 c 5
 693.189 679.167 776.888 756.942 798.12 891 c 4
 821.547 1038.91 733.137 1154.77 605.812 1154.77 c 4
 492.66 1154.77 402.076 1080.13 385.425 975 c 4
EndSplineSet
Colour: ffffff
EndChar

StartChar: emdash
Encoding: 8212 8212 215
Width: 1381
VWidth: 0
Flags: HMW
LayerCount: 3
Back
SplineSet
87 409 m 1
 102 513 l 1
 1223 520 l 1
 1207 415 l 1
 87 409 l 1
EndSplineSet
Fore
SplineSet
126 430 m 1
 139 493 l 1
 1258 498 l 1
 1246 437 l 1
 126 430 l 1
EndSplineSet
Colour: ffffff
EndChar

StartChar: endash
Encoding: 8211 8211 216
Width: 870
VWidth: 0
Flags: HMW
LayerCount: 3
Back
SplineSet
87 409 m 1
 102 513 l 1
 713 520 l 1
 697 415 l 1
 87 409 l 1
EndSplineSet
Fore
SplineSet
126 430 m 1
 138 493 l 1
 747 498 l 1
 738 437 l 1
 126 430 l 1
EndSplineSet
Colour: ffffff
EndChar

StartChar: five.osf
Encoding: 65538 -1 217
Width: 943
VWidth: 0
Flags: HMW
LayerCount: 3
Back
SplineSet
-66 -159 m 0
 -66 -86 -25 -37 34 -26 c 1
 68 -96 146 -206 255 -206 c 0
 384 -206 479 -117 479 80 c 0
 479 278 347 395 76 426 c 1
 179 934 l 1
 623 974 l 1
 598 811 l 1
 240 788 l 1
 209 570 l 1
 516 540 663 376 663 145 c 0
 663 -60 466 -297 202 -297 c 0
 12 -297 -66 -217 -66 -159 c 0
EndSplineSet
Fore
SplineSet
80.46 -136 m 0
 87.9033 -89 142.149 -18 190.624 -15 c 1
 204.134 -157 260.779 -235 390.779 -235 c 0
 520.779 -235 692.718 -147 726.137 64 c 0
 757.812 264 599.503 382 328.512 401 c 1
 495.446 912 l 1
 947.148 948 l 1
 911.617 831 l 1
 533.341 804 l 1
 430.667 503 l 1
 710.866 479 887.959 347 852.006 120 c 0
 813.519 -123 603.96 -297 340.96 -297 c 0
 213.96 -297 62.5625 -249 80.46 -136 c 0
EndSplineSet
Colour: ffffff
EndChar

StartChar: four.osf
Encoding: 65539 -1 218
Width: 1074
VWidth: 0
Flags: HMW
LayerCount: 3
Back
SplineSet
-9 164 m 1
 618 986 l 1
 683 968 l 1
 677 849 673 613 673 432 c 2
 673 211 l 1
 927 211 l 1
 910 86 l 1
 675 86 l 1
 675 -267 l 1
 500 -304 l 1
 500 89 l 1
 14 89 l 1
 -9 164 l 1
169 211 m 1
 499 211 l 1
 499 676 l 1
 169 211 l 1
EndSplineSet
Fore
SplineSet
126.392 154 m 1
 857.475 969 l 1
 889.732 958 l 1
 864.043 840 831.217 658 802.391 476 c 2
 758.677 200 l 1
 963.677 200 l 5
 936.798 125 l 5
 746.798 125 l 1
 684.078 -271 l 1
 574.96 -297 l 1
 642.115 127 l 1
 137.115 127 l 1
 126.392 154 l 1
249.677 200 m 1
 649.677 200 l 1
 736.946 751 l 1
 249.677 200 l 1
EndSplineSet
Colour: ffffff
EndChar

StartChar: guilsinglleft
Encoding: 8249 8249 219
Width: 517
VWidth: 0
Flags: HMW
LayerCount: 3
Back
SplineSet
23 469 m 1
 292 820 l 1
 335 761 l 1
 171 461 l 1
 338 141 l 1
 286 77 l 1
 24 449 l 5
 23 469 l 1
EndSplineSet
Fore
SplineSet
109 469 m 1
 377 822 l 1
 405 786 l 1
 217 462 l 1
 404 116 l 1
 372 78 l 1
 112 449 l 1
 109 469 l 1
EndSplineSet
Colour: ffffff
EndChar

StartChar: guilsinglright
Encoding: 8250 8250 220
Width: 518
VWidth: 0
Flags: HMW
LayerCount: 3
Back
SplineSet
61 141 m 1
 228 461 l 1
 64 761 l 1
 108 820 l 1
 376 469 l 1
 374 449 l 1
 113 77 l 1
 61 141 l 1
EndSplineSet
Fore
Refer: 219 8249 N -1 0 0 1 486 0 2
Colour: ffffff
EndChar

StartChar: nine.osf
Encoding: 65540 -1 222
Width: 900
VWidth: 0
Flags: HMW
LayerCount: 3
Back
SplineSet
25 581 m 0
 25 800 199 972 390 972 c 0
 653 972 744 755 744 521 c 0
 744 186 479 -177 148 -282 c 1
 125 -208 l 1
 417 -84 504 140 544 338 c 1
 532 338 l 1
 483 271 401 230 314 230 c 0
 120 230 25 356 25 581 c 0
208 607 m 0
 208 424 262 338 387 338 c 0
 457 338 519 374 550 424 c 1
 558 470 557 525 557 565 c 0
 557 729 491 891 375 891 c 0
 275 891 208 813 208 607 c 0
EndSplineSet
Fore
SplineSet
202.438 571 m 0
 235.064 777 402.673 945 608.673 945 c 0
 863.673 945 901.254 734 864.351 501 c 0
 811.292 166 511.192 -144 157.662 -261 c 1
 142.631 -217 l 1
 445.171 -81 611.789 106 703.466 306 c 1
 697.466 306 l 1
 630.18 260 559.053 215 423.053 215 c 0
 244.053 215 173.611 389 202.438 571 c 0
324.556 597 m 0
 296.997 423 358.248 292 509.248 292 c 0
 612.248 292 684.217 336 716.919 372 c 1
 729.621 408 741.024 480 746.727 516 c 0
 785.53 761 699.754 895 576.754 895 c 0
 438.754 895 354.332 785 324.556 597 c 0
EndSplineSet
Colour: ffffff
EndChar

StartChar: one.osf
Encoding: 65541 -1 223
Width: 737
VWidth: 0
Flags: HMW
LayerCount: 3
Back
SplineSet
35 0 m 1
 44 74 l 1
 228 121 l 1
 228 802 l 1
 55 805 l 1
 64 882 l 1
 368 956 l 1
 396 956 l 1
 396 114 l 1
 585 80 l 1
 575 0 l 1
 35 0 l 1
EndSplineSet
Fore
SplineSet
75.4756 3 m 1
 85.6025 48 l 1
 332.463 85 l 1
 451.567 837 l 1
 224.567 837 l 1
 237.537 881 l 1
 554.09 935 l 1
 579.09 935 l 1
 443.987 82 l 1
 682.188 58 l 1
 668.476 3 l 1
 75.4756 3 l 1
EndSplineSet
Colour: ffffff
EndChar

StartChar: seven.osf
Encoding: 65542 -1 224
Width: 889
VWidth: 0
Flags: HMW
LayerCount: 3
Back
SplineSet
15 617 m 1
 55 945 l 1
 693 945 l 1
 706 850 l 1
 484 448 305 139 252 -295 c 1
 241 -296 216 -304 206 -304 c 0
 121 -304 84 -253 84 -189 c 0
 84 -26 424 550 565 786 c 1
 147 786 l 1
 83 604 l 1
 15 617 l 1
EndSplineSet
Fore
SplineSet
202.972 587 m 1
 268.872 921 l 1
 927.872 921 l 1
 919.319 867 l 1
 637.074 474 400.074 152 339.168 -302 c 1
 335.01 -303 328.852 -304 324.852 -304 c 0
 240.852 -304 215.295 -257 227.332 -181 c 0
 266.467 66.0879 696.738 672.041 820.667 825 c 1
 327.667 825 l 1
 255.705 579 l 1
 202.972 587 l 1
EndSplineSet
Colour: ffffff
EndChar

StartChar: six.osf
Encoding: 65543 -1 225
Width: 895
VWidth: 0
Flags: HMW
LayerCount: 3
Back
SplineSet
37 421 m 0
 37 756 314 1127 628 1229 c 1
 663 1171 l 1
 402 1052 282 816 242 618 c 1
 252 618 l 1
 310 686 393 722 475 722 c 0
 653 722 759 577 759 390 c 0
 759 170 586 -21 385 -21 c 0
 129 -21 37 187 37 421 c 0
232 406 m 0
 232 235 285 61 402 61 c 0
 507 61 572 174 572 328 c 0
 572 463 538 615 396 615 c 0
 322 615 263 570 239 534 c 1
 236 501 232 440 232 406 c 0
EndSplineSet
Fore
SplineSet
182.838 422 m 0
 230.195 721 496.48 1089 857.012 1206 c 1
 871.043 1162 l 1
 579.462 1051 423.133 809 351.456 609 c 1
 359.456 609 l 1
 426.742 655 524.869 700 616.869 700 c 0
 798.869 700 867.735 535 838.91 353 c 0
 807.866 157 627.516 -22 439.516 -22 c 0
 184.516 -22 145.935 189 182.838 422 c 0
301.621 408 m 0
 262.816 163 350.702 36 473.702 36 c 0
 614.702 36 693.351 179 716.792 327 c 0
 744.351 501 689.674 623 529.674 623 c 0
 454.674 623 380.972 587 338.587 553 c 1
 325.885 517 307.322 444 301.621 408 c 0
EndSplineSet
Colour: ffffff
EndChar

StartChar: three.osf
Encoding: 65544 -1 226
Width: 878
VWidth: 0
Flags: HMW
LayerCount: 3
Back
SplineSet
-44 -159 m 0xf4
 -44 -110 9 -46 92 -38 c 1
 98 -81 139 -210 235 -210 c 0
 420 -210 466 -86 466 30 c 0xf4
 466 156 366 298 179 303 c 1
 169 370 l 1
 298 411 436 506 436 687 c 0
 436 774 400 857 310 857 c 0
 202 857 149 788 112 698 c 1
 34 725 l 1
 53 830 190 991 368 991 c 0
 519 991 623 884 623 739 c 0xf8
 623 582 469 450 381 412 c 1
 381 401 l 1
 531 384 654 241 654 83 c 0
 654 -107 461 -297 215 -297 c 0
 41 -297 -44 -225 -44 -159 c 0xf4
EndSplineSet
Fore
SplineSet
84.2607 -112 m 0
 91.7051 -65 143.1 -12 191.574 -9 c 1
 196.976 -158 258.729 -229 388.729 -229 c 0
 536.729 -229 637.084 -151 663.692 17 c 0
 696.161 222 553.198 298 361.624 307 c 1
 364.851 340 l 1
 494.137 386 679.559 496 706.326 665 c 0
 724.223 778 700.358 896.155 569.438 893 c 0
 444.962 890 367.256 788 324.562 717 c 1
 272.412 735 l 1
 331.885 839 460.158 967 626.158 967 c 0
 768.158 967 854.102 853 830.503 704 c 0
 805.161 544 649.68 421 530.395 375 c 1
 529.761 371 l 1
 670.335 362 809.695 238 782.453 66 c 0
 746.658 -160 541.015 -292 335.752 -292 c 0
 163.89 -292 66.3633 -225 84.2607 -112 c 0
EndSplineSet
Colour: ffffff
EndChar

StartChar: two.osf
Encoding: 65545 -1 227
Width: 919
VWidth: 0
Flags: HMW
LayerCount: 3
Back
SplineSet
40 102 m 1
 295 300 l 1
 463 432 497 561 497 658 c 0
 497 796 436 867 343 867 c 0
 257 867 166 782 133 675 c 1
 58 704 l 1
 74 800 209 987 417 991 c 0
 606 994 702 860 702 703 c 0
 702 509 522 348 328 206 c 1
 244 147 l 1
 615 147 l 1
 693 301 l 1
 764 292 l 1
 710 0 l 1
 47 0 l 1
 40 102 l 1
EndSplineSet
Fore
SplineSet
113.286 46 m 1
 354.152 203 l 2
 593.346 355.83 709.966 467 738.633 648 c 0
 759.244 778.131 706.261 897 570.071 897 c 0
 461.549 897 352.572 778 301.791 649 c 1
 248.801 668 l 1
 305.984 827 474.475 969 628.475 969 c 0
 800.642 969 895.066 865.403 865.859 681 c 0
 834.816 485 710.267 360.048 353.808 144 c 2
 256.463 85 l 1
 708.463 85 l 1
 819.932 290 l 1
 857.506 281 l 1
 784 0 l 1
 113 0 l 1
 113.286 46 l 1
EndSplineSet
Colour: ffffff
EndChar

StartChar: f.i
Encoding: 61441 61441 228
Width: 911
VWidth: 0
Flags: HMW
LayerCount: 3
Back
SplineSet
683.802 1157.51 m 4
 683.802 1206.92 706.391 1264.28 760.568 1264.28 c 4
 802.776 1264.28 821.742 1220.06 821.742 1181.05 c 4
 821.742 1126.96 792 1078 742 1078 c 4
 707.744 1078 683.802 1109.62 683.802 1157.51 c 4
525 833 m 21
 560.693 847.636 602.196 856 652 856 c 4
 741.386 856 759.875 813.759 738 663 c 6
 701 378 l 6
 685 253 672.738 174.242 672.738 124.62 c 4
 672.738 47 742 53.9385 822 60 c 5
 816 7 l 5
 792.348 -4.25 746.674 -17 701 -17 c 7
 585.9 -17 563 43 583 194 c 6
 649 694 l 6
 663.358 796.248 598 788 518 778 c 13
 525 833 l 21
58 99 m 6
 150 768 l 5
 10 768 l 5
 15 812 l 5
 162 836 l 5
 210 1198 389.052 1317.1 534 1317.1 c 7
 604.551 1317.1 658 1283.36 658 1224.1 c 20
 658 1195.79 639.211 1160.4 595 1143.1 c 5
 572.455 1198.8 517.772 1229.1 471 1229.1 c 7
 350.902 1229.1 284.675 1144 262 825 c 5
 449 825 l 5
 440 768 l 5
 256 768 l 5
 166 135 l 6
 137 -69 46 -354 -220 -354 c 4
 -266.617 -354 -335.408 -324 -335.408 -259.646 c 4
 -335.408 -234.117 -318 -198 -272 -182 c 5
 -248 -248 -179.933 -268 -140 -268 c 4
 -47.1165 -268 18.6968 -186.803 58 99 c 6
EndSplineSet
Fore
SplineSet
118 99 m 2
 210 768 l 1
 70 768 l 1
 75 812 l 1
 222 836 l 1
 272.581 1198 461.259 1317.1 614 1317.1 c 0
 706.172 1317.1 776 1270.99 776 1190 c 0
 776 1161.69 757.211 1126.3 713 1109 c 1
 683.546 1186.79 612.105 1229.1 551 1229.1 c 0
 419.409 1229.1 346.845 1144 322 825 c 1
 409.917 835 615.777 856.872 658 856.872 c 0
 743 856.872 768 815 748 663 c 2
 711 378 l 2
 695 253 682.738 174.242 682.738 124.62 c 0
 682.738 47 752 53.9385 832 60 c 1
 826 7 l 1
 802.348 -4.25 756.674 -17 711 -17 c 0
 595.9 -17 573 43 593 194 c 2
 659 694 l 2
 662.447 763.236 616.756 768 550 768 c 2
 316 768 l 1
 226 135 l 2
 197 -69 106 -354 -160 -354 c 0
 -206.617 -354 -275.408 -324 -275.408 -259.646 c 0
 -275.408 -234.117 -258 -198 -212 -182 c 1
 -188 -248 -119.933 -268 -80 -268 c 0
 12.8838 -268 78.6973 -186.803 118 99 c 2
EndSplineSet
Colour: ffffff
EndChar

StartChar: f.l
Encoding: 61442 61442 229
Width: 978
VWidth: 0
Flags: HMW
LayerCount: 3
Back
SplineSet
755 194 m 6
 904 1132 l 21
 876 1156 774 1178 713 1178 c 4
 605 1178 506 1130 476 956 c 6
 459 858 l 5
 750 858 l 5
 726 768 l 5
 450 768 l 13
 385 135 l 22
 374 25 350.574 -37.7142 335 -60 c 5
 179 -60 l 5
 195.034 -30.7224 212 -5 222 99 c 6
 288 768 l 5
 135 768 l 5
 149 836 l 5
 306 872 l 5
 353 1118 597 1306 754 1306 c 4
 956 1306 1066 1212 1078 1172 c 13
 938 378 l 6
 921 283 915 216 915 172 c 4
 915 95 973 94 1042 96 c 5
 1034 15 l 5
 1005 0 949 -17 893 -17 c 7
 761 -17 732 48 755 194 c 6
EndSplineSet
Fore
SplineSet
118 99 m 6
 210 768 l 5
 70 768 l 5
 75 812 l 5
 222 836 l 5
 272.581 1198 461.259 1317.1 614 1317.1 c 4
 727.696 1317.1 827.314 1268.55 867 1185 c 13
 749 378 l 6
 731 255 720.738 178.262 720.738 129.619 c 4
 720.738 45.9941 787.681 53.4688 865 60 c 5
 859 7 l 5
 834.938 -4.25 788.469 -17 742 -17 c 4
 626.9 -17 603 43 624 194 c 6
 762.457 1167.76 l 5
 721.609 1207.59 673.639 1229.1 571 1229.1 c 4
 427.917 1229.1 349.015 1144 322 825 c 5
 537 825 l 5
 528 768 l 5
 316 768 l 5
 226 135 l 6
 197 -69 106 -354 -160 -354 c 4
 -206.617 -354 -275.408 -324 -275.408 -259.646 c 4
 -275.408 -234.117 -258 -198 -212 -182 c 5
 -188 -248 -119.933 -268 -80 -268 c 4
 12.8838 -268 78.6973 -186.803 118 99 c 6
EndSplineSet
Colour: ffffff
EndChar

StartChar: zero.osf
Encoding: 65546 -1 230
Width: 1011
VWidth: 0
Flags: HMW
LayerCount: 3
Back
SplineSet
99 482 m 0
 99 746 265 987 488 985 c 0
 732 982 875 772 875 492 c 0
 875 160 680 -23 487 -23 c 0
 285 -23 99 147 99 482 c 0
297 492 m 0
 297 133 389 71 488 71 c 0
 587 71 677 130 677 487 c 0
 677 842 586 900 487 900 c 0
 388 900 297 849 297 492 c 0
EndSplineSet
Fore
SplineSet
190.282 469 m 0
 228.136 708 411.979 967 661.158 967 c 0
 910.938 967 1012.57 736 970.282 469 c 0
 922.767 169 706.53 -26 497.882 -26 c 0
 273.785 -26 144.826 182 190.282 469 c 0
307.648 465 m 0
 268.845 220 344.593 29 512.593 29 c 0
 684.593 29 808.627 206 850.282 469 c 0
 885.127 689 845.764 914 648.764 914 c 0
 433.764 914 342.811 687 307.648 465 c 0
EndSplineSet
Colour: ffffff
EndChar

StartChar: euro.osf
Encoding: 65549 -1 233
Width: 1016
VWidth: 0
Flags: W
HStem: -26 70<536.466 796.649> 318 67<162.978 709.366> 469 65<435.174 767.282> 877.7 56<655.885 880.014>
VStem: 908.526 45.734<632.192 677.199>
LayerCount: 3
Fore
SplineSet
301.472 426 m 0
 342.019 682 518.723 933.7 809.884 933.7 c 0
 897.507 933.7 967.412 917.5 1024.38 873.7 c 1
 954.26 626.7 l 1
 908.526 634.7 l 1
 925.294 803.7 l 1
 903.151 847 854.004 877.7 744.014 877.7 c 0
 614.809 877.7 479.803 743.778 435.174 462 c 0
 393.135 196.58 475.949 44 664.969 44 c 0
 780.969 44 860.549 92.2539 920.016 139 c 1
 937.155 102 l 1
 885.109 50.1377 791.882 -26 605.882 -26 c 0
 380.723 -26 257.93 151.087 301.472 426 c 0
144.366 318 m 1
 162.978 385 l 1
 732.979 385 l 1
 709.366 318 l 1
 144.366 318 l 1
176.282 469 m 1
 193.577 534 l 1
 789.577 534 l 1
 767.282 469 l 1
 176.282 469 l 1
EndSplineSet
Colour: ffffff
EndChar

